# MagicaVoxel @ Ephtracy

# group
o 

# material
mtllib AlarmPanel.mtl
usemtl palette

# normals
vn -1 0 0
vn 1 0 0
vn 0 0 1
vn 0 0 -1
vn 0 -1 0
vn 0 1 0

# texcoords
vt 0.841797 0.5
vt 0.958984 0.5
vt 0.970703 0.5
vt 0.974609 0.5
vt 0.982422 0.5
vt 0.994141 0.5

# verts
v -0.7 3 1.2
v -0.7 3 1
v -0.7 3.2 1.2
v -0.7 3.2 1
v -0.6 0.6 0.4
v -0.6 0.6 0.2
v -0.6 0.8 0.4
v -0.6 0.8 0.2
v -0.6 2.8 1.2
v -0.6 2.8 1
v -0.6 2.9 1.3
v -0.6 2.9 1.2
v -0.6 2.9 1
v -0.6 2.9 0.9
v -0.6 2.9 -0.8
v -0.6 2.9 -0.9
v -0.6 3 1.4
v -0.6 3 1.3
v -0.6 3 1.2
v -0.6 3 1
v -0.6 3 0.9
v -0.6 3 0.8
v -0.6 3 -0.8
v -0.6 3 -0.9
v -0.6 3.2 1.4
v -0.6 3.2 1.3
v -0.6 3.2 1.2
v -0.6 3.2 1
v -0.6 3.2 0.9
v -0.6 3.2 0.8
v -0.6 3.3 1.3
v -0.6 3.3 1.2
v -0.6 3.3 1
v -0.6 3.3 0.9
v -0.6 3.4 1.2
v -0.6 3.4 1
v -0.5 2.8 -0.7
v -0.5 2.8 -1
v -0.5 2.9 -0.8
v -0.5 2.9 -0.9
v -0.5 3 -0.8
v -0.5 3 -0.9
v -0.5 3.1 -0.7
v -0.5 3.1 -1
v -0.4 2.7 -0.2
v -0.4 2.7 -0.4
v -0.4 2.7 -0.6
v -0.4 2.7 -1.1
v -0.4 2.8 -0.7
v -0.4 2.8 -1
v -0.4 2.9 -0.2
v -0.4 2.9 -0.4
v -0.4 3.1 -0.7
v -0.4 3.1 -1
v -0.4 3.2 -0.6
v -0.4 3.2 -1.1
v -0.3 2.4 -0.4
v -0.3 2.4 -0.8
v -0.3 2.5 -0.3
v -0.3 2.5 -0.4
v -0.3 2.5 -0.5
v -0.3 2.5 -0.8
v -0.3 2.6 -0.4
v -0.3 2.6 -0.5
v -0.3 2.6 -0.6
v -0.3 2.6 -1.1
v -0.3 2.7 -0.3
v -0.3 2.7 -0.4
v -0.3 2.7 -0.5
v -0.3 2.7 -0.6
v -0.3 2.7 -1.1
v -0.3 2.7 -1.2
v -0.3 3.2 -0.5
v -0.3 3.2 -0.6
v -0.3 3.2 -1.1
v -0.3 3.2 -1.2
v -0.3 3.3 -0.6
v -0.3 3.3 -1.1
v -0.2 0.5 0.5
v -0.2 0.5 0.0999999
v -0.2 0.6 0.4
v -0.2 0.6 0.2
v -0.2 0.8 0.4
v -0.2 0.8 0.2
v -0.2 0.9 0.5
v -0.2 0.9 0.0999999
v -0.1 0.2 0.8
v -0.1 0.2 -0.2
v -0.1 0.5 0.5
v -0.1 0.5 0.0999999
v -0.1 0.9 0.8
v -0.1 0.9 0.5
v -0.1 0.9 0.0999999
v -0.1 0.9 -0.2
v -0.1 1 0.6
v -0.1 1 -2.38419e-07
v -0.1 1.2 0.6
v -0.1 1.2 -2.38419e-07
v -0.1 1.3 0.8
v -0.1 1.3 -0.2
v -0.1 2.2 -0.7
v -0.1 2.2 -1
v -0.1 2.4 -0.7
v -0.1 2.4 -0.8
v -0.1 2.5 -0.8
v -0.1 2.5 -1
v -0.1 2.7 -0.7
v -0.1 2.7 -1
v -0.1 2.8 -0.6
v -0.1 2.8 -0.7
v -0.1 2.8 -1
v -0.1 2.8 -1.1
v -0.1 3.1 -0.6
v -0.1 3.1 -0.7
v -0.1 3.1 -1
v -0.1 3.1 -1.1
v -0.1 3.2 -0.7
v -0.1 3.2 -1
v 5.96046e-08 0 2
v 5.96046e-08 0 -2
v 5.96046e-08 0.1 1.9
v 5.96046e-08 0.1 -1.9
v 5.96046e-08 0.2 0.8
v 5.96046e-08 0.2 -0.2
v 5.96046e-08 0.8 -0.8
v 5.96046e-08 0.8 -1
v 5.96046e-08 0.8 -1.1
v 5.96046e-08 0.8 -1.3
v 5.96046e-08 0.9 0.8
v 5.96046e-08 0.9 -0.2
v 5.96046e-08 0.9 -0.7
v 5.96046e-08 0.9 -0.8
v 5.96046e-08 0.9 -1
v 5.96046e-08 0.9 -1.1
v 5.96046e-08 0.9 -1.3
v 5.96046e-08 0.9 -1.4
v 5.96046e-08 1.1 -0.7
v 5.96046e-08 1.1 -0.8
v 5.96046e-08 1.1 -0.9
v 5.96046e-08 1.1 -1.2
v 5.96046e-08 1.1 -1.3
v 5.96046e-08 1.1 -1.4
v 5.96046e-08 1.3 0.8
v 5.96046e-08 1.3 -0.2
v 5.96046e-08 1.4 -0.8
v 5.96046e-08 1.4 -0.9
v 5.96046e-08 1.4 -1
v 5.96046e-08 1.4 -1.1
v 5.96046e-08 1.4 -1.2
v 5.96046e-08 1.4 -1.3
v 5.96046e-08 1.5 -0.9
v 5.96046e-08 1.5 -1
v 5.96046e-08 1.5 -1.1
v 5.96046e-08 1.5 -1.2
v 5.96046e-08 1.6 -1
v 5.96046e-08 1.6 -1.1
v 5.96046e-08 2.2 -0.7
v 5.96046e-08 2.2 -1
v 5.96046e-08 2.5 -0.7
v 5.96046e-08 2.5 -1
v 5.96046e-08 2.7 -0.6
v 5.96046e-08 2.7 -1.1
v 5.96046e-08 2.8 1.2
v 5.96046e-08 2.8 1
v 5.96046e-08 2.9 1.3
v 5.96046e-08 2.9 1.2
v 5.96046e-08 2.9 1
v 5.96046e-08 2.9 0.9
v 5.96046e-08 3 1.4
v 5.96046e-08 3 1.3
v 5.96046e-08 3 0.9
v 5.96046e-08 3 0.8
v 5.96046e-08 3.2 1.4
v 5.96046e-08 3.2 1.3
v 5.96046e-08 3.2 0.9
v 5.96046e-08 3.2 0.8
v 5.96046e-08 3.2 -0.6
v 5.96046e-08 3.2 -1.1
v 5.96046e-08 3.3 1.3
v 5.96046e-08 3.3 1.2
v 5.96046e-08 3.3 1
v 5.96046e-08 3.3 0.9
v 5.96046e-08 3.4 1.2
v 5.96046e-08 3.4 1
v 5.96046e-08 3.9 1.9
v 5.96046e-08 3.9 -1.9
v 5.96046e-08 4 2
v 5.96046e-08 4 -2
v -0.2 2.4 -0.4
v -0.2 2.4 -0.7
v -0.2 2.5 -0.3
v -0.2 2.5 -0.4
v -0.2 2.5 -0.5
v -0.2 2.5 -0.7
v -0.2 2.6 -0.4
v -0.2 2.6 -0.5
v -0.2 2.6 -0.6
v -0.2 2.6 -1.1
v -0.2 2.7 -0.2
v -0.2 2.7 -0.3
v -0.2 2.7 -0.5
v -0.2 2.7 -0.6
v -0.2 2.7 -0.7
v -0.2 2.7 -1
v -0.2 2.7 -1.1
v -0.2 2.7 -1.2
v -0.2 2.8 -0.6
v -0.2 2.8 -0.7
v -0.2 2.8 -1
v -0.2 2.8 -1.1
v -0.2 2.9 -0.2
v -0.2 2.9 -0.4
v -0.2 3.1 -0.6
v -0.2 3.1 -0.7
v -0.2 3.1 -1
v -0.2 3.1 -1.1
v -0.2 3.2 -0.5
v -0.2 3.2 -0.6
v -0.2 3.2 -0.7
v -0.2 3.2 -1
v -0.2 3.2 -1.1
v -0.2 3.2 -1.2
v -0.2 3.3 -0.6
v -0.2 3.3 -1.1
v 0.4 0 2
v 0.4 0 -2
v 0.4 4 2
v 0.4 4 -2
v 5.96046e-08 0 2
v 5.96046e-08 4 2
v 0.1 0 2
v 0.1 4 2
v 0.4 0 2
v 0.4 4 2
v -0.6 3 1.4
v -0.6 3.2 1.4
v 5.96046e-08 3 1.4
v 5.96046e-08 3.2 1.4
v -0.6 2.9 1.3
v -0.6 3 1.3
v -0.6 3.2 1.3
v -0.6 3.3 1.3
v 5.96046e-08 2.9 1.3
v 5.96046e-08 3 1.3
v 5.96046e-08 3.2 1.3
v 5.96046e-08 3.3 1.3
v -0.7 3 1.2
v -0.7 3.2 1.2
v -0.6 2.8 1.2
v -0.6 2.9 1.2
v -0.6 3 1.2
v -0.6 3.2 1.2
v -0.6 3.3 1.2
v -0.6 3.4 1.2
v 5.96046e-08 2.8 1.2
v 5.96046e-08 2.9 1.2
v 5.96046e-08 3.3 1.2
v 5.96046e-08 3.4 1.2
v -0.1 0.2 0.8
v -0.1 0.9 0.8
v -0.1 1.3 0.8
v 5.96046e-08 0.2 0.8
v 5.96046e-08 0.9 0.8
v 5.96046e-08 1.3 0.8
v -0.2 0.5 0.5
v -0.2 0.9 0.5
v -0.1 0.5 0.5
v -0.1 0.9 0.5
v -0.6 0.6 0.4
v -0.6 0.8 0.4
v -0.4 0.6 0.4
v -0.4 0.8 0.4
v -0.2 0.6 0.4
v -0.2 0.8 0.4
v -0.4 2.7 -0.2
v -0.4 2.9 -0.2
v -0.2 2.7 -0.2
v -0.2 2.9 -0.2
v -0.3 2.5 -0.3
v -0.3 2.7 -0.3
v -0.2 2.5 -0.3
v -0.2 2.7 -0.3
v -0.3 2.4 -0.4
v -0.3 2.5 -0.4
v -0.2 2.4 -0.4
v -0.2 2.5 -0.4
v -0.3 2.7 -0.5
v -0.3 3.2 -0.5
v -0.2 2.7 -0.5
v -0.2 3.2 -0.5
v -0.4 2.7 -0.6
v -0.4 3.2 -0.6
v -0.3 2.6 -0.6
v -0.3 2.7 -0.6
v -0.3 3.2 -0.6
v -0.3 3.3 -0.6
v -0.2 2.6 -0.6
v -0.2 2.7 -0.6
v -0.2 2.8 -0.6
v -0.2 3.1 -0.6
v -0.2 3.2 -0.6
v -0.2 3.3 -0.6
v -0.1 2.8 -0.6
v -0.1 3.1 -0.6
v 5.96046e-08 2.7 -0.6
v 5.96046e-08 3.2 -0.6
v -0.5 2.8 -0.7
v -0.5 3.1 -0.7
v -0.4 2.8 -0.7
v -0.4 3.1 -0.7
v -0.2 2.4 -0.7
v -0.2 2.5 -0.7
v -0.1 2.2 -0.7
v -0.1 2.4 -0.7
v 5.96046e-08 2.2 -0.7
v 5.96046e-08 2.5 -0.7
v -0.6 2.9 -0.8
v -0.6 3 -0.8
v -0.5 2.9 -0.8
v -0.5 3 -0.8
v -0.2 2.7 -1
v -0.2 2.8 -1
v -0.2 3.1 -1
v -0.2 3.2 -1
v -0.1 2.7 -1
v -0.1 2.8 -1
v -0.1 3.1 -1
v -0.1 3.2 -1
v -0.7 3 1
v -0.7 3.2 1
v -0.6 2.8 1
v -0.6 2.9 1
v -0.6 3 1
v -0.6 3.2 1
v -0.6 3.3 1
v -0.6 3.4 1
v 5.96046e-08 2.8 1
v 5.96046e-08 2.9 1
v 5.96046e-08 3.3 1
v 5.96046e-08 3.4 1
v -0.6 2.9 0.9
v -0.6 3 0.9
v -0.6 3.2 0.9
v -0.6 3.3 0.9
v 5.96046e-08 2.9 0.9
v 5.96046e-08 3 0.9
v 5.96046e-08 3.2 0.9
v 5.96046e-08 3.3 0.9
v -0.6 3 0.8
v -0.6 3.2 0.8
v 5.96046e-08 3 0.8
v 5.96046e-08 3.2 0.8
v -0.6 0.6 0.2
v -0.6 0.8 0.2
v -0.4 0.6 0.2
v -0.4 0.8 0.2
v -0.2 0.6 0.2
v -0.2 0.8 0.2
v -0.2 0.5 0.0999999
v -0.2 0.9 0.0999999
v -0.1 0.5 0.0999999
v -0.1 0.9 0.0999999
v -0.1 0.2 -0.2
v -0.1 0.9 -0.2
v -0.1 1.3 -0.2
v 5.96046e-08 0.2 -0.2
v 5.96046e-08 0.9 -0.2
v 5.96046e-08 1.3 -0.2
v -0.4 2.7 -0.4
v -0.4 2.9 -0.4
v -0.3 2.6 -0.4
v -0.3 2.7 -0.4
v -0.2 2.6 -0.4
v -0.2 2.9 -0.4
v -0.3 2.5 -0.5
v -0.3 2.6 -0.5
v -0.2 2.5 -0.5
v -0.2 2.6 -0.5
v -0.2 2.7 -0.7
v -0.2 2.8 -0.7
v -0.2 3.1 -0.7
v -0.2 3.2 -0.7
v -0.1 2.7 -0.7
v -0.1 2.8 -0.7
v -0.1 3.1 -0.7
v -0.1 3.2 -0.7
v -0.3 2.4 -0.8
v -0.3 2.5 -0.8
v -0.1 2.4 -0.8
v -0.1 2.5 -0.8
v -0.6 2.9 -0.9
v -0.6 3 -0.9
v -0.5 2.9 -0.9
v -0.5 3 -0.9
v -0.5 2.8 -1
v -0.5 3.1 -1
v -0.4 2.8 -1
v -0.4 3.1 -1
v -0.1 2.2 -1
v -0.1 2.5 -1
v 5.96046e-08 2.2 -1
v 5.96046e-08 2.5 -1
v -0.4 2.7 -1.1
v -0.4 3.2 -1.1
v -0.3 2.6 -1.1
v -0.3 2.7 -1.1
v -0.3 3.2 -1.1
v -0.3 3.3 -1.1
v -0.2 2.6 -1.1
v -0.2 2.7 -1.1
v -0.2 2.8 -1.1
v -0.2 3.1 -1.1
v -0.2 3.2 -1.1
v -0.2 3.3 -1.1
v -0.1 2.8 -1.1
v -0.1 3.1 -1.1
v 5.96046e-08 2.7 -1.1
v 5.96046e-08 3.2 -1.1
v -0.3 2.7 -1.2
v -0.3 3.2 -1.2
v -0.2 2.7 -1.2
v -0.2 3.2 -1.2
v 5.96046e-08 0 -2
v 5.96046e-08 4 -2
v 0.1 0 -2
v 0.1 4 -2
v 0.4 0 -2
v 0.4 4 -2
v 5.96046e-08 0 2
v 0.1 0 2
v 0.4 0 2
v 5.96046e-08 0 -2
v 0.1 0 -2
v 0.4 0 -2
v -0.1 0.2 0.8
v 5.96046e-08 0.2 0.8
v -0.1 0.2 -0.2
v 5.96046e-08 0.2 -0.2
v -0.2 0.5 0.5
v -0.1 0.5 0.5
v -0.2 0.5 0.0999999
v -0.1 0.5 0.0999999
v -0.6 0.6 0.4
v -0.4 0.6 0.4
v -0.2 0.6 0.4
v -0.6 0.6 0.2
v -0.4 0.6 0.2
v -0.2 0.6 0.2
v -0.1 2.2 -0.7
v 5.96046e-08 2.2 -0.7
v -0.1 2.2 -1
v 5.96046e-08 2.2 -1
v -0.3 2.4 -0.4
v -0.2 2.4 -0.4
v -0.2 2.4 -0.7
v -0.1 2.4 -0.7
v -0.3 2.4 -0.8
v -0.1 2.4 -0.8
v -0.3 2.5 -0.3
v -0.2 2.5 -0.3
v -0.3 2.5 -0.4
v -0.2 2.5 -0.4
v -0.3 2.6 -0.6
v -0.2 2.6 -0.6
v -0.3 2.6 -1.1
v -0.2 2.6 -1.1
v -0.4 2.7 -0.2
v -0.2 2.7 -0.2
v -0.3 2.7 -0.3
v -0.2 2.7 -0.3
v -0.4 2.7 -0.4
v -0.3 2.7 -0.4
v -0.3 2.7 -0.5
v -0.2 2.7 -0.5
v -0.4 2.7 -0.6
v -0.3 2.7 -0.6
v -0.2 2.7 -0.6
v 5.96046e-08 2.7 -0.6
v -0.2 2.7 -0.7
v -0.1 2.7 -0.7
v -0.2 2.7 -1
v -0.1 2.7 -1
v -0.4 2.7 -1.1
v -0.3 2.7 -1.1
v -0.2 2.7 -1.1
v 5.96046e-08 2.7 -1.1
v -0.3 2.7 -1.2
v -0.2 2.7 -1.2
v -0.6 2.8 1.2
v 5.96046e-08 2.8 1.2
v -0.6 2.8 1
v 5.96046e-08 2.8 1
v -0.5 2.8 -0.7
v -0.4 2.8 -0.7
v -0.5 2.8 -1
v -0.4 2.8 -1
v -0.6 2.9 1.3
v 5.96046e-08 2.9 1.3
v -0.6 2.9 1.2
v 5.96046e-08 2.9 1.2
v -0.6 2.9 1
v 5.96046e-08 2.9 1
v -0.6 2.9 0.9
v 5.96046e-08 2.9 0.9
v -0.6 2.9 -0.8
v -0.5 2.9 -0.8
v -0.6 2.9 -0.9
v -0.5 2.9 -0.9
v -0.6 3 1.4
v 5.96046e-08 3 1.4
v -0.6 3 1.3
v 5.96046e-08 3 1.3
v -0.7 3 1.2
v -0.6 3 1.2
v -0.7 3 1
v -0.6 3 1
v -0.6 3 0.9
v 5.96046e-08 3 0.9
v -0.6 3 0.8
v 5.96046e-08 3 0.8
v -0.2 3.1 -0.6
v -0.1 3.1 -0.6
v -0.2 3.1 -0.7
v -0.1 3.1 -0.7
v -0.2 3.1 -1
v -0.1 3.1 -1
v -0.2 3.1 -1.1
v -0.1 3.1 -1.1
v -0.6 0.8 0.4
v -0.4 0.8 0.4
v -0.2 0.8 0.4
v -0.6 0.8 0.2
v -0.4 0.8 0.2
v -0.2 0.8 0.2
v -0.2 0.9 0.5
v -0.1 0.9 0.5
v -0.2 0.9 0.0999999
v -0.1 0.9 0.0999999
v -0.1 1.3 0.8
v 5.96046e-08 1.3 0.8
v -0.1 1.3 -0.2
v 5.96046e-08 1.3 -0.2
v -0.3 2.5 -0.5
v -0.2 2.5 -0.5
v -0.2 2.5 -0.7
v 5.96046e-08 2.5 -0.7
v -0.3 2.5 -0.8
v -0.1 2.5 -0.8
v -0.1 2.5 -1
v 5.96046e-08 2.5 -1
v -0.3 2.6 -0.4
v -0.2 2.6 -0.4
v -0.3 2.6 -0.5
v -0.2 2.6 -0.5
v -0.2 2.8 -0.6
v -0.1 2.8 -0.6
v -0.2 2.8 -0.7
v -0.1 2.8 -0.7
v -0.2 2.8 -1
v -0.1 2.8 -1
v -0.2 2.8 -1.1
v -0.1 2.8 -1.1
v -0.4 2.9 -0.2
v -0.2 2.9 -0.2
v -0.4 2.9 -0.4
v -0.2 2.9 -0.4
v -0.6 3 -0.8
v -0.5 3 -0.8
v -0.6 3 -0.9
v -0.5 3 -0.9
v -0.5 3.1 -0.7
v -0.4 3.1 -0.7
v -0.5 3.1 -1
v -0.4 3.1 -1
v -0.6 3.2 1.4
v 5.96046e-08 3.2 1.4
v -0.6 3.2 1.3
v 5.96046e-08 3.2 1.3
v -0.7 3.2 1.2
v -0.6 3.2 1.2
v -0.7 3.2 1
v -0.6 3.2 1
v -0.6 3.2 0.9
v 5.96046e-08 3.2 0.9
v -0.6 3.2 0.8
v 5.96046e-08 3.2 0.8
v -0.3 3.2 -0.5
v -0.2 3.2 -0.5
v -0.4 3.2 -0.6
v -0.3 3.2 -0.6
v -0.2 3.2 -0.6
v 5.96046e-08 3.2 -0.6
v -0.2 3.2 -0.7
v -0.1 3.2 -0.7
v -0.2 3.2 -1
v -0.1 3.2 -1
v -0.4 3.2 -1.1
v -0.3 3.2 -1.1
v -0.2 3.2 -1.1
v 5.96046e-08 3.2 -1.1
v -0.3 3.2 -1.2
v -0.2 3.2 -1.2
v -0.6 3.3 1.3
v 5.96046e-08 3.3 1.3
v -0.6 3.3 1.2
v 5.96046e-08 3.3 1.2
v -0.6 3.3 1
v 5.96046e-08 3.3 1
v -0.6 3.3 0.9
v 5.96046e-08 3.3 0.9
v -0.3 3.3 -0.6
v -0.2 3.3 -0.6
v -0.3 3.3 -1.1
v -0.2 3.3 -1.1
v -0.6 3.4 1.2
v 5.96046e-08 3.4 1.2
v -0.6 3.4 1
v 5.96046e-08 3.4 1
v 5.96046e-08 4 2
v 0.1 4 2
v 0.4 4 2
v 5.96046e-08 4 -2
v 0.1 4 -2
v 0.4 4 -2

# faces
f 3/1/1 2/1/1 1/1/1
f 4/1/1 2/1/1 3/1/1
f 7/1/1 6/1/1 5/1/1
f 8/1/1 6/1/1 7/1/1
f 12/1/1 10/1/1 9/1/1
f 13/1/1 10/1/1 12/1/1
f 18/2/1 12/2/1 11/2/1
f 19/1/1 13/1/1 12/1/1
f 19/2/1 12/2/1 18/2/1
f 20/2/1 14/2/1 13/2/1
f 20/1/1 13/1/1 19/1/1
f 21/2/1 14/2/1 20/2/1
f 23/1/1 16/1/1 15/1/1
f 24/1/1 16/1/1 23/1/1
f 25/1/1 19/1/1 18/1/1
f 25/1/1 18/1/1 17/1/1
f 26/1/1 19/1/1 25/1/1
f 27/1/1 19/1/1 26/1/1
f 28/1/1 22/1/1 21/1/1
f 28/1/1 21/1/1 20/1/1
f 29/1/1 22/1/1 28/1/1
f 30/1/1 22/1/1 29/1/1
f 31/2/1 27/2/1 26/2/1
f 32/1/1 28/1/1 27/1/1
f 32/2/1 27/2/1 31/2/1
f 33/2/1 29/2/1 28/2/1
f 33/1/1 28/1/1 32/1/1
f 34/2/1 29/2/1 33/2/1
f 35/1/1 33/1/1 32/1/1
f 36/1/1 33/1/1 35/1/1
f 39/1/1 38/1/1 37/1/1
f 40/1/1 38/1/1 39/1/1
f 41/1/1 39/1/1 37/1/1
f 42/1/1 38/1/1 40/1/1
f 43/1/1 41/1/1 37/1/1
f 43/1/1 42/1/1 41/1/1
f 44/1/1 38/1/1 42/1/1
f 44/1/1 42/1/1 43/1/1
f 49/1/1 48/1/1 47/1/1
f 50/1/1 48/1/1 49/1/1
f 51/3/1 46/3/1 45/3/1
f 52/3/1 46/3/1 51/3/1
f 53/1/1 49/1/1 47/1/1
f 54/1/1 48/1/1 50/1/1
f 55/1/1 53/1/1 47/1/1
f 55/1/1 54/1/1 53/1/1
f 56/1/1 48/1/1 54/1/1
f 56/1/1 54/1/1 55/1/1
f 60/3/1 58/3/1 57/3/1
f 61/3/1 58/3/1 60/3/1
f 62/3/1 58/3/1 61/3/1
f 63/3/1 60/3/1 59/3/1
f 63/3/1 61/3/1 60/3/1
f 64/3/1 61/3/1 63/3/1
f 67/3/1 63/3/1 59/3/1
f 68/3/1 63/3/1 67/3/1
f 70/1/1 66/1/1 65/1/1
f 71/1/1 66/1/1 70/1/1
f 73/1/1 70/1/1 69/1/1
f 74/1/1 70/1/1 73/1/1
f 75/1/1 72/1/1 71/1/1
f 76/1/1 72/1/1 75/1/1
f 77/1/1 75/1/1 74/1/1
f 78/1/1 75/1/1 77/1/1
f 81/6/1 80/6/1 79/6/1
f 82/6/1 80/6/1 81/6/1
f 83/6/1 81/6/1 79/6/1
f 84/6/1 80/6/1 82/6/1
f 85/6/1 83/6/1 79/6/1
f 85/6/1 84/6/1 83/6/1
f 86/6/1 80/6/1 84/6/1
f 86/6/1 84/6/1 85/6/1
f 89/3/1 88/3/1 87/3/1
f 90/3/1 88/3/1 89/3/1
f 91/3/1 89/3/1 87/3/1
f 92/3/1 89/3/1 91/3/1
f 93/3/1 88/3/1 90/3/1
f 94/3/1 88/3/1 93/3/1
f 95/2/1 92/2/1 91/2/1
f 95/2/1 93/2/1 92/2/1
f 95/2/1 94/2/1 93/2/1
f 96/2/1 94/2/1 95/2/1
f 97/2/1 95/2/1 91/2/1
f 97/6/1 96/6/1 95/6/1
f 98/2/1 94/2/1 96/2/1
f 98/6/1 96/6/1 97/6/1
f 99/2/1 97/2/1 91/2/1
f 99/2/1 98/2/1 97/2/1
f 100/2/1 94/2/1 98/2/1
f 100/2/1 98/2/1 99/2/1
f 103/3/1 102/3/1 101/3/1
f 104/3/1 102/3/1 103/3/1
f 105/3/1 102/3/1 104/3/1
f 106/3/1 102/3/1 105/3/1
f 110/3/1 108/3/1 107/3/1
f 111/3/1 108/3/1 110/3/1
f 113/3/1 111/3/1 110/3/1
f 113/3/1 112/3/1 111/3/1
f 113/3/1 110/3/1 109/3/1
f 114/3/1 112/3/1 113/3/1
f 115/3/1 112/3/1 114/3/1
f 116/3/1 112/3/1 115/3/1
f 117/3/1 115/3/1 114/3/1
f 118/3/1 115/3/1 117/3/1
f 121/3/1 120/3/1 119/3/1
f 122/3/1 120/3/1 121/3/1
f 123/5/1 122/5/1 121/5/1
f 124/5/1 122/5/1 123/5/1
f 125/5/1 122/5/1 124/5/1
f 126/5/1 122/5/1 125/5/1
f 127/5/1 122/5/1 126/5/1
f 128/5/1 122/5/1 127/5/1
f 129/5/1 123/5/1 121/5/1
f 130/5/1 125/5/1 124/5/1
f 131/5/1 125/5/1 130/5/1
f 132/2/1 126/2/1 125/2/1
f 132/5/1 125/5/1 131/5/1
f 133/4/1 127/4/1 126/4/1
f 133/2/1 126/2/1 132/2/1
f 134/2/1 128/2/1 127/2/1
f 134/4/1 127/4/1 133/4/1
f 135/5/1 122/5/1 128/5/1
f 135/2/1 128/2/1 134/2/1
f 136/5/1 122/5/1 135/5/1
f 137/5/1 131/5/1 130/5/1
f 137/2/1 132/2/1 131/2/1
f 138/4/1 134/4/1 133/4/1
f 138/2/1 132/2/1 137/2/1
f 138/4/1 133/4/1 132/4/1
f 138/4/1 135/4/1 134/4/1
f 139/4/1 135/4/1 138/4/1
f 140/4/1 135/4/1 139/4/1
f 141/2/1 136/2/1 135/2/1
f 141/4/1 135/4/1 140/4/1
f 142/5/1 122/5/1 136/5/1
f 142/2/1 136/2/1 141/2/1
f 143/5/1 129/5/1 121/5/1
f 144/5/1 137/5/1 130/5/1
f 144/5/1 138/5/1 137/5/1
f 145/2/1 139/2/1 138/2/1
f 145/5/1 144/5/1 143/5/1
f 145/5/1 138/5/1 144/5/1
f 146/4/1 140/4/1 139/4/1
f 146/2/1 139/2/1 145/2/1
f 147/4/1 140/4/1 146/4/1
f 148/4/1 140/4/1 147/4/1
f 149/2/1 141/2/1 140/2/1
f 149/4/1 140/4/1 148/4/1
f 150/5/1 142/5/1 141/5/1
f 150/2/1 141/2/1 149/2/1
f 151/5/1 146/5/1 145/5/1
f 151/2/1 147/2/1 146/2/1
f 152/4/1 148/4/1 147/4/1
f 152/2/1 147/2/1 151/2/1
f 153/2/1 149/2/1 148/2/1
f 153/4/1 148/4/1 152/4/1
f 154/5/1 150/5/1 149/5/1
f 154/2/1 149/2/1 153/2/1
f 155/5/1 152/5/1 151/5/1
f 155/2/1 153/2/1 152/2/1
f 156/5/1 154/5/1 153/5/1
f 156/2/1 153/2/1 155/2/1
f 157/5/1 151/5/1 145/5/1
f 157/5/1 145/5/1 143/5/1
f 157/5/1 156/5/1 155/5/1
f 157/5/1 155/5/1 151/5/1
f 158/5/1 156/5/1 157/5/1
f 159/5/1 157/5/1 143/5/1
f 160/5/1 156/5/1 158/5/1
f 161/5/1 159/5/1 143/5/1
f 161/5/1 160/5/1 159/5/1
f 162/5/1 154/5/1 156/5/1
f 162/5/1 160/5/1 161/5/1
f 162/5/1 156/5/1 160/5/1
f 163/5/1 143/5/1 121/5/1
f 163/5/1 161/5/1 143/5/1
f 164/5/1 161/5/1 163/5/1
f 165/5/1 163/5/1 121/5/1
f 166/5/1 163/5/1 165/5/1
f 167/5/1 161/5/1 164/5/1
f 168/5/1 161/5/1 167/5/1
f 169/5/1 165/5/1 121/5/1
f 170/5/1 165/5/1 169/5/1
f 171/5/1 161/5/1 168/5/1
f 172/5/1 161/5/1 171/5/1
f 173/5/1 169/5/1 121/5/1
f 176/5/1 161/5/1 172/5/1
f 177/5/1 161/5/1 176/5/1
f 178/5/1 154/5/1 162/5/1
f 179/5/1 174/5/1 173/5/1
f 182/5/1 177/5/1 176/5/1
f 182/5/1 178/5/1 177/5/1
f 182/5/1 176/5/1 175/5/1
f 183/5/1 180/5/1 179/5/1
f 184/5/1 182/5/1 181/5/1
f 185/3/1 121/3/1 119/3/1
f 185/5/1 184/5/1 183/5/1
f 185/5/1 183/5/1 179/5/1
f 185/5/1 179/5/1 173/5/1
f 185/5/1 173/5/1 121/5/1
f 186/5/1 182/5/1 184/5/1
f 186/5/1 184/5/1 185/5/1
f 186/3/1 120/3/1 122/3/1
f 186/5/1 122/5/1 142/5/1
f 186/5/1 154/5/1 178/5/1
f 186/5/1 142/5/1 150/5/1
f 186/5/1 150/5/1 154/5/1
f 186/5/1 178/5/1 182/5/1
f 187/3/1 185/3/1 119/3/1
f 187/3/1 186/3/1 185/3/1
f 188/3/1 120/3/1 186/3/1
f 188/3/1 186/3/1 187/3/1
f 189/3/2 190/3/2 192/3/2
f 192/3/2 190/3/2 193/3/2
f 193/3/2 190/3/2 194/3/2
f 191/3/2 192/3/2 195/3/2
f 192/3/2 193/3/2 195/3/2
f 195/3/2 193/3/2 196/3/2
f 191/3/2 195/3/2 200/3/2
f 197/1/2 198/1/2 202/1/2
f 202/1/2 198/1/2 203/1/2
f 203/1/2 198/1/2 204/1/2
f 204/1/2 198/1/2 205/1/2
f 201/1/2 202/1/2 207/1/2
f 203/1/2 204/1/2 208/1/2
f 208/1/2 204/1/2 209/1/2
f 205/1/2 206/1/2 210/1/2
f 199/3/2 200/3/2 211/3/2
f 200/3/2 195/3/2 212/3/2
f 211/3/2 200/3/2 212/3/2
f 209/1/2 210/1/2 213/1/2
f 208/1/2 209/1/2 213/1/2
f 201/1/2 207/1/2 213/1/2
f 207/1/2 208/1/2 213/1/2
f 213/1/2 210/1/2 214/1/2
f 214/1/2 210/1/2 215/1/2
f 210/1/2 206/1/2 216/1/2
f 215/1/2 210/1/2 216/1/2
f 201/1/2 213/1/2 217/1/2
f 217/1/2 213/1/2 218/1/2
f 214/1/2 215/1/2 219/1/2
f 219/1/2 215/1/2 220/1/2
f 216/1/2 206/1/2 221/1/2
f 221/1/2 206/1/2 222/1/2
f 219/1/2 220/1/2 223/1/2
f 220/1/2 221/1/2 223/1/2
f 218/1/2 219/1/2 223/1/2
f 223/1/2 221/1/2 224/1/2
f 225/5/2 226/5/2 227/5/2
f 227/5/2 226/5/2 228/5/2
f 231/3/3 230/3/3 229/3/3
f 232/3/3 230/3/3 231/3/3
f 233/5/3 232/5/3 231/5/3
f 234/5/3 232/5/3 233/5/3
f 237/1/3 236/1/3 235/1/3
f 238/1/3 236/1/3 237/1/3
f 243/2/3 240/2/3 239/2/3
f 244/2/3 240/2/3 243/2/3
f 245/2/3 242/2/3 241/2/3
f 246/2/3 242/2/3 245/2/3
f 251/1/3 248/1/3 247/1/3
f 252/1/3 248/1/3 251/1/3
f 255/1/3 250/1/3 249/1/3
f 256/1/3 250/1/3 255/1/3
f 257/1/3 254/1/3 253/1/3
f 258/1/3 254/1/3 257/1/3
f 262/3/3 260/3/3 259/3/3
f 263/2/3 261/2/3 260/2/3
f 263/3/3 260/3/3 262/3/3
f 264/2/3 261/2/3 263/2/3
f 267/6/3 266/6/3 265/6/3
f 268/6/3 266/6/3 267/6/3
f 271/1/3 270/1/3 269/1/3
f 272/1/3 270/1/3 271/1/3
f 273/6/3 272/6/3 271/6/3
f 274/6/3 272/6/3 273/6/3
f 277/3/3 276/3/3 275/3/3
f 278/3/3 276/3/3 277/3/3
f 281/3/3 280/3/3 279/3/3
f 282/3/3 280/3/3 281/3/3
f 285/3/3 284/3/3 283/3/3
f 286/3/3 284/3/3 285/3/3
f 289/1/3 288/1/3 287/1/3
f 290/1/3 288/1/3 289/1/3
f 294/1/3 292/1/3 291/1/3
f 295/1/3 292/1/3 294/1/3
f 297/1/3 294/1/3 293/1/3
f 298/1/3 294/1/3 297/1/3
f 301/1/3 296/1/3 295/1/3
f 302/1/3 296/1/3 301/1/3
f 303/3/3 299/3/3 298/3/3
f 304/3/3 301/3/3 300/3/3
f 305/3/3 303/3/3 298/3/3
f 305/3/3 304/3/3 303/3/3
f 306/3/3 301/3/3 304/3/3
f 306/3/3 304/3/3 305/3/3
f 309/1/3 308/1/3 307/1/3
f 310/1/3 308/1/3 309/1/3
f 314/3/3 312/3/3 311/3/3
f 315/3/3 314/3/3 313/3/3
f 316/3/3 312/3/3 314/3/3
f 316/3/3 314/3/3 315/3/3
f 319/1/3 318/1/3 317/1/3
f 320/1/3 318/1/3 319/1/3
f 325/3/3 322/3/3 321/3/3
f 326/3/3 322/3/3 325/3/3
f 327/3/3 324/3/3 323/3/3
f 328/3/3 324/3/3 327/3/3
f 329/1/4 330/1/4 333/1/4
f 333/1/4 330/1/4 334/1/4
f 331/1/4 332/1/4 337/1/4
f 337/1/4 332/1/4 338/1/4
f 335/1/4 336/1/4 339/1/4
f 339/1/4 336/1/4 340/1/4
f 341/2/4 342/2/4 345/2/4
f 345/2/4 342/2/4 346/2/4
f 343/2/4 344/2/4 347/2/4
f 347/2/4 344/2/4 348/2/4
f 349/1/4 350/1/4 351/1/4
f 351/1/4 350/1/4 352/1/4
f 353/1/4 354/1/4 355/1/4
f 355/1/4 354/1/4 356/1/4
f 355/6/4 356/6/4 357/6/4
f 357/6/4 356/6/4 358/6/4
f 359/6/4 360/6/4 361/6/4
f 361/6/4 360/6/4 362/6/4
f 363/3/4 364/3/4 366/3/4
f 364/2/4 365/2/4 367/2/4
f 366/3/4 364/3/4 367/3/4
f 367/2/4 365/2/4 368/2/4
f 369/3/4 370/3/4 372/3/4
f 371/3/4 372/3/4 373/3/4
f 372/3/4 370/3/4 374/3/4
f 373/3/4 372/3/4 374/3/4
f 375/3/4 376/3/4 377/3/4
f 377/3/4 376/3/4 378/3/4
f 379/3/4 380/3/4 383/3/4
f 383/3/4 380/3/4 384/3/4
f 381/3/4 382/3/4 385/3/4
f 385/3/4 382/3/4 386/3/4
f 387/3/4 388/3/4 389/3/4
f 389/3/4 388/3/4 390/3/4
f 391/1/4 392/1/4 393/1/4
f 393/1/4 392/1/4 394/1/4
f 395/1/4 396/1/4 397/1/4
f 397/1/4 396/1/4 398/1/4
f 399/3/4 400/3/4 401/3/4
f 401/3/4 400/3/4 402/3/4
f 403/1/4 404/1/4 406/1/4
f 406/1/4 404/1/4 407/1/4
f 405/1/4 406/1/4 409/1/4
f 409/1/4 406/1/4 410/1/4
f 407/1/4 408/1/4 413/1/4
f 413/1/4 408/1/4 414/1/4
f 410/3/4 411/3/4 415/3/4
f 412/3/4 413/3/4 416/3/4
f 410/3/4 415/3/4 417/3/4
f 415/3/4 416/3/4 417/3/4
f 416/3/4 413/3/4 418/3/4
f 417/3/4 416/3/4 418/3/4
f 419/1/4 420/1/4 421/1/4
f 421/1/4 420/1/4 422/1/4
f 423/3/4 424/3/4 425/3/4
f 425/3/4 424/3/4 426/3/4
f 425/5/4 426/5/4 427/5/4
f 427/5/4 426/5/4 428/5/4
f 432/3/5 430/3/5 429/3/5
f 433/5/5 431/5/5 430/5/5
f 433/3/5 430/3/5 432/3/5
f 434/5/5 431/5/5 433/5/5
f 437/3/5 436/3/5 435/3/5
f 438/3/5 436/3/5 437/3/5
f 441/6/5 440/6/5 439/6/5
f 442/6/5 440/6/5 441/6/5
f 446/1/5 444/1/5 443/1/5
f 447/6/5 445/6/5 444/6/5
f 447/1/5 444/1/5 446/1/5
f 448/6/5 445/6/5 447/6/5
f 451/3/5 450/3/5 449/3/5
f 452/3/5 450/3/5 451/3/5
f 455/3/5 454/3/5 453/3/5
f 457/3/5 455/3/5 453/3/5
f 457/3/5 456/3/5 455/3/5
f 458/3/5 456/3/5 457/3/5
f 461/3/5 460/3/5 459/3/5
f 462/3/5 460/3/5 461/3/5
f 465/1/5 464/1/5 463/1/5
f 466/1/5 464/1/5 465/1/5
f 469/3/5 468/3/5 467/3/5
f 470/3/5 468/3/5 469/3/5
f 471/3/5 469/3/5 467/3/5
f 472/3/5 469/3/5 471/3/5
f 476/1/5 474/1/5 473/1/5
f 477/1/5 474/1/5 476/1/5
f 479/3/5 478/3/5 477/3/5
f 480/3/5 478/3/5 479/3/5
f 482/3/5 478/3/5 480/3/5
f 483/1/5 476/1/5 475/1/5
f 484/1/5 476/1/5 483/1/5
f 485/3/5 482/3/5 481/3/5
f 486/3/5 478/3/5 482/3/5
f 486/3/5 482/3/5 485/3/5
f 487/1/5 485/1/5 484/1/5
f 488/1/5 485/1/5 487/1/5
f 491/1/5 490/1/5 489/1/5
f 492/1/5 490/1/5 491/1/5
f 495/1/5 494/1/5 493/1/5
f 496/1/5 494/1/5 495/1/5
f 499/2/5 498/2/5 497/2/5
f 500/2/5 498/2/5 499/2/5
f 503/2/5 502/2/5 501/2/5
f 504/2/5 502/2/5 503/2/5
f 507/1/5 506/1/5 505/1/5
f 508/1/5 506/1/5 507/1/5
f 511/1/5 510/1/5 509/1/5
f 512/1/5 510/1/5 511/1/5
f 515/1/5 514/1/5 513/1/5
f 516/1/5 514/1/5 515/1/5
f 519/1/5 518/1/5 517/1/5
f 520/1/5 518/1/5 519/1/5
f 523/3/5 522/3/5 521/3/5
f 524/3/5 522/3/5 523/3/5
f 527/3/5 526/3/5 525/3/5
f 528/3/5 526/3/5 527/3/5
f 529/1/6 530/1/6 532/1/6
f 530/6/6 531/6/6 533/6/6
f 532/1/6 530/1/6 533/1/6
f 533/6/6 531/6/6 534/6/6
f 535/6/6 536/6/6 537/6/6
f 537/6/6 536/6/6 538/6/6
f 539/2/6 540/2/6 541/2/6
f 541/2/6 540/2/6 542/2/6
f 543/3/6 544/3/6 545/3/6
f 543/3/6 545/3/6 547/3/6
f 545/3/6 546/3/6 547/3/6
f 547/3/6 546/3/6 548/3/6
f 548/3/6 546/3/6 549/3/6
f 549/3/6 546/3/6 550/3/6
f 551/3/6 552/3/6 553/3/6
f 553/3/6 552/3/6 554/3/6
f 555/3/6 556/3/6 557/3/6
f 557/3/6 556/3/6 558/3/6
f 559/3/6 560/3/6 561/3/6
f 561/3/6 560/3/6 562/3/6
f 563/3/6 564/3/6 565/3/6
f 565/3/6 564/3/6 566/3/6
f 567/1/6 568/1/6 569/1/6
f 569/1/6 568/1/6 570/1/6
f 571/1/6 572/1/6 573/1/6
f 573/1/6 572/1/6 574/1/6
f 575/1/6 576/1/6 577/1/6
f 577/1/6 576/1/6 578/1/6
f 579/1/6 580/1/6 581/1/6
f 581/1/6 580/1/6 582/1/6
f 583/1/6 584/1/6 585/1/6
f 585/1/6 584/1/6 586/1/6
f 587/1/6 588/1/6 590/1/6
f 590/1/6 588/1/6 591/1/6
f 591/3/6 592/3/6 593/3/6
f 593/3/6 592/3/6 594/3/6
f 594/3/6 592/3/6 596/3/6
f 589/1/6 590/1/6 597/1/6
f 597/1/6 590/1/6 598/1/6
f 595/3/6 596/3/6 599/3/6
f 596/3/6 592/3/6 600/3/6
f 599/3/6 596/3/6 600/3/6
f 598/1/6 599/1/6 601/1/6
f 601/1/6 599/1/6 602/1/6
f 603/2/6 604/2/6 605/2/6
f 605/2/6 604/2/6 606/2/6
f 607/2/6 608/2/6 609/2/6
f 609/2/6 608/2/6 610/2/6
f 611/1/6 612/1/6 613/1/6
f 613/1/6 612/1/6 614/1/6
f 615/1/6 616/1/6 617/1/6
f 617/1/6 616/1/6 618/1/6
f 619/3/6 620/3/6 622/3/6
f 620/5/6 621/5/6 623/5/6
f 622/3/6 620/3/6 623/3/6
f 623/5/6 621/5/6 624/5/6
