# MagicaVoxel @ Ephtracy

# group
o 

# material
mtllib Bar.mtl
usemtl palette

# normals
vn -1 0 0
vn 1 0 0
vn 0 0 1
vn 0 0 -1
vn 0 -1 0
vn 0 1 0

# texcoords
vt 0.970703 0.5
vt 0.974609 0.5
vt 0.978516 0.5
vt 0.982422 0.5
vt 0.986328 0.5
vt 0.994141 0.5

# verts
v -1.4 0 0.5
v -1.4 0 -0.5
v -1.4 0.1 0.5
v -1.4 0.1 -0.5
v -1.3 0.1 0.4
v -1.3 0.1 -0.4
v -1.3 0.2 0.4
v -1.3 0.2 -0.4
v -1.2 0.2 0.3
v -1.2 0.2 0.2
v -1.2 0.2 -0.2
v -1.2 0.2 -0.3
v -1.2 0.4 0.3
v -1.2 0.4 0.2
v -1.2 0.4 -0.2
v -1.2 0.4 -0.3
v -1.2 1.2 0.3
v -1.2 1.2 0.2
v -1.2 1.2 -0.2
v -1.2 1.2 -0.3
v -1.2 1.3 0.4
v -1.2 1.3 0.3
v -1.2 1.3 -0.3
v -1.2 1.3 -0.4
v -1.2 1.4 0.6
v -1.2 1.4 0.4
v -1.2 1.4 0.2
v -1.2 1.4 -0.2
v -1.2 1.4 -0.4
v -1.2 1.4 -0.5
v -1.2 1.5 0.6
v -1.2 1.5 0.5
v -1.2 1.5 0.4
v -1.2 1.5 -0.5
v -1.2 1.6 0.6
v -1.2 1.6 0.5
v 1.2 0.2 0.3
v 1.2 0.2 0.2
v 1.2 0.2 -0.2
v 1.2 0.2 -0.3
v 1.2 0.4 0.3
v 1.2 0.4 0.2
v 1.2 0.4 -0.2
v 1.2 0.4 -0.3
v 1.2 1.2 0.3
v 1.2 1.2 0.2
v 1.2 1.2 -0.2
v 1.2 1.2 -0.3
v 1.2 1.3 0.4
v 1.2 1.3 0.3
v 1.2 1.3 -0.3
v 1.2 1.3 -0.4
v 1.2 1.4 0.6
v 1.2 1.4 0.4
v 1.2 1.4 0.2
v 1.2 1.4 -0.2
v 1.2 1.4 -0.4
v 1.2 1.4 -0.5
v 1.2 1.5 0.6
v 1.2 1.5 0.5
v 1.2 1.5 0.4
v 1.2 1.5 -0.5
v 1.2 1.6 0.6
v 1.2 1.6 0.5
v 1.3 0.1 0.4
v 1.3 0.1 -0.4
v 1.3 0.2 0.4
v 1.3 0.2 -0.4
v 1.4 0 0.5
v 1.4 0 -0.5
v 1.4 0.1 0.5
v 1.4 0.1 -0.5
v -1.2 1.4 0.6
v -1.2 1.5 0.6
v -1.2 1.6 0.6
v 1.2 1.4 0.6
v 1.2 1.5 0.6
v 1.2 1.6 0.6
v -1.4 0 0.5
v -1.4 0.1 0.5
v 1.4 0 0.5
v 1.4 0.1 0.5
v -1.3 0.1 0.4
v -1.3 0.2 0.4
v -1.2 1.3 0.4
v -1.2 1.4 0.4
v 1.2 1.3 0.4
v 1.2 1.4 0.4
v 1.3 0.1 0.4
v 1.3 0.2 0.4
v -1.2 0.2 0.3
v -1.2 0.4 0.3
v -1.2 1.2 0.3
v -1.2 1.3 0.3
v 1.2 0.2 0.3
v 1.2 0.4 0.3
v 1.2 1.2 0.3
v 1.2 1.3 0.3
v -1.2 0.4 0.2
v -1.2 1.2 0.2
v 1.2 0.4 0.2
v 1.2 1.2 0.2
v -1.2 1.5 0.5
v -1.2 1.6 0.5
v 1.2 1.5 0.5
v 1.2 1.6 0.5
v -1.2 0.4 -0.2
v -1.2 1.2 -0.2
v 1.2 0.4 -0.2
v 1.2 1.2 -0.2
v -1.2 0.2 -0.3
v -1.2 0.4 -0.3
v -1.2 1.2 -0.3
v -1.2 1.3 -0.3
v 1.2 0.2 -0.3
v 1.2 0.4 -0.3
v 1.2 1.2 -0.3
v 1.2 1.3 -0.3
v -1.3 0.1 -0.4
v -1.3 0.2 -0.4
v -1.2 1.3 -0.4
v -1.2 1.4 -0.4
v 1.2 1.3 -0.4
v 1.2 1.4 -0.4
v 1.3 0.1 -0.4
v 1.3 0.2 -0.4
v -1.4 0 -0.5
v -1.4 0.1 -0.5
v -1.2 1.4 -0.5
v -1.2 1.5 -0.5
v 1.2 1.4 -0.5
v 1.2 1.5 -0.5
v 1.4 0 -0.5
v 1.4 0.1 -0.5
v -1.4 0 0.5
v 1.4 0 0.5
v 1.1 0 0.3
v 1.2 0 0.3
v 1.1 0 -0.3
v 1.2 0 -0.3
v -1.4 0 -0.5
v 1.4 0 -0.5
v -1.2 1.2 0.3
v 1.2 1.2 0.3
v -1.2 1.2 0.2
v 1.2 1.2 0.2
v -1.2 1.2 -0.2
v 1.2 1.2 -0.2
v -1.2 1.2 -0.3
v 1.2 1.2 -0.3
v -1.2 1.3 0.4
v 1.2 1.3 0.4
v -1.2 1.3 0.3
v 1.2 1.3 0.3
v -1.2 1.3 -0.3
v 1.2 1.3 -0.3
v -1.2 1.3 -0.4
v 1.2 1.3 -0.4
v -1.2 1.4 0.6
v 1.2 1.4 0.6
v -1.2 1.4 0.4
v 1.2 1.4 0.4
v -1.2 1.4 -0.4
v 1.2 1.4 -0.4
v -1.2 1.4 -0.5
v 1.2 1.4 -0.5
v -1.4 0.1 0.5
v 1.4 0.1 0.5
v -1.3 0.1 0.4
v 1.3 0.1 0.4
v -1.3 0.1 -0.4
v 1.3 0.1 -0.4
v -1.4 0.1 -0.5
v 1.4 0.1 -0.5
v -1.3 0.2 0.4
v 1.3 0.2 0.4
v -1.2 0.2 0.3
v 1.2 0.2 0.3
v -1.2 0.2 0.2
v 1.2 0.2 0.2
v -1.2 0.2 -0.2
v 1.2 0.2 -0.2
v -1.2 0.2 -0.3
v 1.2 0.2 -0.3
v -1.3 0.2 -0.4
v 1.3 0.2 -0.4
v -1.2 0.4 0.3
v 1.2 0.4 0.3
v -1.2 0.4 0.2
v 1.2 0.4 0.2
v -1.2 0.4 -0.2
v 1.2 0.4 -0.2
v -1.2 0.4 -0.3
v 1.2 0.4 -0.3
v -1.2 1.5 0.5
v 1.2 1.5 0.5
v -1.2 1.5 0.4
v 1.2 1.5 0.4
v -1.2 1.5 -0.5
v 1.2 1.5 -0.5
v -1.2 1.6 0.6
v 1.2 1.6 0.6
v -1.2 1.6 0.5
v 1.2 1.6 0.5

# faces
f 3/5/1 2/5/1 1/5/1
f 4/5/1 2/5/1 3/5/1
f 7/5/1 6/5/1 5/5/1
f 8/5/1 6/5/1 7/5/1
f 13/4/1 10/4/1 9/4/1
f 14/3/1 11/3/1 10/3/1
f 14/4/1 10/4/1 13/4/1
f 15/4/1 12/4/1 11/4/1
f 15/3/1 11/3/1 14/3/1
f 16/4/1 12/4/1 15/4/1
f 18/3/1 15/3/1 14/3/1
f 19/3/1 15/3/1 18/3/1
f 22/4/1 18/4/1 17/4/1
f 23/4/1 20/4/1 19/4/1
f 26/4/1 22/4/1 21/4/1
f 27/3/1 19/3/1 18/3/1
f 27/4/1 18/4/1 22/4/1
f 27/4/1 22/4/1 26/4/1
f 28/4/1 23/4/1 19/4/1
f 28/3/1 19/3/1 27/3/1
f 28/4/1 24/4/1 23/4/1
f 29/4/1 24/4/1 28/4/1
f 31/4/1 26/4/1 25/4/1
f 32/4/1 26/4/1 31/4/1
f 33/1/1 27/1/1 26/1/1
f 33/4/1 26/4/1 32/4/1
f 33/1/1 30/1/1 29/1/1
f 33/1/1 28/1/1 27/1/1
f 33/1/1 29/1/1 28/1/1
f 34/1/1 30/1/1 33/1/1
f 35/6/1 32/6/1 31/6/1
f 36/6/1 32/6/1 35/6/1
f 37/4/2 38/4/2 41/4/2
f 38/3/2 39/3/2 42/3/2
f 41/4/2 38/4/2 42/4/2
f 39/4/2 40/4/2 43/4/2
f 42/3/2 39/3/2 43/3/2
f 43/4/2 40/4/2 44/4/2
f 42/3/2 43/3/2 46/3/2
f 46/3/2 43/3/2 47/3/2
f 45/4/2 46/4/2 50/4/2
f 47/4/2 48/4/2 51/4/2
f 49/4/2 50/4/2 54/4/2
f 46/3/2 47/3/2 55/3/2
f 50/4/2 46/4/2 55/4/2
f 54/4/2 50/4/2 55/4/2
f 47/4/2 51/4/2 56/4/2
f 55/3/2 47/3/2 56/3/2
f 51/4/2 52/4/2 56/4/2
f 56/4/2 52/4/2 57/4/2
f 53/4/2 54/4/2 59/4/2
f 59/4/2 54/4/2 60/4/2
f 54/1/2 55/1/2 61/1/2
f 60/4/2 54/4/2 61/4/2
f 57/1/2 58/1/2 61/1/2
f 55/1/2 56/1/2 61/1/2
f 56/1/2 57/1/2 61/1/2
f 61/1/2 58/1/2 62/1/2
f 59/6/2 60/6/2 63/6/2
f 63/6/2 60/6/2 64/6/2
f 65/5/2 66/5/2 67/5/2
f 67/5/2 66/5/2 68/5/2
f 69/5/2 70/5/2 71/5/2
f 71/5/2 70/5/2 72/5/2
f 76/4/3 74/4/3 73/4/3
f 77/6/3 75/6/3 74/6/3
f 77/4/3 74/4/3 76/4/3
f 78/6/3 75/6/3 77/6/3
f 81/5/3 80/5/3 79/5/3
f 82/5/3 80/5/3 81/5/3
f 87/4/3 86/4/3 85/4/3
f 88/4/3 86/4/3 87/4/3
f 89/5/3 84/5/3 83/5/3
f 90/5/3 84/5/3 89/5/3
f 95/4/3 92/4/3 91/4/3
f 96/4/3 92/4/3 95/4/3
f 97/4/3 94/4/3 93/4/3
f 98/4/3 94/4/3 97/4/3
f 101/3/3 100/3/3 99/3/3
f 102/3/3 100/3/3 101/3/3
f 103/6/4 104/6/4 105/6/4
f 105/6/4 104/6/4 106/6/4
f 107/3/4 108/3/4 109/3/4
f 109/3/4 108/3/4 110/3/4
f 111/4/4 112/4/4 115/4/4
f 115/4/4 112/4/4 116/4/4
f 113/4/4 114/4/4 117/4/4
f 117/4/4 114/4/4 118/4/4
f 121/4/4 122/4/4 123/4/4
f 123/4/4 122/4/4 124/4/4
f 119/5/4 120/5/4 125/5/4
f 125/5/4 120/5/4 126/5/4
f 129/1/4 130/1/4 131/1/4
f 131/1/4 130/1/4 132/1/4
f 127/5/4 128/5/4 133/5/4
f 133/5/4 128/5/4 134/5/4
f 137/5/5 136/5/5 135/5/5
f 138/5/5 136/5/5 137/5/5
f 139/5/5 137/5/5 135/5/5
f 139/2/5 138/2/5 137/2/5
f 140/5/5 136/5/5 138/5/5
f 140/2/5 138/2/5 139/2/5
f 141/5/5 139/5/5 135/5/5
f 141/5/5 140/5/5 139/5/5
f 142/5/5 136/5/5 140/5/5
f 142/5/5 140/5/5 141/5/5
f 145/4/5 144/4/5 143/4/5
f 146/4/5 144/4/5 145/4/5
f 149/4/5 148/4/5 147/4/5
f 150/4/5 148/4/5 149/4/5
f 153/4/5 152/4/5 151/4/5
f 154/4/5 152/4/5 153/4/5
f 157/4/5 156/4/5 155/4/5
f 158/4/5 156/4/5 157/4/5
f 161/4/5 160/4/5 159/4/5
f 162/4/5 160/4/5 161/4/5
f 165/1/5 164/1/5 163/1/5
f 166/1/5 164/1/5 165/1/5
f 167/5/6 168/5/6 169/5/6
f 169/5/6 168/5/6 170/5/6
f 167/5/6 169/5/6 171/5/6
f 170/5/6 168/5/6 172/5/6
f 167/5/6 171/5/6 173/5/6
f 171/5/6 172/5/6 173/5/6
f 172/5/6 168/5/6 174/5/6
f 173/5/6 172/5/6 174/5/6
f 175/5/6 176/5/6 177/5/6
f 177/5/6 176/5/6 178/5/6
f 175/5/6 177/5/6 179/5/6
f 178/5/6 176/5/6 180/5/6
f 175/5/6 179/5/6 181/5/6
f 180/5/6 176/5/6 182/5/6
f 175/5/6 181/5/6 183/5/6
f 182/5/6 176/5/6 184/5/6
f 175/5/6 183/5/6 185/5/6
f 183/5/6 184/5/6 185/5/6
f 184/5/6 176/5/6 186/5/6
f 185/5/6 184/5/6 186/5/6
f 187/4/6 188/4/6 189/4/6
f 189/4/6 188/4/6 190/4/6
f 191/4/6 192/4/6 193/4/6
f 193/4/6 192/4/6 194/4/6
f 195/4/6 196/4/6 197/4/6
f 197/4/6 196/4/6 198/4/6
f 197/1/6 198/1/6 199/1/6
f 199/1/6 198/1/6 200/1/6
f 201/6/6 202/6/6 203/6/6
f 203/6/6 202/6/6 204/6/6
