# MagicaVoxel @ Ephtracy

# group
o 

# material
mtllib bulletin-board-bg.mtl
usemtl palette

# normals
vn -1 0 0
vn 1 0 0
vn 0 0 1
vn 0 0 -1
vn 0 -1 0
vn 0 1 0

# texcoords
vt 0.337891 0.5
vt 0.958984 0.5
vt 0.962891 0.5
vt 0.982422 0.5

# verts
v -1.7 1.8 2
v -1.7 1.8 1.9
v -1.7 3.7 2
v -1.7 3.7 1.9
v 1.7 1.8 2
v 1.7 1.8 1.9
v 1.7 3.7 2
v 1.7 3.7 1.9
v -1.7 1.8 2
v -1.7 3.7 2
v -1.6 1.9 2
v -1.6 3.6 2
v -1.5 2 2
v -1.5 2.7 2
v -1.3 2.4 2
v -1.3 2.6 2
v -1.3 2.9 2
v -1.3 3.1 2
v -1.3 3.2 2
v -1.3 3.4 2
v -1.1 2.4 2
v -1.1 2.6 2
v -1.1 2.9 2
v -1.1 3.1 2
v -1.1 3.2 2
v -1.1 3.4 2
v -1 2 2
v -1 2.7 2
v -0.9 2 2
v -0.9 2.7 2
v -0.8 2.1 2
v -0.8 2.3 2
v -0.6 2.1 2
v -0.6 2.3 2
v -0.4 2 2
v -0.4 2.7 2
v 0 2.9 2
v 0 3.1 2
v 0.2 2.9 2
v 0.2 3.1 2
v 0.5 3 2
v 0.5 3.2 2
v 0.7 2.2 2
v 0.7 2.4 2
v 0.7 3 2
v 0.7 3.2 2
v 0.9 2.2 2
v 0.9 2.4 2
v 0.9 2.7 2
v 0.9 3.4 2
v 1 2.2 2
v 1 2.4 2
v 1.2 2.2 2
v 1.2 2.4 2
v 1.4 2.7 2
v 1.4 3.4 2
v 1.6 1.9 2
v 1.6 3.6 2
v 1.7 1.8 2
v 1.7 3.7 2
v -1.7 1.8 1.9
v -1.7 3.7 1.9
v -1.6 1.9 1.9
v -1.6 3.6 1.9
v -1.5 2 1.9
v -1.5 2.7 1.9
v -1.3 2.4 1.9
v -1.3 2.6 1.9
v -1.3 2.9 1.9
v -1.3 3.1 1.9
v -1.3 3.2 1.9
v -1.3 3.4 1.9
v -1.1 2.4 1.9
v -1.1 2.6 1.9
v -1.1 2.9 1.9
v -1.1 3.1 1.9
v -1.1 3.2 1.9
v -1.1 3.4 1.9
v -1 2 1.9
v -1 2.7 1.9
v -0.9 2 1.9
v -0.9 2.7 1.9
v -0.8 2.1 1.9
v -0.8 2.3 1.9
v -0.6 2.1 1.9
v -0.6 2.3 1.9
v -0.4 2 1.9
v -0.4 2.7 1.9
v 0 2.9 1.9
v 0 3.1 1.9
v 0.2 2.9 1.9
v 0.2 3.1 1.9
v 0.5 3 1.9
v 0.5 3.2 1.9
v 0.7 2.2 1.9
v 0.7 2.4 1.9
v 0.7 3 1.9
v 0.7 3.2 1.9
v 0.9 2.2 1.9
v 0.9 2.4 1.9
v 0.9 2.7 1.9
v 0.9 3.4 1.9
v 1 2.2 1.9
v 1 2.4 1.9
v 1.2 2.2 1.9
v 1.2 2.4 1.9
v 1.4 2.7 1.9
v 1.4 3.4 1.9
v 1.6 1.9 1.9
v 1.6 3.6 1.9
v 1.7 1.8 1.9
v 1.7 3.7 1.9
v -1.7 1.8 2
v 1.7 1.8 2
v -1.7 1.8 1.9
v 1.7 1.8 1.9
v -1.7 3.7 2
v 1.7 3.7 2
v -1.7 3.7 1.9
v 1.7 3.7 1.9

# faces
f 3/4/1 2/4/1 1/4/1
f 4/4/1 2/4/1 3/4/1
f 5/4/2 6/4/2 7/4/2
f 7/4/2 6/4/2 8/4/2
f 11/4/3 10/4/3 9/4/3
f 12/4/3 10/4/3 11/4/3
f 13/1/3 12/1/3 11/1/3
f 14/1/3 12/1/3 13/1/3
f 15/2/3 14/2/3 13/2/3
f 16/2/3 14/2/3 15/2/3
f 17/1/3 12/1/3 14/1/3
f 18/1/3 12/1/3 17/1/3
f 19/1/3 12/1/3 18/1/3
f 20/1/3 12/1/3 19/1/3
f 21/2/3 15/2/3 13/2/3
f 21/3/3 16/3/3 15/3/3
f 22/2/3 14/2/3 16/2/3
f 22/3/3 16/3/3 21/3/3
f 23/1/3 17/1/3 14/1/3
f 23/3/3 18/3/3 17/3/3
f 24/1/3 19/1/3 18/1/3
f 24/3/3 18/3/3 23/3/3
f 25/3/3 20/3/3 19/3/3
f 25/1/3 19/1/3 24/1/3
f 26/1/3 12/1/3 20/1/3
f 26/3/3 20/3/3 25/3/3
f 27/1/3 13/1/3 11/1/3
f 27/2/3 21/2/3 13/2/3
f 27/2/3 22/2/3 21/2/3
f 28/1/3 26/1/3 25/1/3
f 28/2/3 22/2/3 27/2/3
f 28/1/3 25/1/3 24/1/3
f 28/1/3 23/1/3 14/1/3
f 28/2/3 14/2/3 22/2/3
f 28/1/3 24/1/3 23/1/3
f 29/1/3 27/1/3 11/1/3
f 29/1/3 28/1/3 27/1/3
f 30/1/3 26/1/3 28/1/3
f 30/1/3 28/1/3 29/1/3
f 31/2/3 30/2/3 29/2/3
f 32/2/3 30/2/3 31/2/3
f 33/2/3 31/2/3 29/2/3
f 33/3/3 32/3/3 31/3/3
f 34/2/3 30/2/3 32/2/3
f 34/3/3 32/3/3 33/3/3
f 35/1/3 29/1/3 11/1/3
f 35/2/3 33/2/3 29/2/3
f 35/2/3 34/2/3 33/2/3
f 36/2/3 30/2/3 34/2/3
f 36/2/3 34/2/3 35/2/3
f 36/1/3 26/1/3 30/1/3
f 37/1/3 36/1/3 35/1/3
f 37/1/3 26/1/3 36/1/3
f 38/1/3 26/1/3 37/1/3
f 39/1/3 37/1/3 35/1/3
f 39/3/3 38/3/3 37/3/3
f 40/1/3 26/1/3 38/1/3
f 40/3/3 38/3/3 39/3/3
f 41/1/3 40/1/3 39/1/3
f 42/1/3 26/1/3 40/1/3
f 42/1/3 40/1/3 41/1/3
f 43/1/3 39/1/3 35/1/3
f 43/1/3 41/1/3 39/1/3
f 44/1/3 41/1/3 43/1/3
f 45/3/3 42/3/3 41/3/3
f 45/1/3 41/1/3 44/1/3
f 46/1/3 26/1/3 42/1/3
f 46/3/3 42/3/3 45/3/3
f 47/3/3 44/3/3 43/3/3
f 47/1/3 43/1/3 35/1/3
f 48/1/3 45/1/3 44/1/3
f 48/3/3 44/3/3 47/3/3
f 48/1/3 46/1/3 45/1/3
f 49/1/3 46/1/3 48/1/3
f 50/1/3 12/1/3 26/1/3
f 50/1/3 46/1/3 49/1/3
f 50/1/3 26/1/3 46/1/3
f 51/1/3 49/1/3 48/1/3
f 51/1/3 47/1/3 35/1/3
f 51/1/3 48/1/3 47/1/3
f 52/1/3 49/1/3 51/1/3
f 53/1/3 51/1/3 35/1/3
f 53/3/3 52/3/3 51/3/3
f 54/1/3 49/1/3 52/1/3
f 54/3/3 52/3/3 53/3/3
f 55/2/3 50/2/3 49/2/3
f 55/1/3 49/1/3 54/1/3
f 55/1/3 54/1/3 53/1/3
f 56/1/3 12/1/3 50/1/3
f 56/2/3 50/2/3 55/2/3
f 57/4/3 11/4/3 9/4/3
f 57/1/3 55/1/3 53/1/3
f 57/1/3 56/1/3 55/1/3
f 57/1/3 53/1/3 35/1/3
f 57/1/3 35/1/3 11/1/3
f 58/1/3 12/1/3 56/1/3
f 58/1/3 56/1/3 57/1/3
f 58/4/3 10/4/3 12/4/3
f 59/4/3 57/4/3 9/4/3
f 59/4/3 58/4/3 57/4/3
f 60/4/3 10/4/3 58/4/3
f 60/4/3 58/4/3 59/4/3
f 61/4/4 62/4/4 63/4/4
f 63/4/4 62/4/4 64/4/4
f 63/1/4 64/1/4 65/1/4
f 65/1/4 64/1/4 66/1/4
f 65/2/4 66/2/4 67/2/4
f 67/2/4 66/2/4 68/2/4
f 66/1/4 64/1/4 69/1/4
f 69/1/4 64/1/4 70/1/4
f 70/1/4 64/1/4 71/1/4
f 71/1/4 64/1/4 72/1/4
f 65/2/4 67/2/4 73/2/4
f 67/3/4 68/3/4 73/3/4
f 68/2/4 66/2/4 74/2/4
f 73/3/4 68/3/4 74/3/4
f 66/1/4 69/1/4 75/1/4
f 69/3/4 70/3/4 75/3/4
f 70/1/4 71/1/4 76/1/4
f 75/3/4 70/3/4 76/3/4
f 71/3/4 72/3/4 77/3/4
f 76/1/4 71/1/4 77/1/4
f 72/1/4 64/1/4 78/1/4
f 77/3/4 72/3/4 78/3/4
f 63/1/4 65/1/4 79/1/4
f 65/2/4 73/2/4 79/2/4
f 73/2/4 74/2/4 79/2/4
f 77/1/4 78/1/4 80/1/4
f 79/2/4 74/2/4 80/2/4
f 76/1/4 77/1/4 80/1/4
f 66/1/4 75/1/4 80/1/4
f 74/2/4 66/2/4 80/2/4
f 75/1/4 76/1/4 80/1/4
f 63/1/4 79/1/4 81/1/4
f 79/1/4 80/1/4 81/1/4
f 80/1/4 78/1/4 82/1/4
f 81/1/4 80/1/4 82/1/4
f 81/2/4 82/2/4 83/2/4
f 83/2/4 82/2/4 84/2/4
f 81/2/4 83/2/4 85/2/4
f 83/3/4 84/3/4 85/3/4
f 84/2/4 82/2/4 86/2/4
f 85/3/4 84/3/4 86/3/4
f 63/1/4 81/1/4 87/1/4
f 81/2/4 85/2/4 87/2/4
f 85/2/4 86/2/4 87/2/4
f 86/2/4 82/2/4 88/2/4
f 87/2/4 86/2/4 88/2/4
f 82/1/4 78/1/4 88/1/4
f 87/1/4 88/1/4 89/1/4
f 88/1/4 78/1/4 89/1/4
f 89/1/4 78/1/4 90/1/4
f 87/1/4 89/1/4 91/1/4
f 89/3/4 90/3/4 91/3/4
f 90/1/4 78/1/4 92/1/4
f 91/3/4 90/3/4 92/3/4
f 91/1/4 92/1/4 93/1/4
f 92/1/4 78/1/4 94/1/4
f 93/1/4 92/1/4 94/1/4
f 87/1/4 91/1/4 95/1/4
f 91/1/4 93/1/4 95/1/4
f 95/1/4 93/1/4 96/1/4
f 93/3/4 94/3/4 97/3/4
f 96/1/4 93/1/4 97/1/4
f 94/1/4 78/1/4 98/1/4
f 97/3/4 94/3/4 98/3/4
f 95/3/4 96/3/4 99/3/4
f 87/1/4 95/1/4 99/1/4
f 96/1/4 97/1/4 100/1/4
f 99/3/4 96/3/4 100/3/4
f 97/1/4 98/1/4 100/1/4
f 100/1/4 98/1/4 101/1/4
f 78/1/4 64/1/4 102/1/4
f 101/1/4 98/1/4 102/1/4
f 98/1/4 78/1/4 102/1/4
f 100/1/4 101/1/4 103/1/4
f 87/1/4 99/1/4 103/1/4
f 99/1/4 100/1/4 103/1/4
f 103/1/4 101/1/4 104/1/4
f 87/1/4 103/1/4 105/1/4
f 103/3/4 104/3/4 105/3/4
f 104/1/4 101/1/4 106/1/4
f 105/3/4 104/3/4 106/3/4
f 101/2/4 102/2/4 107/2/4
f 106/1/4 101/1/4 107/1/4
f 105/1/4 106/1/4 107/1/4
f 102/1/4 64/1/4 108/1/4
f 107/2/4 102/2/4 108/2/4
f 61/4/4 63/4/4 109/4/4
f 105/1/4 107/1/4 109/1/4
f 107/1/4 108/1/4 109/1/4
f 87/1/4 105/1/4 109/1/4
f 63/1/4 87/1/4 109/1/4
f 108/1/4 64/1/4 110/1/4
f 109/1/4 108/1/4 110/1/4
f 64/4/4 62/4/4 110/4/4
f 61/4/4 109/4/4 111/4/4
f 109/4/4 110/4/4 111/4/4
f 110/4/4 62/4/4 112/4/4
f 111/4/4 110/4/4 112/4/4
f 115/4/5 114/4/5 113/4/5
f 116/4/5 114/4/5 115/4/5
f 117/4/6 118/4/6 119/4/6
f 119/4/6 118/4/6 120/4/6
