# MagicaVoxel @ Ephtracy

# group
o 

# material
mtllib bulletin-board.mtl
usemtl palette

# normals
vn -1 0 0
vn 1 0 0
vn 0 0 1
vn 0 0 -1
vn 0 -1 0
vn 0 1 0

# texcoords
vt 0.00976563 0.5
vt 0.341797 0.5
vt 0.966797 0.5
vt 0.982422 0.5

# verts
v -1.7 1.8 2
v -1.7 1.8 1.9
v -1.7 3.7 2
v -1.7 3.7 1.9
v 1.7 1.8 2
v 1.7 1.8 1.9
v 1.7 3.7 2
v 1.7 3.7 1.9
v -1.7 1.8 2
v -1.7 3.7 2
v -1.6 1.9 2
v -1.6 3.6 2
v -1.5 2 2
v -1.5 2.7 2
v -1.3 2.4 2
v -1.3 2.6 2
v -1.3 2.9 2
v -1.3 3.1 2
v -1.3 3.2 2
v -1.3 3.4 2
v -1.1 2.4 2
v -1.1 2.6 2
v -1.1 2.9 2
v -1.1 3.1 2
v -1.1 3.2 2
v -1.1 3.4 2
v -1 2 2
v -1 2.7 2
v -0.9 2 2
v -0.9 2.7 2
v -0.8 2.1 2
v -0.8 2.3 2
v -0.6 2.1 2
v -0.6 2.3 2
v -0.4 2 2
v -0.4 2.7 2
v 0 2.9 2
v 0 3.1 2
v 0.2 2.9 2
v 0.2 3.1 2
v 0.5 3 2
v 0.5 3.2 2
v 0.7 2.2 2
v 0.7 2.4 2
v 0.7 3 2
v 0.7 3.2 2
v 0.9 2.2 2
v 0.9 2.4 2
v 0.9 2.7 2
v 0.9 3.4 2
v 1 2.2 2
v 1 2.4 2
v 1.2 2.2 2
v 1.2 2.4 2
v 1.4 2.7 2
v 1.4 3.4 2
v 1.6 1.9 2
v 1.6 3.6 2
v 1.7 1.8 2
v 1.7 3.7 2
v -1.7 1.8 1.9
v -1.7 3.7 1.9
v -1.6 1.9 1.9
v -1.6 3.6 1.9
v -1.5 2 1.9
v -1.5 2.7 1.9
v -1.3 2.4 1.9
v -1.3 2.6 1.9
v -1.3 2.9 1.9
v -1.3 3.1 1.9
v -1.3 3.2 1.9
v -1.3 3.4 1.9
v -1.1 2.4 1.9
v -1.1 2.6 1.9
v -1.1 2.9 1.9
v -1.1 3.1 1.9
v -1.1 3.2 1.9
v -1.1 3.4 1.9
v -1 2 1.9
v -1 2.7 1.9
v -0.9 2 1.9
v -0.9 2.7 1.9
v -0.8 2.1 1.9
v -0.8 2.3 1.9
v -0.6 2.1 1.9
v -0.6 2.3 1.9
v -0.4 2 1.9
v -0.4 2.7 1.9
v 0 2.9 1.9
v 0 3.1 1.9
v 0.2 2.9 1.9
v 0.2 3.1 1.9
v 0.5 3 1.9
v 0.5 3.2 1.9
v 0.7 2.2 1.9
v 0.7 2.4 1.9
v 0.7 3 1.9
v 0.7 3.2 1.9
v 0.9 2.2 1.9
v 0.9 2.4 1.9
v 0.9 2.7 1.9
v 0.9 3.4 1.9
v 1 2.2 1.9
v 1 2.4 1.9
v 1.2 2.2 1.9
v 1.2 2.4 1.9
v 1.4 2.7 1.9
v 1.4 3.4 1.9
v 1.6 1.9 1.9
v 1.6 3.6 1.9
v 1.7 1.8 1.9
v 1.7 3.7 1.9
v -1.7 1.8 2
v 1.7 1.8 2
v -1.7 1.8 1.9
v 1.7 1.8 1.9
v -1.7 3.7 2
v 1.7 3.7 2
v -1.7 3.7 1.9
v 1.7 3.7 1.9

# faces
f 3/4/1 2/4/1 1/4/1
f 4/4/1 2/4/1 3/4/1
f 5/4/2 6/4/2 7/4/2
f 7/4/2 6/4/2 8/4/2
f 11/4/3 10/4/3 9/4/3
f 12/4/3 10/4/3 11/4/3
f 13/2/3 12/2/3 11/2/3
f 14/2/3 12/2/3 13/2/3
f 15/3/3 14/3/3 13/3/3
f 16/3/3 14/3/3 15/3/3
f 17/2/3 12/2/3 14/2/3
f 18/2/3 12/2/3 17/2/3
f 19/2/3 12/2/3 18/2/3
f 20/2/3 12/2/3 19/2/3
f 21/3/3 15/3/3 13/3/3
f 21/1/3 16/1/3 15/1/3
f 22/3/3 14/3/3 16/3/3
f 22/1/3 16/1/3 21/1/3
f 23/2/3 17/2/3 14/2/3
f 23/1/3 18/1/3 17/1/3
f 24/2/3 19/2/3 18/2/3
f 24/1/3 18/1/3 23/1/3
f 25/1/3 20/1/3 19/1/3
f 25/2/3 19/2/3 24/2/3
f 26/2/3 12/2/3 20/2/3
f 26/1/3 20/1/3 25/1/3
f 27/2/3 13/2/3 11/2/3
f 27/3/3 21/3/3 13/3/3
f 27/3/3 22/3/3 21/3/3
f 28/2/3 26/2/3 25/2/3
f 28/3/3 22/3/3 27/3/3
f 28/2/3 25/2/3 24/2/3
f 28/2/3 23/2/3 14/2/3
f 28/3/3 14/3/3 22/3/3
f 28/2/3 24/2/3 23/2/3
f 29/2/3 27/2/3 11/2/3
f 29/2/3 28/2/3 27/2/3
f 30/2/3 26/2/3 28/2/3
f 30/2/3 28/2/3 29/2/3
f 31/3/3 30/3/3 29/3/3
f 32/3/3 30/3/3 31/3/3
f 33/3/3 31/3/3 29/3/3
f 33/1/3 32/1/3 31/1/3
f 34/3/3 30/3/3 32/3/3
f 34/1/3 32/1/3 33/1/3
f 35/2/3 29/2/3 11/2/3
f 35/3/3 33/3/3 29/3/3
f 35/3/3 34/3/3 33/3/3
f 36/3/3 30/3/3 34/3/3
f 36/3/3 34/3/3 35/3/3
f 36/2/3 26/2/3 30/2/3
f 37/2/3 36/2/3 35/2/3
f 37/2/3 26/2/3 36/2/3
f 38/2/3 26/2/3 37/2/3
f 39/2/3 37/2/3 35/2/3
f 39/1/3 38/1/3 37/1/3
f 40/2/3 26/2/3 38/2/3
f 40/1/3 38/1/3 39/1/3
f 41/2/3 40/2/3 39/2/3
f 42/2/3 26/2/3 40/2/3
f 42/2/3 40/2/3 41/2/3
f 43/2/3 39/2/3 35/2/3
f 43/2/3 41/2/3 39/2/3
f 44/2/3 41/2/3 43/2/3
f 45/1/3 42/1/3 41/1/3
f 45/2/3 41/2/3 44/2/3
f 46/2/3 26/2/3 42/2/3
f 46/1/3 42/1/3 45/1/3
f 47/1/3 44/1/3 43/1/3
f 47/2/3 43/2/3 35/2/3
f 48/2/3 45/2/3 44/2/3
f 48/1/3 44/1/3 47/1/3
f 48/2/3 46/2/3 45/2/3
f 49/2/3 46/2/3 48/2/3
f 50/2/3 12/2/3 26/2/3
f 50/2/3 46/2/3 49/2/3
f 50/2/3 26/2/3 46/2/3
f 51/2/3 49/2/3 48/2/3
f 51/2/3 47/2/3 35/2/3
f 51/2/3 48/2/3 47/2/3
f 52/2/3 49/2/3 51/2/3
f 53/2/3 51/2/3 35/2/3
f 53/1/3 52/1/3 51/1/3
f 54/2/3 49/2/3 52/2/3
f 54/1/3 52/1/3 53/1/3
f 55/3/3 50/3/3 49/3/3
f 55/2/3 49/2/3 54/2/3
f 55/2/3 54/2/3 53/2/3
f 56/2/3 12/2/3 50/2/3
f 56/3/3 50/3/3 55/3/3
f 57/4/3 11/4/3 9/4/3
f 57/2/3 55/2/3 53/2/3
f 57/2/3 56/2/3 55/2/3
f 57/2/3 53/2/3 35/2/3
f 57/2/3 35/2/3 11/2/3
f 58/2/3 12/2/3 56/2/3
f 58/2/3 56/2/3 57/2/3
f 58/4/3 10/4/3 12/4/3
f 59/4/3 57/4/3 9/4/3
f 59/4/3 58/4/3 57/4/3
f 60/4/3 10/4/3 58/4/3
f 60/4/3 58/4/3 59/4/3
f 61/4/4 62/4/4 63/4/4
f 63/4/4 62/4/4 64/4/4
f 63/2/4 64/2/4 65/2/4
f 65/2/4 64/2/4 66/2/4
f 65/3/4 66/3/4 67/3/4
f 67/3/4 66/3/4 68/3/4
f 66/2/4 64/2/4 69/2/4
f 69/2/4 64/2/4 70/2/4
f 70/2/4 64/2/4 71/2/4
f 71/2/4 64/2/4 72/2/4
f 65/3/4 67/3/4 73/3/4
f 67/1/4 68/1/4 73/1/4
f 68/3/4 66/3/4 74/3/4
f 73/1/4 68/1/4 74/1/4
f 66/2/4 69/2/4 75/2/4
f 69/1/4 70/1/4 75/1/4
f 70/2/4 71/2/4 76/2/4
f 75/1/4 70/1/4 76/1/4
f 71/1/4 72/1/4 77/1/4
f 76/2/4 71/2/4 77/2/4
f 72/2/4 64/2/4 78/2/4
f 77/1/4 72/1/4 78/1/4
f 63/2/4 65/2/4 79/2/4
f 65/3/4 73/3/4 79/3/4
f 73/3/4 74/3/4 79/3/4
f 77/2/4 78/2/4 80/2/4
f 79/3/4 74/3/4 80/3/4
f 76/2/4 77/2/4 80/2/4
f 66/2/4 75/2/4 80/2/4
f 74/3/4 66/3/4 80/3/4
f 75/2/4 76/2/4 80/2/4
f 63/2/4 79/2/4 81/2/4
f 79/2/4 80/2/4 81/2/4
f 80/2/4 78/2/4 82/2/4
f 81/2/4 80/2/4 82/2/4
f 81/3/4 82/3/4 83/3/4
f 83/3/4 82/3/4 84/3/4
f 81/3/4 83/3/4 85/3/4
f 83/1/4 84/1/4 85/1/4
f 84/3/4 82/3/4 86/3/4
f 85/1/4 84/1/4 86/1/4
f 63/2/4 81/2/4 87/2/4
f 81/3/4 85/3/4 87/3/4
f 85/3/4 86/3/4 87/3/4
f 86/3/4 82/3/4 88/3/4
f 87/3/4 86/3/4 88/3/4
f 82/2/4 78/2/4 88/2/4
f 87/2/4 88/2/4 89/2/4
f 88/2/4 78/2/4 89/2/4
f 89/2/4 78/2/4 90/2/4
f 87/2/4 89/2/4 91/2/4
f 89/1/4 90/1/4 91/1/4
f 90/2/4 78/2/4 92/2/4
f 91/1/4 90/1/4 92/1/4
f 91/2/4 92/2/4 93/2/4
f 92/2/4 78/2/4 94/2/4
f 93/2/4 92/2/4 94/2/4
f 87/2/4 91/2/4 95/2/4
f 91/2/4 93/2/4 95/2/4
f 95/2/4 93/2/4 96/2/4
f 93/1/4 94/1/4 97/1/4
f 96/2/4 93/2/4 97/2/4
f 94/2/4 78/2/4 98/2/4
f 97/1/4 94/1/4 98/1/4
f 95/1/4 96/1/4 99/1/4
f 87/2/4 95/2/4 99/2/4
f 96/2/4 97/2/4 100/2/4
f 99/1/4 96/1/4 100/1/4
f 97/2/4 98/2/4 100/2/4
f 100/2/4 98/2/4 101/2/4
f 78/2/4 64/2/4 102/2/4
f 101/2/4 98/2/4 102/2/4
f 98/2/4 78/2/4 102/2/4
f 100/2/4 101/2/4 103/2/4
f 87/2/4 99/2/4 103/2/4
f 99/2/4 100/2/4 103/2/4
f 103/2/4 101/2/4 104/2/4
f 87/2/4 103/2/4 105/2/4
f 103/1/4 104/1/4 105/1/4
f 104/2/4 101/2/4 106/2/4
f 105/1/4 104/1/4 106/1/4
f 101/3/4 102/3/4 107/3/4
f 106/2/4 101/2/4 107/2/4
f 105/2/4 106/2/4 107/2/4
f 102/2/4 64/2/4 108/2/4
f 107/3/4 102/3/4 108/3/4
f 61/4/4 63/4/4 109/4/4
f 105/2/4 107/2/4 109/2/4
f 107/2/4 108/2/4 109/2/4
f 87/2/4 105/2/4 109/2/4
f 63/2/4 87/2/4 109/2/4
f 108/2/4 64/2/4 110/2/4
f 109/2/4 108/2/4 110/2/4
f 64/4/4 62/4/4 110/4/4
f 61/4/4 109/4/4 111/4/4
f 109/4/4 110/4/4 111/4/4
f 110/4/4 62/4/4 112/4/4
f 111/4/4 110/4/4 112/4/4
f 115/4/5 114/4/5 113/4/5
f 116/4/5 114/4/5 115/4/5
f 117/4/6 118/4/6 119/4/6
f 119/4/6 118/4/6 120/4/6
