# MagicaVoxel @ Ephtracy

# group
o 

# material
mtllib FilingCabinet.mtl
usemtl palette

# normals
vn -1 0 0
vn 1 0 0
vn 0 0 1
vn 0 0 -1
vn 0 -1 0
vn 0 1 0

# texcoords
vt 0.958984 0.5
vt 0.966797 0.5
vt 0.978516 0.5

# verts
v 0 2 0
v 0 2 -2.2
v 0 5 0
v 0 5 -2.2
v 0.1 2.1 -2.2
v 0.1 2.1 -2.3
v 0.1 3.2 -2.2
v 0.1 3.2 -2.3
v 0.1 3.3 -2.2
v 0.1 3.3 -2.3
v 0.1 4.4 -2.2
v 0.1 4.4 -2.3
v 0.1 4.5 -2.2
v 0.1 4.5 -2.3
v 0.1 4.9 -2.2
v 0.1 4.9 -2.3
v 0.7 2.4 -2.3
v 0.7 2.4 -2.4
v 0.7 2.5 -2.3
v 0.7 2.5 -2.4
v 0.7 3.5 -2.3
v 0.7 3.5 -2.4
v 0.7 3.6 -2.3
v 0.7 3.6 -2.4
v 0.7 4.6 -2.3
v 0.7 4.6 -2.4
v 0.7 4.7 -2.3
v 0.7 4.7 -2.4
v 1.9 2.1 0
v 1.9 2.1 -0.1
v 1.9 4.9 0
v 1.9 4.9 -0.1
v 0.1 2.1 0
v 0.1 2.1 -0.1
v 0.1 4.9 0
v 0.1 4.9 -0.1
v 1.3 2.4 -2.3
v 1.3 2.4 -2.4
v 1.3 2.5 -2.3
v 1.3 2.5 -2.4
v 1.3 3.5 -2.3
v 1.3 3.5 -2.4
v 1.3 3.6 -2.3
v 1.3 3.6 -2.4
v 1.3 4.6 -2.3
v 1.3 4.6 -2.4
v 1.3 4.7 -2.3
v 1.3 4.7 -2.4
v 1.9 2.1 -2.2
v 1.9 2.1 -2.3
v 1.9 3.2 -2.2
v 1.9 3.2 -2.3
v 1.9 3.3 -2.2
v 1.9 3.3 -2.3
v 1.9 4.4 -2.2
v 1.9 4.4 -2.3
v 1.9 4.5 -2.2
v 1.9 4.5 -2.3
v 1.9 4.9 -2.2
v 1.9 4.9 -2.3
v 2 2 0
v 2 2 -2.2
v 2 5 0
v 2 5 -2.2
v 0 2 0
v 0 5 0
v 0.1 2.1 0
v 0.1 4.9 0
v 1.9 2.1 0
v 1.9 4.9 0
v 2 2 0
v 2 5 0
v 0.1 2.1 -0.1
v 0.1 4.9 -0.1
v 1.9 2.1 -0.1
v 1.9 4.9 -0.1
v 0 2 -2.2
v 0 5 -2.2
v 0.1 2.1 -2.2
v 0.1 3.2 -2.2
v 0.1 3.3 -2.2
v 0.1 4.4 -2.2
v 0.1 4.5 -2.2
v 0.1 4.9 -2.2
v 1.9 2.1 -2.2
v 1.9 3.2 -2.2
v 1.9 3.3 -2.2
v 1.9 4.4 -2.2
v 1.9 4.5 -2.2
v 1.9 4.9 -2.2
v 2 2 -2.2
v 2 5 -2.2
v 0.1 2.1 -2.3
v 0.1 3.2 -2.3
v 0.1 3.3 -2.3
v 0.1 4.4 -2.3
v 0.1 4.5 -2.3
v 0.1 4.9 -2.3
v 0.2 4.2 -2.3
v 0.2 4.3 -2.3
v 0.3 4.2 -2.3
v 0.3 4.3 -2.3
v 0.7 2.4 -2.3
v 0.7 2.5 -2.3
v 0.7 3.5 -2.3
v 0.7 3.6 -2.3
v 0.7 4.6 -2.3
v 0.7 4.7 -2.3
v 1.3 2.4 -2.3
v 1.3 2.5 -2.3
v 1.3 3.5 -2.3
v 1.3 3.6 -2.3
v 1.3 4.6 -2.3
v 1.3 4.7 -2.3
v 1.9 2.1 -2.3
v 1.9 3.2 -2.3
v 1.9 3.3 -2.3
v 1.9 4.4 -2.3
v 1.9 4.5 -2.3
v 1.9 4.9 -2.3
v 0.7 2.4 -2.4
v 0.7 2.5 -2.4
v 0.7 3.5 -2.4
v 0.7 3.6 -2.4
v 0.7 4.6 -2.4
v 0.7 4.7 -2.4
v 1.3 2.4 -2.4
v 1.3 2.5 -2.4
v 1.3 3.5 -2.4
v 1.3 3.6 -2.4
v 1.3 4.6 -2.4
v 1.3 4.7 -2.4
v 0 2 0
v 2 2 0
v 0 2 -2.2
v 2 2 -2.2
v 0.1 2.1 -2.2
v 1.9 2.1 -2.2
v 0.1 2.1 -2.3
v 1.9 2.1 -2.3
v 0.7 2.4 -2.3
v 1.3 2.4 -2.3
v 0.7 2.4 -2.4
v 1.3 2.4 -2.4
v 0.1 3.3 -2.2
v 1.9 3.3 -2.2
v 0.1 3.3 -2.3
v 1.9 3.3 -2.3
v 0.7 3.5 -2.3
v 1.3 3.5 -2.3
v 0.7 3.5 -2.4
v 1.3 3.5 -2.4
v 0.1 4.5 -2.2
v 1.9 4.5 -2.2
v 0.1 4.5 -2.3
v 1.9 4.5 -2.3
v 0.7 4.6 -2.3
v 1.3 4.6 -2.3
v 0.7 4.6 -2.4
v 1.3 4.6 -2.4
v 0.1 4.9 0
v 1.9 4.9 0
v 0.1 4.9 -0.1
v 1.9 4.9 -0.1
v 0.1 2.1 0
v 1.9 2.1 0
v 0.1 2.1 -0.1
v 1.9 2.1 -0.1
v 0.7 2.5 -2.3
v 1.3 2.5 -2.3
v 0.7 2.5 -2.4
v 1.3 2.5 -2.4
v 0.1 3.2 -2.2
v 1.9 3.2 -2.2
v 0.1 3.2 -2.3
v 1.9 3.2 -2.3
v 0.7 3.6 -2.3
v 1.3 3.6 -2.3
v 0.7 3.6 -2.4
v 1.3 3.6 -2.4
v 0.1 4.4 -2.2
v 1.9 4.4 -2.2
v 0.1 4.4 -2.3
v 1.9 4.4 -2.3
v 0.7 4.7 -2.3
v 1.3 4.7 -2.3
v 0.7 4.7 -2.4
v 1.3 4.7 -2.4
v 0.1 4.9 -2.2
v 1.9 4.9 -2.2
v 0.1 4.9 -2.3
v 1.9 4.9 -2.3
v 0 5 0
v 2 5 0
v 0 5 -2.2
v 2 5 -2.2

# faces
f 3/3/1 2/3/1 1/3/1
f 4/3/1 2/3/1 3/3/1
f 7/3/1 6/3/1 5/3/1
f 8/3/1 6/3/1 7/3/1
f 11/3/1 10/3/1 9/3/1
f 12/3/1 10/3/1 11/3/1
f 15/3/1 14/3/1 13/3/1
f 16/3/1 14/3/1 15/3/1
f 19/2/1 18/2/1 17/2/1
f 20/2/1 18/2/1 19/2/1
f 23/2/1 22/2/1 21/2/1
f 24/2/1 22/2/1 23/2/1
f 27/2/1 26/2/1 25/2/1
f 28/2/1 26/2/1 27/2/1
f 31/3/1 30/3/1 29/3/1
f 32/3/1 30/3/1 31/3/1
f 33/3/2 34/3/2 35/3/2
f 35/3/2 34/3/2 36/3/2
f 37/2/2 38/2/2 39/2/2
f 39/2/2 38/2/2 40/2/2
f 41/2/2 42/2/2 43/2/2
f 43/2/2 42/2/2 44/2/2
f 45/2/2 46/2/2 47/2/2
f 47/2/2 46/2/2 48/2/2
f 49/3/2 50/3/2 51/3/2
f 51/3/2 50/3/2 52/3/2
f 53/3/2 54/3/2 55/3/2
f 55/3/2 54/3/2 56/3/2
f 57/3/2 58/3/2 59/3/2
f 59/3/2 58/3/2 60/3/2
f 61/3/2 62/3/2 63/3/2
f 63/3/2 62/3/2 64/3/2
f 67/3/3 66/3/3 65/3/3
f 68/3/3 66/3/3 67/3/3
f 69/3/3 67/3/3 65/3/3
f 70/3/3 66/3/3 68/3/3
f 71/3/3 69/3/3 65/3/3
f 71/3/3 70/3/3 69/3/3
f 72/3/3 66/3/3 70/3/3
f 72/3/3 70/3/3 71/3/3
f 75/3/3 74/3/3 73/3/3
f 76/3/3 74/3/3 75/3/3
f 77/3/4 78/3/4 79/3/4
f 79/3/4 78/3/4 80/3/4
f 80/3/4 78/3/4 81/3/4
f 81/3/4 78/3/4 82/3/4
f 82/3/4 78/3/4 83/3/4
f 83/3/4 78/3/4 84/3/4
f 77/3/4 79/3/4 85/3/4
f 80/3/4 81/3/4 86/3/4
f 86/3/4 81/3/4 87/3/4
f 82/3/4 83/3/4 88/3/4
f 88/3/4 83/3/4 89/3/4
f 84/3/4 78/3/4 90/3/4
f 88/3/4 89/3/4 91/3/4
f 89/3/4 90/3/4 91/3/4
f 86/3/4 87/3/4 91/3/4
f 77/3/4 85/3/4 91/3/4
f 87/3/4 88/3/4 91/3/4
f 85/3/4 86/3/4 91/3/4
f 90/3/4 78/3/4 92/3/4
f 91/3/4 90/3/4 92/3/4
f 95/3/4 96/3/4 99/3/4
f 99/3/4 96/3/4 100/3/4
f 95/3/4 99/3/4 101/3/4
f 99/1/4 100/1/4 101/1/4
f 100/3/4 96/3/4 102/3/4
f 101/1/4 100/1/4 102/1/4
f 93/3/4 94/3/4 103/3/4
f 103/3/4 94/3/4 104/3/4
f 95/3/4 101/3/4 105/3/4
f 101/3/4 102/3/4 105/3/4
f 105/3/4 102/3/4 106/3/4
f 97/3/4 98/3/4 107/3/4
f 107/3/4 98/3/4 108/3/4
f 93/3/4 103/3/4 109/3/4
f 104/3/4 94/3/4 110/3/4
f 95/3/4 105/3/4 111/3/4
f 106/3/4 102/3/4 112/3/4
f 97/3/4 107/3/4 113/3/4
f 108/3/4 98/3/4 114/3/4
f 93/3/4 109/3/4 115/3/4
f 109/3/4 110/3/4 115/3/4
f 110/3/4 94/3/4 116/3/4
f 115/3/4 110/3/4 116/3/4
f 95/3/4 111/3/4 117/3/4
f 111/3/4 112/3/4 117/3/4
f 102/3/4 96/3/4 118/3/4
f 117/3/4 112/3/4 118/3/4
f 112/3/4 102/3/4 118/3/4
f 113/3/4 114/3/4 119/3/4
f 97/3/4 113/3/4 119/3/4
f 114/3/4 98/3/4 120/3/4
f 119/3/4 114/3/4 120/3/4
f 121/2/4 122/2/4 127/2/4
f 127/2/4 122/2/4 128/2/4
f 123/2/4 124/2/4 129/2/4
f 129/2/4 124/2/4 130/2/4
f 125/2/4 126/2/4 131/2/4
f 131/2/4 126/2/4 132/2/4
f 135/3/5 134/3/5 133/3/5
f 136/3/5 134/3/5 135/3/5
f 139/3/5 138/3/5 137/3/5
f 140/3/5 138/3/5 139/3/5
f 143/2/5 142/2/5 141/2/5
f 144/2/5 142/2/5 143/2/5
f 147/3/5 146/3/5 145/3/5
f 148/3/5 146/3/5 147/3/5
f 151/2/5 150/2/5 149/2/5
f 152/2/5 150/2/5 151/2/5
f 155/3/5 154/3/5 153/3/5
f 156/3/5 154/3/5 155/3/5
f 159/2/5 158/2/5 157/2/5
f 160/2/5 158/2/5 159/2/5
f 163/3/5 162/3/5 161/3/5
f 164/3/5 162/3/5 163/3/5
f 165/3/6 166/3/6 167/3/6
f 167/3/6 166/3/6 168/3/6
f 169/2/6 170/2/6 171/2/6
f 171/2/6 170/2/6 172/2/6
f 173/3/6 174/3/6 175/3/6
f 175/3/6 174/3/6 176/3/6
f 177/2/6 178/2/6 179/2/6
f 179/2/6 178/2/6 180/2/6
f 181/3/6 182/3/6 183/3/6
f 183/3/6 182/3/6 184/3/6
f 185/2/6 186/2/6 187/2/6
f 187/2/6 186/2/6 188/2/6
f 189/3/6 190/3/6 191/3/6
f 191/3/6 190/3/6 192/3/6
f 193/3/6 194/3/6 195/3/6
f 195/3/6 194/3/6 196/3/6
