# MagicaVoxel @ Ephtracy

# group
o 

# material
mtllib JailBead.mtl
usemtl palette

# normals
vn -1 0 0
vn 1 0 0
vn 0 0 1
vn 0 0 -1
vn 0 -1 0
vn 0 1 0

# texcoords
vt 0.306641 0.5
vt 0.962891 0.5
vt 0.970703 0.5
vt 0.974609 0.5
vt 0.978516 0.5
vt 0.982422 0.5
vt 0.986328 0.5
vt 0.990234 0.5

# verts
v -2 0 0.8
v -2 0 0.6
v -2 0 -0.3
v -2 0 -0.5
v -2 0.6 0.6
v -2 0.6 -0.3
v -2 0.7 0.8
v -2 0.7 -0.5
v -2 0.8 0.8
v -2 0.8 -0.5
v -1.9 0.8 0.7
v -1.9 0.8 -0.4
v -1.9 0.9 0.7
v -1.9 0.9 -0.4
v -1.8 0.9 0.6
v -1.8 0.9 -0.3
v -1.8 1 0.6
v -1.8 1 -0.3
v -1.7 0.9 0.7
v -1.7 0.9 0.6
v -1.7 0.9 -0.3
v -1.7 0.9 -0.4
v -1.7 1 0.7
v -1.7 1 0.6
v -1.7 1 -0.3
v -1.7 1 -0.4
v 0.9 0.8 0.8
v 0.9 0.8 0.7
v 0.9 0.8 -0.4
v 0.9 0.8 -0.5
v 0.9 0.9 0.7
v 0.9 0.9 0.6
v 0.9 0.9 0.5
v 0.9 0.9 0.4
v 0.9 0.9 0.3
v 0.9 0.9 0.2
v 0.9 0.9 0.1
v 0.9 0.9 -5.96046e-08
v 0.9 0.9 -0.1
v 0.9 0.9 -0.2
v 0.9 0.9 -0.3
v 0.9 0.9 -0.4
v 0.9 1 0.8
v 0.9 1 -0.5
v 1.3 0.8 0.6
v 1.3 0.8 -0.3
v 1.3 0.9 0.6
v 1.3 0.9 -0.3
v 1.4 0.8 0.7
v 1.4 0.8 0.6
v 1.4 0.8 -0.3
v 1.4 0.8 -0.4
v 1.4 0.9 0.7
v 1.4 0.9 0.6
v 1.4 0.9 -0.3
v 1.4 0.9 -0.4
v 1.4 1 0.6
v 1.4 1 -0.3
v 1.8 0 0.8
v 1.8 0 0.6
v 1.8 0 -0.3
v 1.8 0 -0.5
v 1.8 0.6 0.8
v 1.8 0.6 0.7
v 1.8 0.6 -0.4
v 1.8 0.6 -0.5
v 1.8 0.7 0.7
v 1.8 0.7 0.6
v 1.8 0.7 -0.3
v 1.8 0.7 -0.4
v 1.9 0.6 0.6
v 1.9 0.6 -0.3
v 1.9 0.7 0.6
v 1.9 0.7 -0.3
v -1.9 0.6 0.6
v -1.9 0.6 -0.3
v -1.9 0.7 0.6
v -1.9 0.7 -0.3
v -1.8 0 0.8
v -1.8 0 0.6
v -1.8 0 -0.3
v -1.8 0 -0.5
v -1.8 0.6 0.8
v -1.8 0.6 0.7
v -1.8 0.6 -0.4
v -1.8 0.6 -0.5
v -1.8 0.7 0.7
v -1.8 0.7 0.6
v -1.8 0.7 -0.3
v -1.8 0.7 -0.4
v 0.7 0.9 0.7
v 0.7 0.9 0.6
v 0.7 0.9 -0.3
v 0.7 0.9 -0.4
v 0.7 1 0.7
v 0.7 1 0.6
v 0.7 1 -0.3
v 0.7 1 -0.4
v 0.8 0.9 0.6
v 0.8 0.9 0.5
v 0.8 0.9 0.4
v 0.8 0.9 0.3
v 0.8 0.9 0.2
v 0.8 0.9 0.1
v 0.8 0.9 -5.96046e-08
v 0.8 0.9 -0.1
v 0.8 0.9 -0.2
v 0.8 0.9 -0.3
v 0.8 1 0.6
v 0.8 1 0.5
v 0.8 1 0.4
v 0.8 1 0.3
v 0.8 1 0.2
v 0.8 1 0.1
v 0.8 1 -5.96046e-08
v 0.8 1 -0.1
v 0.8 1 -0.2
v 0.8 1 -0.3
v 1.2 0.8 0.8
v 1.2 0.8 0.7
v 1.2 0.8 -0.4
v 1.2 0.8 -0.5
v 1.2 1 0.8
v 1.2 1 -0.5
v 1.7 0.8 0.7
v 1.7 0.8 0.6
v 1.7 0.8 -0.3
v 1.7 0.8 -0.4
v 1.7 0.9 0.7
v 1.7 0.9 0.6
v 1.7 0.9 -0.3
v 1.7 0.9 -0.4
v 1.7 1 0.6
v 1.7 1 -0.3
v 1.8 0.8 0.6
v 1.8 0.8 -0.3
v 1.8 0.9 0.6
v 1.8 0.9 -0.3
v 2 0 0.8
v 2 0 0.6
v 2 0 -0.3
v 2 0 -0.5
v 2 0.6 0.6
v 2 0.6 -0.3
v 2 0.7 0.8
v 2 0.7 -0.5
v 2 0.8 0.8
v 2 0.8 -0.5
v -2 0 0.8
v -2 0.7 0.8
v -2 0.8 0.8
v -1.8 0 0.8
v -1.8 0.6 0.8
v 0.9 0.8 0.8
v 0.9 1 0.8
v 1.2 0.8 0.8
v 1.2 1 0.8
v 1.8 0 0.8
v 1.8 0.6 0.8
v 2 0 0.8
v 2 0.7 0.8
v 2 0.8 0.8
v -1.9 0.8 0.7
v -1.9 0.9 0.7
v -1.7 0.8 0.7
v -1.7 0.9 0.7
v -1.7 1 0.7
v -0.5 0.9 0.7
v -0.5 1 0.7
v -0.4 0.9 0.7
v -0.4 1 0.7
v -0.3 0.9 0.7
v -0.3 1 0.7
v -0.2 0.9 0.7
v -0.2 1 0.7
v -0.0999999 0.9 0.7
v -0.0999999 1 0.7
v 2.38419e-07 0.9 0.7
v 2.38419e-07 1 0.7
v 0.1 0.9 0.7
v 0.1 1 0.7
v 0.2 0.9 0.7
v 0.2 1 0.7
v 0.3 0.9 0.7
v 0.3 1 0.7
v 0.4 0.9 0.7
v 0.4 1 0.7
v 0.5 0.9 0.7
v 0.5 1 0.7
v 0.6 0.9 0.7
v 0.6 1 0.7
v 0.7 0.8 0.7
v 0.7 0.9 0.7
v 0.7 1 0.7
v 0.8 0.8 0.7
v 0.8 0.9 0.7
v 0.9 0.8 0.7
v 0.9 0.9 0.7
v 1.4 0.8 0.7
v 1.4 0.9 0.7
v 1.7 0.8 0.7
v 1.7 0.9 0.7
v -1.8 0.9 0.6
v -1.8 1 0.6
v -1.7 0.9 0.6
v -1.7 1 0.6
v 0.7 0.9 0.6
v 0.7 1 0.6
v 0.8 0.9 0.6
v 0.8 1 0.6
v 1.3 0.8 0.6
v 1.3 0.9 0.6
v 1.4 0.8 0.6
v 1.4 0.9 0.6
v 1.4 1 0.6
v 1.7 0.8 0.6
v 1.7 0.9 0.6
v 1.7 1 0.6
v 1.8 0.8 0.6
v 1.8 0.9 0.6
v -2 0 -0.3
v -2 0.6 -0.3
v -1.9 0.6 -0.3
v -1.9 0.7 -0.3
v -1.8 0 -0.3
v -1.8 0.7 -0.3
v 1.8 0 -0.3
v 1.8 0.7 -0.3
v 1.9 0.6 -0.3
v 1.9 0.7 -0.3
v 2 0 -0.3
v 2 0.6 -0.3
v -1.8 0.6 -0.4
v -1.8 0.7 -0.4
v 1.7 0.7 -0.4
v 1.8 0.6 -0.4
v 1.8 0.7 -0.4
v -1.8 0.6 0.7
v -1.8 0.7 0.7
v 1.7 0.7 0.7
v 1.8 0.6 0.7
v 1.8 0.7 0.7
v -2 0 0.6
v -2 0.6 0.6
v -1.9 0.6 0.6
v -1.9 0.7 0.6
v -1.8 0 0.6
v -1.8 0.7 0.6
v 1.8 0 0.6
v 1.8 0.7 0.6
v 1.9 0.6 0.6
v 1.9 0.7 0.6
v 2 0 0.6
v 2 0.6 0.6
v -1.8 0.9 -0.3
v -1.8 1 -0.3
v -1.7 0.9 -0.3
v -1.7 1 -0.3
v 0.7 0.9 -0.3
v 0.7 1 -0.3
v 0.8 0.9 -0.3
v 0.8 1 -0.3
v 1.3 0.8 -0.3
v 1.3 0.9 -0.3
v 1.4 0.8 -0.3
v 1.4 0.9 -0.3
v 1.4 1 -0.3
v 1.7 0.8 -0.3
v 1.7 0.9 -0.3
v 1.7 1 -0.3
v 1.8 0.8 -0.3
v 1.8 0.9 -0.3
v -1.9 0.8 -0.4
v -1.9 0.9 -0.4
v -1.7 0.8 -0.4
v -1.7 0.9 -0.4
v -1.7 1 -0.4
v 0.5 0.9 -0.4
v 0.5 1 -0.4
v 0.6 0.9 -0.4
v 0.6 1 -0.4
v 0.7 0.8 -0.4
v 0.7 0.9 -0.4
v 0.7 1 -0.4
v 0.8 0.8 -0.4
v 0.8 0.9 -0.4
v 0.9 0.8 -0.4
v 0.9 0.9 -0.4
v 1.4 0.8 -0.4
v 1.4 0.9 -0.4
v 1.7 0.8 -0.4
v 1.7 0.9 -0.4
v -2 0 -0.5
v -2 0.7 -0.5
v -2 0.8 -0.5
v -1.8 0 -0.5
v -1.8 0.6 -0.5
v 0.9 0.8 -0.5
v 0.9 1 -0.5
v 1.2 0.8 -0.5
v 1.2 1 -0.5
v 1.8 0 -0.5
v 1.8 0.6 -0.5
v 2 0 -0.5
v 2 0.7 -0.5
v 2 0.8 -0.5
v -2 0 0.8
v -1.8 0 0.8
v 1.8 0 0.8
v 2 0 0.8
v -2 0 0.6
v -1.8 0 0.6
v 1.8 0 0.6
v 2 0 0.6
v -2 0 -0.3
v -1.8 0 -0.3
v 1.8 0 -0.3
v 2 0 -0.3
v -2 0 -0.5
v -1.8 0 -0.5
v 1.8 0 -0.5
v 2 0 -0.5
v -1.8 0.6 0.8
v 1.8 0.6 0.8
v -1.8 0.6 0.7
v 1.8 0.6 0.7
v -2 0.6 0.6
v -1.9 0.6 0.6
v 1.9 0.6 0.6
v 2 0.6 0.6
v -2 0.6 -0.3
v -1.9 0.6 -0.3
v 1.9 0.6 -0.3
v 2 0.6 -0.3
v -1.8 0.6 -0.4
v 1.8 0.6 -0.4
v -1.8 0.6 -0.5
v 1.8 0.6 -0.5
v -1.8 0.7 0.7
v 1.7 0.7 0.7
v 1.8 0.7 0.7
v -1.9 0.7 0.6
v -1.8 0.7 0.6
v 1.7 0.7 0.6
v 1.8 0.7 0.6
v 1.9 0.7 0.6
v -1.9 0.7 -0.3
v -1.8 0.7 -0.3
v 1.7 0.7 -0.3
v 1.8 0.7 -0.3
v 1.9 0.7 -0.3
v -1.8 0.7 -0.4
v 1.7 0.7 -0.4
v 1.8 0.7 -0.4
v -2 0.8 0.8
v 0.9 0.8 0.8
v 1.2 0.8 0.8
v 2 0.8 0.8
v -1.9 0.8 0.7
v -1.7 0.8 0.7
v 0.7 0.8 0.7
v 0.8 0.8 0.7
v 0.9 0.8 0.7
v 1.2 0.8 0.7
v 1.4 0.8 0.7
v 1.7 0.8 0.7
v 1.3 0.8 0.6
v 1.4 0.8 0.6
v 1.7 0.8 0.6
v 1.8 0.8 0.6
v 1.3 0.8 -0.3
v 1.4 0.8 -0.3
v 1.7 0.8 -0.3
v 1.8 0.8 -0.3
v -1.9 0.8 -0.4
v -1.7 0.8 -0.4
v 0.7 0.8 -0.4
v 0.8 0.8 -0.4
v 0.9 0.8 -0.4
v 1.2 0.8 -0.4
v 1.4 0.8 -0.4
v 1.7 0.8 -0.4
v -2 0.8 -0.5
v 0.9 0.8 -0.5
v 1.2 0.8 -0.5
v 2 0.8 -0.5
v -1.9 0.9 0.7
v -1.7 0.9 0.7
v 0.7 0.9 0.7
v 0.8 0.9 0.7
v 0.9 0.9 0.7
v 1.4 0.9 0.7
v 1.7 0.9 0.7
v -1.8 0.9 0.6
v -1.7 0.9 0.6
v 0.7 0.9 0.6
v 0.8 0.9 0.6
v 0.9 0.9 0.6
v 1.3 0.9 0.6
v 1.4 0.9 0.6
v 1.7 0.9 0.6
v 1.8 0.9 0.6
v 0.8 0.9 0.5
v 0.9 0.9 0.5
v 0.8 0.9 0.4
v 0.9 0.9 0.4
v 0.8 0.9 0.3
v 0.9 0.9 0.3
v 0.8 0.9 0.2
v 0.9 0.9 0.2
v 0.8 0.9 0.1
v 0.9 0.9 0.1
v 0.8 0.9 -5.96046e-08
v 0.9 0.9 -5.96046e-08
v 0.8 0.9 -0.1
v 0.9 0.9 -0.1
v 0.8 0.9 -0.2
v 0.9 0.9 -0.2
v -1.8 0.9 -0.3
v -1.7 0.9 -0.3
v 0.7 0.9 -0.3
v 0.8 0.9 -0.3
v 0.9 0.9 -0.3
v 1.3 0.9 -0.3
v 1.4 0.9 -0.3
v 1.7 0.9 -0.3
v 1.8 0.9 -0.3
v -1.9 0.9 -0.4
v -1.7 0.9 -0.4
v 0.7 0.9 -0.4
v 0.8 0.9 -0.4
v 0.9 0.9 -0.4
v 1.4 0.9 -0.4
v 1.7 0.9 -0.4
v 0.9 1 0.8
v 1.2 1 0.8
v -1.7 1 0.7
v -0.5 1 0.7
v -0.4 1 0.7
v -0.3 1 0.7
v -0.2 1 0.7
v -0.0999999 1 0.7
v 2.38419e-07 1 0.7
v 0.1 1 0.7
v 0.2 1 0.7
v 0.3 1 0.7
v 0.4 1 0.7
v 0.5 1 0.7
v 0.6 1 0.7
v 0.7 1 0.7
v -1.8 1 0.6
v -1.7 1 0.6
v -0.5 1 0.6
v -0.4 1 0.6
v -0.3 1 0.6
v -0.2 1 0.6
v -0.0999999 1 0.6
v 2.38419e-07 1 0.6
v 0.1 1 0.6
v 0.2 1 0.6
v 0.3 1 0.6
v 0.4 1 0.6
v 0.5 1 0.6
v 0.6 1 0.6
v 0.7 1 0.6
v 0.8 1 0.6
v 1.4 1 0.6
v 1.7 1 0.6
v -0.4 1 0.5
v -0.3 1 0.5
v -0.2 1 0.5
v -0.0999999 1 0.5
v 2.38419e-07 1 0.5
v 0.1 1 0.5
v 0.2 1 0.5
v 0.3 1 0.5
v 0.4 1 0.5
v 0.5 1 0.5
v 0.6 1 0.5
v 0.7 1 0.5
v 0.8 1 0.5
v -0.3 1 0.4
v -0.2 1 0.4
v -0.0999999 1 0.4
v 2.38419e-07 1 0.4
v 0.1 1 0.4
v 0.2 1 0.4
v 0.3 1 0.4
v 0.4 1 0.4
v 0.5 1 0.4
v 0.6 1 0.4
v 0.7 1 0.4
v 0.8 1 0.4
v -0.2 1 0.3
v -0.0999999 1 0.3
v 2.38419e-07 1 0.3
v 0.1 1 0.3
v 0.2 1 0.3
v 0.3 1 0.3
v 0.4 1 0.3
v 0.5 1 0.3
v 0.6 1 0.3
v 0.7 1 0.3
v 0.8 1 0.3
v -0.0999999 1 0.2
v 2.38419e-07 1 0.2
v 0.1 1 0.2
v 0.2 1 0.2
v 0.3 1 0.2
v 0.4 1 0.2
v 0.5 1 0.2
v 0.6 1 0.2
v 0.7 1 0.2
v 0.8 1 0.2
v 2.38419e-07 1 0.1
v 0.1 1 0.1
v 0.2 1 0.1
v 0.3 1 0.1
v 0.4 1 0.1
v 0.5 1 0.1
v 0.6 1 0.1
v 0.7 1 0.1
v 0.8 1 0.1
v 0.1 1 -5.96046e-08
v 0.2 1 -5.96046e-08
v 0.3 1 -5.96046e-08
v 0.4 1 -5.96046e-08
v 0.5 1 -5.96046e-08
v 0.6 1 -5.96046e-08
v 0.7 1 -5.96046e-08
v 0.8 1 -5.96046e-08
v 0.2 1 -0.1
v 0.3 1 -0.1
v 0.4 1 -0.1
v 0.5 1 -0.1
v 0.6 1 -0.1
v 0.7 1 -0.1
v 0.8 1 -0.1
v 0.3 1 -0.2
v 0.4 1 -0.2
v 0.5 1 -0.2
v 0.6 1 -0.2
v 0.7 1 -0.2
v 0.8 1 -0.2
v -1.8 1 -0.3
v -1.7 1 -0.3
v 0.4 1 -0.3
v 0.5 1 -0.3
v 0.6 1 -0.3
v 0.7 1 -0.3
v 0.8 1 -0.3
v 1.4 1 -0.3
v 1.7 1 -0.3
v -1.7 1 -0.4
v 0.5 1 -0.4
v 0.6 1 -0.4
v 0.7 1 -0.4
v 0.9 1 -0.5
v 1.2 1 -0.5

# faces
f 5/6/1 2/6/1 1/6/1
f 6/6/1 4/6/1 3/6/1
f 7/6/1 5/6/1 1/6/1
f 7/6/1 6/6/1 5/6/1
f 8/6/1 4/6/1 6/6/1
f 8/6/1 6/6/1 7/6/1
f 9/2/1 8/2/1 7/2/1
f 10/2/1 8/2/1 9/2/1
f 13/5/1 12/5/1 11/5/1
f 14/5/1 12/5/1 13/5/1
f 17/4/1 16/4/1 15/4/1
f 18/4/1 16/4/1 17/4/1
f 23/4/1 20/4/1 19/4/1
f 24/4/1 20/4/1 23/4/1
f 25/4/1 22/4/1 21/4/1
f 26/4/1 22/4/1 25/4/1
f 31/3/1 28/3/1 27/3/1
f 42/3/1 30/3/1 29/3/1
f 43/3/1 41/3/1 40/3/1
f 43/3/1 42/3/1 41/3/1
f 43/3/1 31/3/1 27/3/1
f 43/3/1 32/3/1 31/3/1
f 43/3/1 40/3/1 39/3/1
f 43/3/1 39/3/1 38/3/1
f 43/3/1 38/3/1 37/3/1
f 43/3/1 37/3/1 36/3/1
f 43/3/1 36/3/1 35/3/1
f 43/3/1 35/3/1 34/3/1
f 43/3/1 34/3/1 33/3/1
f 43/3/1 33/3/1 32/3/1
f 44/3/1 30/3/1 42/3/1
f 44/3/1 42/3/1 43/3/1
f 47/3/1 46/3/1 45/3/1
f 48/3/1 46/3/1 47/3/1
f 53/3/1 50/3/1 49/3/1
f 54/3/1 50/3/1 53/3/1
f 55/3/1 52/3/1 51/3/1
f 56/3/1 52/3/1 55/3/1
f 57/3/1 55/3/1 54/3/1
f 58/3/1 55/3/1 57/3/1
f 63/6/1 60/6/1 59/6/1
f 64/6/1 60/6/1 63/6/1
f 65/6/1 62/6/1 61/6/1
f 66/6/1 62/6/1 65/6/1
f 67/6/1 60/6/1 64/6/1
f 68/6/1 60/6/1 67/6/1
f 69/6/1 65/6/1 61/6/1
f 70/6/1 65/6/1 69/6/1
f 73/6/1 72/6/1 71/6/1
f 74/6/1 72/6/1 73/6/1
f 75/6/2 76/6/2 77/6/2
f 77/6/2 76/6/2 78/6/2
f 79/6/2 80/6/2 83/6/2
f 83/6/2 80/6/2 84/6/2
f 81/6/2 82/6/2 85/6/2
f 85/6/2 82/6/2 86/6/2
f 84/6/2 80/6/2 87/6/2
f 87/6/2 80/6/2 88/6/2
f 81/6/2 85/6/2 89/6/2
f 89/6/2 85/6/2 90/6/2
f 91/4/2 92/4/2 95/4/2
f 95/4/2 92/4/2 96/4/2
f 93/4/2 94/4/2 97/4/2
f 97/4/2 94/4/2 98/4/2
f 99/4/2 100/4/2 109/4/2
f 100/7/2 101/7/2 110/7/2
f 109/4/2 100/4/2 110/4/2
f 101/4/2 102/4/2 111/4/2
f 110/7/2 101/7/2 111/7/2
f 102/7/2 103/7/2 112/7/2
f 111/4/2 102/4/2 112/4/2
f 103/4/2 104/4/2 113/4/2
f 112/7/2 103/7/2 113/7/2
f 104/7/2 105/7/2 114/7/2
f 113/4/2 104/4/2 114/4/2
f 105/4/2 106/4/2 115/4/2
f 114/7/2 105/7/2 115/7/2
f 106/7/2 107/7/2 116/7/2
f 115/4/2 106/4/2 116/4/2
f 107/4/2 108/4/2 117/4/2
f 116/7/2 107/7/2 117/7/2
f 117/4/2 108/4/2 118/4/2
f 119/3/2 120/3/2 123/3/2
f 121/3/2 122/3/2 123/3/2
f 120/3/2 121/3/2 123/3/2
f 123/3/2 122/3/2 124/3/2
f 125/3/2 126/3/2 129/3/2
f 129/3/2 126/3/2 130/3/2
f 127/3/2 128/3/2 131/3/2
f 131/3/2 128/3/2 132/3/2
f 130/3/2 131/3/2 133/3/2
f 133/3/2 131/3/2 134/3/2
f 135/3/2 136/3/2 137/3/2
f 137/3/2 136/3/2 138/3/2
f 139/6/2 140/6/2 143/6/2
f 141/6/2 142/6/2 144/6/2
f 139/6/2 143/6/2 145/6/2
f 143/6/2 144/6/2 145/6/2
f 144/6/2 142/6/2 146/6/2
f 145/6/2 144/6/2 146/6/2
f 145/2/2 146/2/2 147/2/2
f 147/2/2 146/2/2 148/2/2
f 152/6/3 150/6/3 149/6/3
f 153/6/3 150/6/3 152/6/3
f 154/2/3 151/2/3 150/2/3
f 156/2/3 154/2/3 150/2/3
f 156/3/3 155/3/3 154/3/3
f 157/3/3 155/3/3 156/3/3
f 159/6/3 150/6/3 153/6/3
f 160/6/3 159/6/3 158/6/3
f 161/2/3 156/2/3 150/2/3
f 161/6/3 159/6/3 160/6/3
f 161/6/3 150/6/3 159/6/3
f 162/2/3 156/2/3 161/2/3
f 165/5/3 164/5/3 163/5/3
f 166/5/3 164/5/3 165/5/3
f 168/4/3 166/4/3 165/4/3
f 168/4/3 167/4/3 166/4/3
f 169/4/3 167/4/3 168/4/3
f 170/4/3 168/4/3 165/4/3
f 170/7/3 169/7/3 168/7/3
f 171/7/3 169/7/3 170/7/3
f 172/4/3 170/4/3 165/4/3
f 172/4/3 171/4/3 170/4/3
f 173/4/3 171/4/3 172/4/3
f 174/4/3 172/4/3 165/4/3
f 174/7/3 173/7/3 172/7/3
f 175/7/3 173/7/3 174/7/3
f 176/4/3 174/4/3 165/4/3
f 176/4/3 175/4/3 174/4/3
f 177/4/3 175/4/3 176/4/3
f 178/4/3 176/4/3 165/4/3
f 178/7/3 177/7/3 176/7/3
f 179/7/3 177/7/3 178/7/3
f 180/4/3 178/4/3 165/4/3
f 180/4/3 179/4/3 178/4/3
f 181/4/3 179/4/3 180/4/3
f 182/4/3 180/4/3 165/4/3
f 182/7/3 181/7/3 180/7/3
f 183/7/3 181/7/3 182/7/3
f 184/4/3 182/4/3 165/4/3
f 184/4/3 183/4/3 182/4/3
f 185/4/3 183/4/3 184/4/3
f 186/4/3 184/4/3 165/4/3
f 186/7/3 185/7/3 184/7/3
f 187/7/3 185/7/3 186/7/3
f 188/4/3 186/4/3 165/4/3
f 188/4/3 187/4/3 186/4/3
f 189/4/3 187/4/3 188/4/3
f 190/4/3 188/4/3 165/4/3
f 190/7/3 189/7/3 188/7/3
f 191/7/3 189/7/3 190/7/3
f 192/4/3 190/4/3 165/4/3
f 192/4/3 191/4/3 190/4/3
f 193/4/3 191/4/3 192/4/3
f 194/4/3 191/4/3 193/4/3
f 195/8/3 193/8/3 192/8/3
f 196/8/3 193/8/3 195/8/3
f 197/5/3 196/5/3 195/5/3
f 198/5/3 196/5/3 197/5/3
f 201/3/3 200/3/3 199/3/3
f 202/3/3 200/3/3 201/3/3
f 205/4/3 204/4/3 203/4/3
f 206/4/3 204/4/3 205/4/3
f 209/4/3 208/4/3 207/4/3
f 210/4/3 208/4/3 209/4/3
f 213/3/3 212/3/3 211/3/3
f 214/3/3 212/3/3 213/3/3
f 217/3/3 215/3/3 214/3/3
f 218/3/3 215/3/3 217/3/3
f 219/3/3 217/3/3 216/3/3
f 220/3/3 217/3/3 219/3/3
f 223/6/3 222/6/3 221/6/3
f 225/6/3 223/6/3 221/6/3
f 225/6/3 224/6/3 223/6/3
f 226/6/3 224/6/3 225/6/3
f 229/6/3 228/6/3 227/6/3
f 230/6/3 228/6/3 229/6/3
f 231/6/3 229/6/3 227/6/3
f 232/6/3 229/6/3 231/6/3
f 235/6/3 234/6/3 233/6/3
f 236/6/3 235/6/3 233/6/3
f 237/6/3 235/6/3 236/6/3
f 238/6/4 239/6/4 240/6/4
f 238/6/4 240/6/4 241/6/4
f 241/6/4 240/6/4 242/6/4
f 243/6/4 244/6/4 245/6/4
f 243/6/4 245/6/4 247/6/4
f 245/6/4 246/6/4 247/6/4
f 247/6/4 246/6/4 248/6/4
f 249/6/4 250/6/4 251/6/4
f 251/6/4 250/6/4 252/6/4
f 249/6/4 251/6/4 253/6/4
f 253/6/4 251/6/4 254/6/4
f 255/4/4 256/4/4 257/4/4
f 257/4/4 256/4/4 258/4/4
f 259/4/4 260/4/4 261/4/4
f 261/4/4 260/4/4 262/4/4
f 263/3/4 264/3/4 265/3/4
f 265/3/4 264/3/4 266/3/4
f 266/3/4 267/3/4 269/3/4
f 269/3/4 267/3/4 270/3/4
f 268/3/4 269/3/4 271/3/4
f 271/3/4 269/3/4 272/3/4
f 273/5/4 274/5/4 275/5/4
f 275/5/4 274/5/4 276/5/4
f 275/4/4 276/4/4 278/4/4
f 276/4/4 277/4/4 278/4/4
f 278/4/4 277/4/4 279/4/4
f 275/4/4 278/4/4 280/4/4
f 278/7/4 279/7/4 280/7/4
f 280/7/4 279/7/4 281/7/4
f 275/4/4 280/4/4 282/4/4
f 280/4/4 281/4/4 282/4/4
f 282/4/4 281/4/4 283/4/4
f 283/4/4 281/4/4 284/4/4
f 282/8/4 283/8/4 285/8/4
f 285/8/4 283/8/4 286/8/4
f 285/5/4 286/5/4 287/5/4
f 287/5/4 286/5/4 288/5/4
f 289/3/4 290/3/4 291/3/4
f 291/3/4 290/3/4 292/3/4
f 293/6/4 294/6/4 296/6/4
f 296/6/4 294/6/4 297/6/4
f 294/2/4 295/2/4 298/2/4
f 294/2/4 298/2/4 300/2/4
f 298/3/4 299/3/4 300/3/4
f 300/3/4 299/3/4 301/3/4
f 297/6/4 294/6/4 303/6/4
f 302/6/4 303/6/4 304/6/4
f 294/2/4 300/2/4 305/2/4
f 304/6/4 303/6/4 305/6/4
f 303/6/4 294/6/4 305/6/4
f 305/2/4 300/2/4 306/2/4
f 311/6/5 308/6/5 307/6/5
f 312/6/5 308/6/5 311/6/5
f 313/6/5 310/6/5 309/6/5
f 314/6/5 310/6/5 313/6/5
f 319/6/5 316/6/5 315/6/5
f 320/6/5 316/6/5 319/6/5
f 321/6/5 318/6/5 317/6/5
f 322/6/5 318/6/5 321/6/5
f 325/6/5 324/6/5 323/6/5
f 326/6/5 324/6/5 325/6/5
f 331/6/5 328/6/5 327/6/5
f 332/6/5 328/6/5 331/6/5
f 333/6/5 330/6/5 329/6/5
f 334/6/5 330/6/5 333/6/5
f 337/6/5 336/6/5 335/6/5
f 338/6/5 336/6/5 337/6/5
f 343/6/5 340/6/5 339/6/5
f 344/2/5 341/2/5 340/2/5
f 344/6/5 340/6/5 343/6/5
f 345/2/5 341/2/5 344/2/5
f 347/6/5 343/6/5 342/6/5
f 347/6/5 344/6/5 343/6/5
f 347/6/5 345/6/5 344/6/5
f 348/6/5 345/6/5 347/6/5
f 349/6/5 345/6/5 348/6/5
f 350/2/5 346/2/5 345/2/5
f 350/6/5 345/6/5 349/6/5
f 351/2/5 346/2/5 350/2/5
f 352/6/5 349/6/5 348/6/5
f 353/2/5 350/2/5 349/2/5
f 353/6/5 349/6/5 352/6/5
f 354/2/5 350/2/5 353/2/5
f 355/2/6 356/2/6 359/2/6
f 359/2/6 356/2/6 360/2/6
f 360/2/6 356/2/6 361/2/6
f 361/2/6 356/2/6 362/2/6
f 362/2/6 356/2/6 363/2/6
f 357/2/6 358/2/6 364/2/6
f 364/2/6 358/2/6 365/2/6
f 365/2/6 358/2/6 366/2/6
f 364/6/6 365/6/6 367/6/6
f 367/6/6 365/6/6 368/6/6
f 366/2/6 358/2/6 369/2/6
f 369/2/6 358/2/6 370/2/6
f 364/6/6 367/6/6 371/6/6
f 370/2/6 358/2/6 374/2/6
f 355/2/6 359/2/6 375/2/6
f 371/6/6 372/6/6 380/6/6
f 364/6/6 371/6/6 380/6/6
f 380/6/6 372/6/6 381/6/6
f 373/2/6 374/2/6 382/2/6
f 378/2/6 379/2/6 383/2/6
f 377/2/6 378/2/6 383/2/6
f 355/2/6 375/2/6 383/2/6
f 375/2/6 376/2/6 383/2/6
f 376/2/6 377/2/6 383/2/6
f 383/2/6 379/2/6 384/2/6
f 381/2/6 382/2/6 385/2/6
f 380/2/6 381/2/6 385/2/6
f 382/2/6 374/2/6 386/2/6
f 385/2/6 382/2/6 386/2/6
f 374/2/6 358/2/6 386/2/6
f 387/5/6 388/5/6 394/5/6
f 394/5/6 388/5/6 395/5/6
f 389/8/6 390/8/6 396/8/6
f 390/5/6 391/5/6 397/5/6
f 396/8/6 390/8/6 397/8/6
f 397/5/6 391/5/6 398/5/6
f 392/3/6 393/3/6 400/3/6
f 400/3/6 393/3/6 401/3/6
f 397/8/6 398/8/6 403/8/6
f 403/8/6 398/8/6 404/8/6
f 403/5/6 404/5/6 405/5/6
f 405/5/6 404/5/6 406/5/6
f 405/8/6 406/8/6 407/8/6
f 407/8/6 406/8/6 408/8/6
f 407/5/6 408/5/6 409/5/6
f 409/5/6 408/5/6 410/5/6
f 409/8/6 410/8/6 411/8/6
f 411/8/6 410/8/6 412/8/6
f 411/5/6 412/5/6 413/5/6
f 413/5/6 412/5/6 414/5/6
f 413/8/6 414/8/6 415/8/6
f 415/8/6 414/8/6 416/8/6
f 415/5/6 416/5/6 417/5/6
f 417/5/6 416/5/6 418/5/6
f 387/5/6 394/5/6 419/5/6
f 417/8/6 418/8/6 422/8/6
f 422/8/6 418/8/6 423/8/6
f 399/3/6 400/3/6 424/3/6
f 424/3/6 400/3/6 425/3/6
f 401/3/6 402/3/6 426/3/6
f 426/3/6 402/3/6 427/3/6
f 387/5/6 419/5/6 428/5/6
f 419/5/6 420/5/6 428/5/6
f 428/5/6 420/5/6 429/5/6
f 421/8/6 422/8/6 430/8/6
f 422/5/6 423/5/6 431/5/6
f 430/8/6 422/8/6 431/8/6
f 431/5/6 423/5/6 432/5/6
f 425/3/6 426/3/6 433/3/6
f 433/3/6 426/3/6 434/3/6
f 437/4/6 438/4/6 452/4/6
f 438/7/6 439/7/6 453/7/6
f 452/4/6 438/4/6 453/4/6
f 439/4/6 440/4/6 454/4/6
f 453/7/6 439/7/6 454/7/6
f 440/7/6 441/7/6 455/7/6
f 454/4/6 440/4/6 455/4/6
f 441/4/6 442/4/6 456/4/6
f 455/7/6 441/7/6 456/7/6
f 442/7/6 443/7/6 457/7/6
f 456/4/6 442/4/6 457/4/6
f 443/4/6 444/4/6 458/4/6
f 457/7/6 443/7/6 458/7/6
f 444/7/6 445/7/6 459/7/6
f 458/4/6 444/4/6 459/4/6
f 445/4/6 446/4/6 460/4/6
f 459/7/6 445/7/6 460/7/6
f 446/7/6 447/7/6 461/7/6
f 460/4/6 446/4/6 461/4/6
f 447/4/6 448/4/6 462/4/6
f 461/7/6 447/7/6 462/7/6
f 448/7/6 449/7/6 463/7/6
f 462/4/6 448/4/6 463/4/6
f 449/4/6 450/4/6 464/4/6
f 463/7/6 449/7/6 464/7/6
f 464/4/6 450/4/6 465/4/6
f 451/4/6 452/4/6 469/4/6
f 452/4/6 453/4/6 469/4/6
f 453/4/6 454/4/6 469/4/6
f 454/7/6 455/7/6 469/7/6
f 455/4/6 456/4/6 470/4/6
f 469/7/6 455/7/6 470/7/6
f 456/7/6 457/7/6 471/7/6
f 470/4/6 456/4/6 471/4/6
f 457/4/6 458/4/6 472/4/6
f 471/7/6 457/7/6 472/7/6
f 458/7/6 459/7/6 473/7/6
f 472/4/6 458/4/6 473/4/6
f 459/4/6 460/4/6 474/4/6
f 473/7/6 459/7/6 474/7/6
f 460/7/6 461/7/6 475/7/6
f 474/4/6 460/4/6 475/4/6
f 461/4/6 462/4/6 476/4/6
f 475/7/6 461/7/6 476/7/6
f 462/7/6 463/7/6 477/7/6
f 476/4/6 462/4/6 477/4/6
f 463/4/6 464/4/6 478/4/6
f 477/7/6 463/7/6 478/7/6
f 464/7/6 465/7/6 479/7/6
f 478/4/6 464/4/6 479/4/6
f 465/4/6 466/4/6 480/4/6
f 479/7/6 465/7/6 480/7/6
f 480/4/6 466/4/6 481/4/6
f 469/4/6 470/4/6 482/4/6
f 470/7/6 471/7/6 482/7/6
f 471/4/6 472/4/6 483/4/6
f 482/7/6 471/7/6 483/7/6
f 472/7/6 473/7/6 484/7/6
f 483/4/6 472/4/6 484/4/6
f 473/4/6 474/4/6 485/4/6
f 484/7/6 473/7/6 485/7/6
f 474/7/6 475/7/6 486/7/6
f 485/4/6 474/4/6 486/4/6
f 475/4/6 476/4/6 487/4/6
f 486/7/6 475/7/6 487/7/6
f 476/7/6 477/7/6 488/7/6
f 487/4/6 476/4/6 488/4/6
f 477/4/6 478/4/6 489/4/6
f 488/7/6 477/7/6 489/7/6
f 478/7/6 479/7/6 490/7/6
f 489/4/6 478/4/6 490/4/6
f 479/4/6 480/4/6 491/4/6
f 490/7/6 479/7/6 491/7/6
f 480/7/6 481/7/6 492/7/6
f 491/4/6 480/4/6 492/4/6
f 492/7/6 481/7/6 493/7/6
f 482/4/6 483/4/6 494/4/6
f 483/7/6 484/7/6 494/7/6
f 484/4/6 485/4/6 495/4/6
f 494/7/6 484/7/6 495/7/6
f 485/7/6 486/7/6 496/7/6
f 495/4/6 485/4/6 496/4/6
f 486/4/6 487/4/6 497/4/6
f 496/7/6 486/7/6 497/7/6
f 487/7/6 488/7/6 498/7/6
f 497/4/6 487/4/6 498/4/6
f 488/4/6 489/4/6 499/4/6
f 498/7/6 488/7/6 499/7/6
f 489/7/6 490/7/6 500/7/6
f 499/4/6 489/4/6 500/4/6
f 490/4/6 491/4/6 501/4/6
f 500/7/6 490/7/6 501/7/6
f 491/7/6 492/7/6 502/7/6
f 501/4/6 491/4/6 502/4/6
f 492/4/6 493/4/6 503/4/6
f 502/7/6 492/7/6 503/7/6
f 503/4/6 493/4/6 504/4/6
f 494/4/6 495/4/6 505/4/6
f 495/7/6 496/7/6 505/7/6
f 496/4/6 497/4/6 506/4/6
f 505/7/6 496/7/6 506/7/6
f 497/7/6 498/7/6 507/7/6
f 506/4/6 497/4/6 507/4/6
f 498/4/6 499/4/6 508/4/6
f 507/7/6 498/7/6 508/7/6
f 499/7/6 500/7/6 509/7/6
f 508/4/6 499/4/6 509/4/6
f 500/4/6 501/4/6 510/4/6
f 509/7/6 500/7/6 510/7/6
f 501/7/6 502/7/6 511/7/6
f 510/4/6 501/4/6 511/4/6
f 502/4/6 503/4/6 512/4/6
f 511/7/6 502/7/6 512/7/6
f 503/7/6 504/7/6 513/7/6
f 512/4/6 503/4/6 513/4/6
f 513/7/6 504/7/6 514/7/6
f 505/4/6 506/4/6 515/4/6
f 506/7/6 507/7/6 515/7/6
f 507/4/6 508/4/6 516/4/6
f 515/7/6 507/7/6 516/7/6
f 508/7/6 509/7/6 517/7/6
f 516/4/6 508/4/6 517/4/6
f 509/4/6 510/4/6 518/4/6
f 517/7/6 509/7/6 518/7/6
f 510/7/6 511/7/6 519/7/6
f 518/4/6 510/4/6 519/4/6
f 511/4/6 512/4/6 520/4/6
f 519/7/6 511/7/6 520/7/6
f 512/7/6 513/7/6 521/7/6
f 520/4/6 512/4/6 521/4/6
f 513/4/6 514/4/6 522/4/6
f 521/7/6 513/7/6 522/7/6
f 522/4/6 514/4/6 523/4/6
f 516/7/6 517/7/6 524/7/6
f 515/4/6 516/4/6 524/4/6
f 517/4/6 518/4/6 525/4/6
f 524/7/6 517/7/6 525/7/6
f 518/7/6 519/7/6 526/7/6
f 525/4/6 518/4/6 526/4/6
f 519/4/6 520/4/6 527/4/6
f 526/7/6 519/7/6 527/7/6
f 520/7/6 521/7/6 528/7/6
f 527/4/6 520/4/6 528/4/6
f 521/4/6 522/4/6 529/4/6
f 528/7/6 521/7/6 529/7/6
f 522/7/6 523/7/6 530/7/6
f 529/4/6 522/4/6 530/4/6
f 530/7/6 523/7/6 531/7/6
f 524/4/6 525/4/6 532/4/6
f 525/7/6 526/7/6 532/7/6
f 526/4/6 527/4/6 533/4/6
f 532/7/6 526/7/6 533/7/6
f 527/7/6 528/7/6 534/7/6
f 533/4/6 527/4/6 534/4/6
f 528/4/6 529/4/6 535/4/6
f 534/7/6 528/7/6 535/7/6
f 529/7/6 530/7/6 536/7/6
f 535/4/6 529/4/6 536/4/6
f 530/4/6 531/4/6 537/4/6
f 536/7/6 530/7/6 537/7/6
f 537/4/6 531/4/6 538/4/6
f 533/7/6 534/7/6 539/7/6
f 532/4/6 533/4/6 539/4/6
f 534/4/6 535/4/6 540/4/6
f 539/7/6 534/7/6 540/7/6
f 535/7/6 536/7/6 541/7/6
f 540/4/6 535/4/6 541/4/6
f 536/4/6 537/4/6 542/4/6
f 541/7/6 536/7/6 542/7/6
f 537/7/6 538/7/6 543/7/6
f 542/4/6 537/4/6 543/4/6
f 543/7/6 538/7/6 544/7/6
f 494/4/6 505/4/6 545/4/6
f 451/4/6 469/4/6 545/4/6
f 505/4/6 515/4/6 545/4/6
f 469/4/6 482/4/6 545/4/6
f 482/4/6 494/4/6 545/4/6
f 532/4/6 539/4/6 545/4/6
f 524/4/6 532/4/6 545/4/6
f 539/4/6 540/4/6 545/4/6
f 515/4/6 524/4/6 545/4/6
f 545/4/6 540/4/6 546/4/6
f 540/7/6 541/7/6 547/7/6
f 546/4/6 540/4/6 547/4/6
f 541/4/6 542/4/6 548/4/6
f 547/7/6 541/7/6 548/7/6
f 542/7/6 543/7/6 549/7/6
f 548/4/6 542/4/6 549/4/6
f 543/4/6 544/4/6 550/4/6
f 549/7/6 543/7/6 550/7/6
f 550/4/6 544/4/6 551/4/6
f 467/3/6 468/3/6 552/3/6
f 552/3/6 468/3/6 553/3/6
f 546/4/6 547/4/6 554/4/6
f 547/4/6 548/4/6 554/4/6
f 548/7/6 549/7/6 555/7/6
f 554/4/6 548/4/6 555/4/6
f 549/4/6 550/4/6 556/4/6
f 555/7/6 549/7/6 556/7/6
f 556/4/6 550/4/6 557/4/6
f 435/3/6 436/3/6 558/3/6
f 558/3/6 436/3/6 559/3/6
