# MagicaVoxel @ Ephtracy

# group
o 

# material
mtllib KitchenCounter.mtl
usemtl palette

# normals
vn -1 0 0
vn 1 0 0
vn 0 0 1
vn 0 0 -1
vn 0 -1 0
vn 0 1 0

# texcoords
vt 0.970703 0.5
vt 0.974609 0.5
vt 0.978516 0.5
vt 0.982422 0.5
vt 0.986328 0.5
vt 0.990234 0.5

# verts
v -2 0 0.7
v -2 0 0.6
v -2 0 -0.4
v -2 0 -0.5
v -2 0.1 -0.4
v -2 0.1 -0.5
v -2 1.4 0.7
v -2 1.4 0.6
v -2 1.4 -0.5
v -2 1.5 0.7
v -2 1.5 0.3
v -2 1.5 -0.5
v -2 1.6 0.2
v -2 1.6 -0.4
v -2 2 0.2
v -2 2 -0.4
v -2 2.1 0.3
v -2 2.1 -0.5
v -1.8 2 -0.3
v -1.8 2 -0.4
v -1.8 2.1 -0.3
v -1.8 2.1 -0.4
v -1.5 1.5 0.5
v -1.5 1.5 -0.1
v -1.5 1.6 0.5
v -1.5 1.6 -0.1
v -1.5 2 -0.3
v -1.5 2 -0.4
v -1.5 2.1 -0.3
v -1.5 2.1 -0.4
v -1.4 1.6 0.4
v -1.4 1.6 0.1
v -1.4 1.7 0.4
v -1.4 1.7 0.1
v -1.2 1.5 -0.4
v -1.2 1.5 -0.5
v -1.2 2 -0.3
v -1.2 2 -0.4
v -1.2 2 -0.5
v -1.2 2.1 -0.3
v -1.2 2.1 -0.4
v -1.1 0.3 0.7
v -1.1 0.3 0.6
v -1.1 0.4 0.7
v -1.1 0.4 0.6
v -1.1 0.6 0.7
v -1.1 0.6 0.6
v -1.1 0.7 0.7
v -1.1 0.7 0.6
v -1.1 1 0.7
v -1.1 1 0.6
v -1.1 1.1 0.7
v -1.1 1.1 0.6
v -1.1 1.3 0.7
v -1.1 1.3 0.6
v -1.1 1.3 0.5
v -1.1 1.4 0.7
v -1.1 1.4 0.6
v -1.1 1.4 0.5
v -1 1.6 0.2
v -1 1.6 -5.96046e-08
v -1 1.7 0.1
v -1 1.7 -5.96046e-08
v -1 1.8 0.2
v -1 1.8 0.1
v -0.4 1.6 0.3
v -0.4 1.6 0.1
v -0.4 1.9 0.3
v -0.4 1.9 0.1
v -0.3 1.5 0.3
v -0.3 1.5 0.1
v -0.3 1.6 0.4
v -0.3 1.6 0.3
v -0.3 1.6 0.1
v -0.3 1.6 -5.96046e-08
v -0.3 1.9 0.4
v -0.3 1.9 0.3
v -0.3 1.9 0.1
v -0.3 1.9 -5.96046e-08
v -0.0999999 1.6 0.3
v -0.0999999 1.6 0.1
v -0.0999999 1.9 0.3
v -0.0999999 1.9 0.1
v 0.2 1.5 0.3
v 0.2 1.5 0.2
v 0.2 1.5 -0.4
v 0.2 1.5 -0.5
v 0.2 2 0.3
v 0.2 2 0.2
v 0.2 2 -0.4
v 0.2 2 -0.5
v 0.2 2.1 0.3
v 0.2 2.1 -0.5
v 0.3 2.1 -5.96046e-08
v 0.3 2.1 -0.2
v 0.3 2.2 -5.96046e-08
v 0.3 2.2 -0.2
v 0.4 2.1 0.1
v 0.4 2.1 -5.96046e-08
v 0.4 2.1 -0.2
v 0.4 2.1 -0.3
v 0.4 2.2 0.1
v 0.4 2.2 -5.96046e-08
v 0.4 2.2 -0.2
v 0.4 2.2 -0.3
v 1.9 0.1 -0.4
v 1.9 0.1 -0.5
v 1.9 0.2 0.7
v 1.9 0.2 0.6
v 1.9 1.4 0.7
v 1.9 1.4 0.6
v 1.9 1.4 -0.4
v 1.9 1.4 -0.5
v 1.9 1.5 0.3
v 1.9 1.5 0.2
v 1.9 1.5 -0.4
v 1.9 1.5 -0.5
v 1.9 2 0.3
v 1.9 2 0.2
v 1.9 2 -0.4
v 1.9 2 -0.5
v -1.9 1.5 0.3
v -1.9 1.5 -0.5
v -1.9 1.6 0.2
v -1.9 1.6 -0.4
v -1.9 2 0.2
v -1.9 2 -0.4
v -1.9 2 -0.5
v -1.9 2.1 0.3
v -1.9 2.1 -0.4
v -1.8 0.3 0.7
v -1.8 0.3 0.6
v -1.8 0.4 0.7
v -1.8 0.4 0.6
v -1.8 0.6 0.7
v -1.8 0.6 0.6
v -1.8 0.7 0.7
v -1.8 0.7 0.6
v -1.8 1 0.7
v -1.8 1 0.6
v -1.8 1.1 0.7
v -1.8 1.1 0.6
v -1.8 1.3 0.7
v -1.8 1.3 0.6
v -1.8 1.3 0.5
v -1.8 1.4 0.7
v -1.8 1.4 0.6
v -1.8 1.4 0.5
v -1.7 2 -0.3
v -1.7 2 -0.4
v -1.7 2.1 -0.3
v -1.7 2.1 -0.4
v -1.4 2 -0.3
v -1.4 2 -0.4
v -1.4 2.1 -0.3
v -1.4 2.1 -0.4
v -1.3 1.6 0.4
v -1.3 1.6 0.1
v -1.3 1.7 0.4
v -1.3 1.7 0.1
v -1.1 1.5 -0.4
v -1.1 1.5 -0.5
v -1.1 2 -0.3
v -1.1 2 -0.4
v -1.1 2.1 -0.3
v -1.1 2.1 -0.5
v -1 0 0.6
v -1 0 -0.4
v -1 1.4 0.6
v -1 1.4 -0.4
v -0.9 0.1 -0.4
v -0.9 0.1 -0.5
v -0.9 0.2 0.7
v -0.9 0.2 0.6
v -0.9 1.4 0.7
v -0.9 1.4 0.6
v -0.9 1.4 -0.4
v -0.9 1.4 -0.5
v -0.9 1.6 0.1
v -0.9 1.6 -5.96046e-08
v -0.9 1.7 0.2
v -0.9 1.7 0.1
v -0.9 1.7 -5.96046e-08
v -0.9 1.8 0.2
v -0.9 1.8 0.1
v -0.8 1.6 0.2
v -0.8 1.6 0.1
v -0.8 1.7 0.2
v -0.8 1.7 0.1
v -0.6 1.5 0.5
v -0.6 1.5 -0.1
v -0.6 1.6 0.5
v -0.6 1.6 -0.1
v -0.3 1.6 0.3
v -0.3 1.6 0.1
v -0.3 1.9 0.3
v -0.3 1.9 0.1
v -0.0999999 1.5 0.3
v -0.0999999 1.5 0.1
v -0.0999999 1.6 0.4
v -0.0999999 1.6 0.3
v -0.0999999 1.6 0.1
v -0.0999999 1.6 -5.96046e-08
v -0.0999999 1.9 0.4
v -0.0999999 1.9 0.3
v -0.0999999 1.9 0.1
v -0.0999999 1.9 -5.96046e-08
v 2.38419e-07 1.6 0.3
v 2.38419e-07 1.6 0.1
v 2.38419e-07 1.9 0.3
v 2.38419e-07 1.9 0.1
v 0.3 1.5 0.3
v 0.3 1.5 0.2
v 0.3 1.5 -0.4
v 0.3 1.5 -0.5
v 0.3 2 0.3
v 0.3 2 0.2
v 0.3 2 -0.4
v 0.3 2 -0.5
v 0.6 2.1 0.1
v 0.6 2.1 -5.96046e-08
v 0.6 2.1 -0.2
v 0.6 2.1 -0.3
v 0.6 2.2 0.1
v 0.6 2.2 -5.96046e-08
v 0.6 2.2 -0.2
v 0.6 2.2 -0.3
v 0.7 2.1 -5.96046e-08
v 0.7 2.1 -0.2
v 0.7 2.2 -5.96046e-08
v 0.7 2.2 -0.2
v 2 0 0.7
v 2 0 0.6
v 2 0 -0.4
v 2 0 -0.5
v 2 1.4 0.7
v 2 1.4 0.6
v 2 1.4 -0.4
v 2 1.4 -0.5
v 2 1.5 0.7
v 2 1.5 0.3
v 2 1.5 0.2
v 2 1.5 -0.4
v 2 1.5 -0.5
v 2 2 0.3
v 2 2 0.2
v 2 2 -0.4
v 2 2 -0.5
v 2 2.1 0.3
v 2 2.1 -0.5
v -2 0 0.7
v -2 1.4 0.7
v -2 1.5 0.7
v -1.8 0.3 0.7
v -1.8 0.4 0.7
v -1.8 0.6 0.7
v -1.8 0.7 0.7
v -1.8 1 0.7
v -1.8 1.1 0.7
v -1.8 1.3 0.7
v -1.8 1.4 0.7
v -1.1 0.3 0.7
v -1.1 0.4 0.7
v -1.1 0.6 0.7
v -1.1 0.7 0.7
v -1.1 1 0.7
v -1.1 1.1 0.7
v -1.1 1.3 0.7
v -1.1 1.4 0.7
v -0.9 0 0.7
v -0.9 0.2 0.7
v -0.9 1.4 0.7
v 1.9 0.2 0.7
v 1.9 1.4 0.7
v 2 0 0.7
v 2 1.4 0.7
v 2 1.5 0.7
v -1.8 0.3 0.6
v -1.8 0.4 0.6
v -1.8 0.6 0.6
v -1.8 0.7 0.6
v -1.8 1 0.6
v -1.8 1.1 0.6
v -1.1 0.3 0.6
v -1.1 0.4 0.6
v -1.1 0.6 0.6
v -1.1 0.7 0.6
v -1.1 1 0.6
v -1.1 1.1 0.6
v -1.8 1.3 0.5
v -1.8 1.4 0.5
v -1.5 1.5 0.5
v -1.5 1.6 0.5
v -1.1 1.3 0.5
v -1.1 1.4 0.5
v -0.6 1.5 0.5
v -0.6 1.6 0.5
v -1.4 1.6 0.4
v -1.4 1.7 0.4
v -1.3 1.6 0.4
v -1.3 1.7 0.4
v -0.3 1.6 0.4
v -0.3 1.9 0.4
v -0.0999999 1.6 0.4
v -0.0999999 1.9 0.4
v -2 1.5 0.3
v -2 2.1 0.3
v -1.9 1.5 0.3
v -1.9 2.1 0.3
v -0.4 1.6 0.3
v -0.4 1.9 0.3
v -0.3 1.5 0.3
v -0.3 1.6 0.3
v -0.3 1.9 0.3
v -0.0999999 1.5 0.3
v -0.0999999 1.6 0.3
v -0.0999999 1.9 0.3
v 2.38419e-07 1.6 0.3
v 2.38419e-07 1.9 0.3
v 0.2 1.5 0.3
v 0.2 2 0.3
v 0.2 2.1 0.3
v 0.3 1.5 0.3
v 0.3 2 0.3
v 1.9 1.5 0.3
v 1.9 2 0.3
v 2 1.5 0.3
v 2 2 0.3
v 2 2.1 0.3
v -1 1.6 0.2
v -1 1.8 0.2
v -0.9 1.7 0.2
v -0.9 1.8 0.2
v -0.8 1.6 0.2
v -0.8 1.7 0.2
v -0.3 1.6 0.1
v -0.3 1.9 0.1
v -0.0999999 1.6 0.1
v -0.0999999 1.9 0.1
v 0.4 2.1 0.1
v 0.4 2.2 0.1
v 0.6 2.1 0.1
v 0.6 2.2 0.1
v 0.3 2.1 -5.96046e-08
v 0.3 2.2 -5.96046e-08
v 0.4 2.1 -5.96046e-08
v 0.4 2.2 -5.96046e-08
v 0.6 2.1 -5.96046e-08
v 0.6 2.2 -5.96046e-08
v 0.7 2.1 -5.96046e-08
v 0.7 2.2 -5.96046e-08
v -1.8 2 -0.3
v -1.8 2.1 -0.3
v -1.7 2 -0.3
v -1.7 2.1 -0.3
v -1.5 2 -0.3
v -1.5 2.1 -0.3
v -1.4 2 -0.3
v -1.4 2.1 -0.3
v -1.2 2 -0.3
v -1.2 2.1 -0.3
v -1.1 2 -0.3
v -1.1 2.1 -0.3
v -2 1.6 -0.4
v -2 2 -0.4
v -1.9 1.6 -0.4
v -1.9 2 -0.4
v -1.9 2.1 -0.4
v -1.8 2 -0.4
v -1.8 2.1 -0.4
v -1.7 2 -0.4
v -1.7 2.1 -0.4
v -1.5 2 -0.4
v -1.5 2.1 -0.4
v -1.4 2 -0.4
v -1.4 2.1 -0.4
v -1.2 1.5 -0.4
v -1.2 2 -0.4
v -1.2 2.1 -0.4
v -1.1 1.5 -0.4
v -1.1 2 -0.4
v -1 0 -0.4
v -1 1.4 -0.4
v -0.9 0.1 -0.4
v -0.9 1.4 -0.4
v 0.2 1.5 -0.4
v 0.2 2 -0.4
v 0.3 1.5 -0.4
v 0.3 2 -0.4
v 1.9 0.1 -0.4
v 1.9 1.4 -0.4
v 1.9 1.5 -0.4
v 1.9 2 -0.4
v 2 0 -0.4
v 2 1.4 -0.4
v 2 1.5 -0.4
v 2 2 -0.4
v -1 0 0.6
v -1 1.4 0.6
v -0.9 0 0.6
v -0.9 0.2 0.6
v -0.9 1.4 0.6
v 1.9 0.2 0.6
v 1.9 1.4 0.6
v 2 0 0.6
v 2 1.4 0.6
v -0.3 1.6 0.3
v -0.3 1.9 0.3
v -0.0999999 1.6 0.3
v -0.0999999 1.9 0.3
v -2 1.6 0.2
v -2 2 0.2
v -1.9 1.6 0.2
v -1.9 2 0.2
v 0.2 1.5 0.2
v 0.2 2 0.2
v 0.3 1.5 0.2
v 0.3 2 0.2
v 1.9 1.5 0.2
v 1.9 2 0.2
v 2 1.5 0.2
v 2 2 0.2
v -1.4 1.6 0.1
v -1.4 1.7 0.1
v -1.3 1.6 0.1
v -1.3 1.7 0.1
v -1 1.7 0.1
v -1 1.8 0.1
v -0.9 1.6 0.1
v -0.9 1.7 0.1
v -0.9 1.8 0.1
v -0.8 1.6 0.1
v -0.8 1.7 0.1
v -0.4 1.6 0.1
v -0.4 1.9 0.1
v -0.3 1.5 0.1
v -0.3 1.6 0.1
v -0.3 1.9 0.1
v -0.0999999 1.5 0.1
v -0.0999999 1.6 0.1
v -0.0999999 1.9 0.1
v 2.38419e-07 1.6 0.1
v 2.38419e-07 1.9 0.1
v -1 1.6 -5.96046e-08
v -1 1.7 -5.96046e-08
v -0.9 1.6 -5.96046e-08
v -0.9 1.7 -5.96046e-08
v -0.3 1.6 -5.96046e-08
v -0.3 1.9 -5.96046e-08
v -0.0999999 1.6 -5.96046e-08
v -0.0999999 1.9 -5.96046e-08
v -1.5 1.5 -0.1
v -1.5 1.6 -0.1
v -0.6 1.5 -0.1
v -0.6 1.6 -0.1
v 0.3 2.1 -0.2
v 0.3 2.2 -0.2
v 0.4 2.1 -0.2
v 0.4 2.2 -0.2
v 0.6 2.1 -0.2
v 0.6 2.2 -0.2
v 0.7 2.1 -0.2
v 0.7 2.2 -0.2
v 0.4 2.1 -0.3
v 0.4 2.2 -0.3
v 0.6 2.1 -0.3
v 0.6 2.2 -0.3
v -2 0 -0.5
v -2 0.1 -0.5
v -2 1.4 -0.5
v -2 1.5 -0.5
v -2 2.1 -0.5
v -1.9 1.5 -0.5
v -1.9 2 -0.5
v -1.2 1.5 -0.5
v -1.2 2 -0.5
v -1.1 1.5 -0.5
v -1.1 2.1 -0.5
v -1 0.1 -0.5
v -1 1.4 -0.5
v -0.9 0.1 -0.5
v -0.9 1.4 -0.5
v 0.2 1.5 -0.5
v 0.2 2 -0.5
v 0.2 2.1 -0.5
v 0.3 1.5 -0.5
v 0.3 2 -0.5
v 1.9 0.1 -0.5
v 1.9 1.4 -0.5
v 1.9 1.5 -0.5
v 1.9 2 -0.5
v 2 0 -0.5
v 2 1.4 -0.5
v 2 1.5 -0.5
v 2 2 -0.5
v 2 2.1 -0.5
v -2 0 0.7
v -0.9 0 0.7
v 2 0 0.7
v -2 0 0.6
v -1 0 0.6
v -0.9 0 0.6
v 2 0 0.6
v -2 0 -0.4
v -1 0 -0.4
v 2 0 -0.4
v -2 0 -0.5
v 2 0 -0.5
v -1.8 0.4 0.7
v -1.1 0.4 0.7
v -1.8 0.4 0.6
v -1.1 0.4 0.6
v -1.8 0.7 0.7
v -1.1 0.7 0.7
v -1.8 0.7 0.6
v -1.1 0.7 0.6
v -1.8 1.1 0.7
v -1.1 1.1 0.7
v -1.8 1.1 0.6
v -1.1 1.1 0.6
v -1.8 1.4 0.7
v -1.1 1.4 0.7
v -0.9 1.4 0.7
v 1.9 1.4 0.7
v -1.8 1.4 0.6
v -1.1 1.4 0.6
v -1 1.4 0.6
v -0.9 1.4 0.6
v 1.9 1.4 0.6
v 2 1.4 0.6
v -1.8 1.4 0.5
v -1.1 1.4 0.5
v -1 1.4 -0.4
v -0.9 1.4 -0.4
v 1.9 1.4 -0.4
v 2 1.4 -0.4
v -0.9 1.4 -0.5
v 1.9 1.4 -0.5
v -0.3 1.6 0.4
v -0.0999999 1.6 0.4
v -0.4 1.6 0.3
v -0.3 1.6 0.3
v -0.0999999 1.6 0.3
v 2.38419e-07 1.6 0.3
v -0.4 1.6 0.1
v -0.3 1.6 0.1
v -0.0999999 1.6 0.1
v 2.38419e-07 1.6 0.1
v -0.3 1.6 -5.96046e-08
v -0.0999999 1.6 -5.96046e-08
v 0.3 2 0.3
v 1.9 2 0.3
v -2 2 0.2
v -1.9 2 0.2
v 0.2 2 0.2
v 0.3 2 0.2
v 1.9 2 0.2
v 2 2 0.2
v -1.8 2 -0.3
v -1.7 2 -0.3
v -1.5 2 -0.3
v -1.4 2 -0.3
v -1.2 2 -0.3
v -1.1 2 -0.3
v -2 2 -0.4
v -1.9 2 -0.4
v -1.8 2 -0.4
v -1.7 2 -0.4
v -1.5 2 -0.4
v -1.4 2 -0.4
v -1.2 2 -0.4
v -1.1 2 -0.4
v 0.2 2 -0.4
v 0.3 2 -0.4
v 1.9 2 -0.4
v 2 2 -0.4
v -1.9 2 -0.5
v -1.2 2 -0.5
v 0.3 2 -0.5
v 1.9 2 -0.5
v -0.9 0.1 -0.4
v 1.9 0.1 -0.4
v -0.9 0.1 -0.5
v 1.9 0.1 -0.5
v -0.9 0.2 0.7
v 1.9 0.2 0.7
v -0.9 0.2 0.6
v 1.9 0.2 0.6
v -1.8 0.3 0.7
v -1.1 0.3 0.7
v -1.8 0.3 0.6
v -1.1 0.3 0.6
v -1.8 0.6 0.7
v -1.1 0.6 0.7
v -1.8 0.6 0.6
v -1.1 0.6 0.6
v -1.8 1 0.7
v -1.1 1 0.7
v -1.8 1 0.6
v -1.1 1 0.6
v -1.8 1.3 0.7
v -1.1 1.3 0.7
v -1.8 1.3 0.6
v -1.1 1.3 0.6
v -1.8 1.3 0.5
v -1.1 1.3 0.5
v -2 1.5 0.7
v 2 1.5 0.7
v -1.5 1.5 0.5
v -0.6 1.5 0.5
v -2 1.5 0.3
v -1.9 1.5 0.3
v -0.3 1.5 0.3
v -0.0999999 1.5 0.3
v 0.2 1.5 0.3
v 0.3 1.5 0.3
v 1.9 1.5 0.3
v 2 1.5 0.3
v 0.2 1.5 0.2
v 0.3 1.5 0.2
v 1.9 1.5 0.2
v 2 1.5 0.2
v -0.3 1.5 0.1
v -0.0999999 1.5 0.1
v -1.5 1.5 -0.1
v -0.6 1.5 -0.1
v -1.2 1.5 -0.4
v -1.1 1.5 -0.4
v 0.2 1.5 -0.4
v 0.3 1.5 -0.4
v 1.9 1.5 -0.4
v 2 1.5 -0.4
v -1.9 1.5 -0.5
v -1.2 1.5 -0.5
v -1.1 1.5 -0.5
v 0.2 1.5 -0.5
v 0.3 1.5 -0.5
v 1.9 1.5 -0.5
v -1.5 1.6 0.5
v -0.6 1.6 0.5
v -1.4 1.6 0.4
v -1.3 1.6 0.4
v -0.3 1.6 0.3
v -0.0999999 1.6 0.3
v -2 1.6 0.2
v -1.9 1.6 0.2
v -1 1.6 0.2
v -0.8 1.6 0.2
v -1.4 1.6 0.1
v -1.3 1.6 0.1
v -0.9 1.6 0.1
v -0.8 1.6 0.1
v -0.3 1.6 0.1
v -0.0999999 1.6 0.1
v -1 1.6 -5.96046e-08
v -0.9 1.6 -5.96046e-08
v -1.5 1.6 -0.1
v -0.6 1.6 -0.1
v -2 1.6 -0.4
v -1.9 1.6 -0.4
v -1.4 1.7 0.4
v -1.3 1.7 0.4
v -0.9 1.7 0.2
v -0.8 1.7 0.2
v -1.4 1.7 0.1
v -1.3 1.7 0.1
v -1 1.7 0.1
v -0.9 1.7 0.1
v -0.8 1.7 0.1
v -1 1.7 -5.96046e-08
v -0.9 1.7 -5.96046e-08
v -1 1.8 0.2
v -0.9 1.8 0.2
v -1 1.8 0.1
v -0.9 1.8 0.1
v -0.3 1.9 0.4
v -0.0999999 1.9 0.4
v -0.4 1.9 0.3
v -0.3 1.9 0.3
v -0.0999999 1.9 0.3
v 2.38419e-07 1.9 0.3
v -0.4 1.9 0.1
v -0.3 1.9 0.1
v -0.0999999 1.9 0.1
v 2.38419e-07 1.9 0.1
v -0.3 1.9 -5.96046e-08
v -0.0999999 1.9 -5.96046e-08
v -2 2.1 0.3
v -1.9 2.1 0.3
v 0.2 2.1 0.3
v 2 2.1 0.3
v 0.4 2.1 0.1
v 0.6 2.1 0.1
v 0.3 2.1 -5.96046e-08
v 0.4 2.1 -5.96046e-08
v 0.6 2.1 -5.96046e-08
v 0.7 2.1 -5.96046e-08
v 0.3 2.1 -0.2
v 0.4 2.1 -0.2
v 0.6 2.1 -0.2
v 0.7 2.1 -0.2
v -1.8 2.1 -0.3
v -1.7 2.1 -0.3
v -1.5 2.1 -0.3
v -1.4 2.1 -0.3
v -1.2 2.1 -0.3
v -1.1 2.1 -0.3
v 0.4 2.1 -0.3
v 0.6 2.1 -0.3
v -1.9 2.1 -0.4
v -1.8 2.1 -0.4
v -1.7 2.1 -0.4
v -1.5 2.1 -0.4
v -1.4 2.1 -0.4
v -1.2 2.1 -0.4
v -2 2.1 -0.5
v -1.1 2.1 -0.5
v 0.2 2.1 -0.5
v 2 2.1 -0.5
v 0.4 2.2 0.1
v 0.6 2.2 0.1
v 0.3 2.2 -5.96046e-08
v 0.4 2.2 -5.96046e-08
v 0.6 2.2 -5.96046e-08
v 0.7 2.2 -5.96046e-08
v 0.3 2.2 -0.2
v 0.4 2.2 -0.2
v 0.6 2.2 -0.2
v 0.7 2.2 -0.2
v 0.4 2.2 -0.3
v 0.6 2.2 -0.3

# faces
f 5/3/1 3/3/1 2/3/1
f 5/5/1 4/5/1 3/5/1
f 6/5/1 4/5/1 5/5/1
f 7/4/1 2/4/1 1/4/1
f 8/3/1 5/3/1 2/3/1
f 8/4/1 2/4/1 7/4/1
f 8/3/1 6/3/1 5/3/1
f 9/3/1 6/3/1 8/3/1
f 10/1/1 8/1/1 7/1/1
f 10/1/1 9/1/1 8/1/1
f 11/1/1 9/1/1 10/1/1
f 12/1/1 9/1/1 11/1/1
f 13/3/1 12/3/1 11/3/1
f 14/3/1 12/3/1 13/3/1
f 15/3/1 13/3/1 11/3/1
f 16/3/1 12/3/1 14/3/1
f 17/3/1 15/3/1 11/3/1
f 17/3/1 16/3/1 15/3/1
f 18/3/1 12/3/1 16/3/1
f 18/3/1 16/3/1 17/3/1
f 21/3/1 20/3/1 19/3/1
f 22/3/1 20/3/1 21/3/1
f 25/5/1 24/5/1 23/5/1
f 26/5/1 24/5/1 25/5/1
f 29/3/1 28/3/1 27/3/1
f 30/3/1 28/3/1 29/3/1
f 33/3/1 32/3/1 31/3/1
f 34/3/1 32/3/1 33/3/1
f 38/3/1 36/3/1 35/3/1
f 39/3/1 36/3/1 38/3/1
f 40/3/1 38/3/1 37/3/1
f 41/3/1 38/3/1 40/3/1
f 44/4/1 43/4/1 42/4/1
f 45/4/1 43/4/1 44/4/1
f 48/4/1 47/4/1 46/4/1
f 49/4/1 47/4/1 48/4/1
f 52/4/1 51/4/1 50/4/1
f 53/4/1 51/4/1 52/4/1
f 57/4/1 55/4/1 54/4/1
f 58/3/1 56/3/1 55/3/1
f 58/4/1 55/4/1 57/4/1
f 59/3/1 56/3/1 58/3/1
f 62/3/1 61/3/1 60/3/1
f 63/3/1 61/3/1 62/3/1
f 64/3/1 62/3/1 60/3/1
f 65/3/1 62/3/1 64/3/1
f 68/2/1 67/2/1 66/2/1
f 69/2/1 67/2/1 68/2/1
f 73/2/1 71/2/1 70/2/1
f 74/2/1 71/2/1 73/2/1
f 76/2/1 73/2/1 72/2/1
f 77/2/1 73/2/1 76/2/1
f 78/2/1 75/2/1 74/2/1
f 79/2/1 75/2/1 78/2/1
f 82/2/1 81/2/1 80/2/1
f 83/2/1 81/2/1 82/2/1
f 88/3/1 85/3/1 84/3/1
f 89/3/1 85/3/1 88/3/1
f 90/3/1 87/3/1 86/3/1
f 91/3/1 87/3/1 90/3/1
f 92/1/1 89/1/1 88/1/1
f 92/1/1 90/1/1 89/1/1
f 92/1/1 91/1/1 90/1/1
f 93/1/1 91/1/1 92/1/1
f 96/5/1 95/5/1 94/5/1
f 97/5/1 95/5/1 96/5/1
f 102/5/1 99/5/1 98/5/1
f 103/5/1 99/5/1 102/5/1
f 104/5/1 101/5/1 100/5/1
f 105/5/1 101/5/1 104/5/1
f 110/5/1 109/5/1 108/5/1
f 111/5/1 109/5/1 110/5/1
f 112/5/1 107/5/1 106/5/1
f 113/5/1 107/5/1 112/5/1
f 118/3/1 115/3/1 114/3/1
f 119/3/1 115/3/1 118/3/1
f 120/3/1 117/3/1 116/3/1
f 121/3/1 117/3/1 120/3/1
f 122/3/2 123/3/2 124/3/2
f 124/3/2 123/3/2 125/3/2
f 122/3/2 124/3/2 126/3/2
f 125/3/2 123/3/2 127/3/2
f 127/3/2 123/3/2 128/3/2
f 122/3/2 126/3/2 129/3/2
f 126/3/2 127/3/2 129/3/2
f 129/3/2 127/3/2 130/3/2
f 131/4/2 132/4/2 133/4/2
f 133/4/2 132/4/2 134/4/2
f 135/4/2 136/4/2 137/4/2
f 137/4/2 136/4/2 138/4/2
f 139/4/2 140/4/2 141/4/2
f 141/4/2 140/4/2 142/4/2
f 143/4/2 144/4/2 146/4/2
f 144/3/2 145/3/2 147/3/2
f 146/4/2 144/4/2 147/4/2
f 147/3/2 145/3/2 148/3/2
f 149/3/2 150/3/2 151/3/2
f 151/3/2 150/3/2 152/3/2
f 153/3/2 154/3/2 155/3/2
f 155/3/2 154/3/2 156/3/2
f 157/3/2 158/3/2 159/3/2
f 159/3/2 158/3/2 160/3/2
f 161/3/2 162/3/2 164/3/2
f 163/3/2 164/3/2 165/3/2
f 164/3/2 162/3/2 166/3/2
f 165/3/2 164/3/2 166/3/2
f 167/3/2 168/3/2 169/3/2
f 169/3/2 168/3/2 170/3/2
f 173/4/2 174/4/2 175/4/2
f 175/4/2 174/4/2 176/4/2
f 171/5/2 172/5/2 177/5/2
f 177/5/2 172/5/2 178/5/2
f 179/3/2 180/3/2 182/3/2
f 182/3/2 180/3/2 183/3/2
f 181/3/2 182/3/2 184/3/2
f 184/3/2 182/3/2 185/3/2
f 186/3/2 187/3/2 188/3/2
f 188/3/2 187/3/2 189/3/2
f 190/5/2 191/5/2 192/5/2
f 192/5/2 191/5/2 193/5/2
f 194/2/2 195/2/2 196/2/2
f 196/2/2 195/2/2 197/2/2
f 198/2/2 199/2/2 201/2/2
f 201/2/2 199/2/2 202/2/2
f 200/2/2 201/2/2 204/2/2
f 204/2/2 201/2/2 205/2/2
f 202/2/2 203/2/2 206/2/2
f 206/2/2 203/2/2 207/2/2
f 208/2/2 209/2/2 210/2/2
f 210/2/2 209/2/2 211/2/2
f 212/3/2 213/3/2 216/3/2
f 216/3/2 213/3/2 217/3/2
f 214/3/2 215/3/2 218/3/2
f 218/3/2 215/3/2 219/3/2
f 220/5/2 221/5/2 224/5/2
f 224/5/2 221/5/2 225/5/2
f 222/5/2 223/5/2 226/5/2
f 226/5/2 223/5/2 227/5/2
f 228/5/2 229/5/2 230/5/2
f 230/5/2 229/5/2 231/5/2
f 232/5/2 233/5/2 236/5/2
f 236/5/2 233/5/2 237/5/2
f 234/5/2 235/5/2 238/5/2
f 238/5/2 235/5/2 239/5/2
f 236/1/2 237/1/2 240/1/2
f 237/1/2 238/1/2 240/1/2
f 238/1/2 239/1/2 240/1/2
f 240/1/2 239/1/2 241/1/2
f 241/1/2 239/1/2 242/1/2
f 242/1/2 239/1/2 243/1/2
f 243/1/2 239/1/2 244/1/2
f 241/3/2 242/3/2 245/3/2
f 245/3/2 242/3/2 246/3/2
f 243/3/2 244/3/2 247/3/2
f 247/3/2 244/3/2 248/3/2
f 245/1/2 246/1/2 249/1/2
f 246/1/2 247/1/2 249/1/2
f 247/1/2 248/1/2 249/1/2
f 249/1/2 248/1/2 250/1/2
f 254/4/3 252/4/3 251/4/3
f 255/4/3 252/4/3 254/4/3
f 256/4/3 252/4/3 255/4/3
f 257/4/3 252/4/3 256/4/3
f 258/4/3 252/4/3 257/4/3
f 259/4/3 252/4/3 258/4/3
f 260/4/3 252/4/3 259/4/3
f 261/1/3 253/1/3 252/1/3
f 261/4/3 252/4/3 260/4/3
f 262/4/3 254/4/3 251/4/3
f 263/4/3 256/4/3 255/4/3
f 264/4/3 256/4/3 263/4/3
f 265/4/3 258/4/3 257/4/3
f 266/4/3 258/4/3 265/4/3
f 267/4/3 260/4/3 259/4/3
f 268/4/3 260/4/3 267/4/3
f 269/1/3 253/1/3 261/1/3
f 270/4/3 266/4/3 265/4/3
f 270/4/3 269/4/3 268/4/3
f 270/4/3 268/4/3 267/4/3
f 270/4/3 264/4/3 263/4/3
f 270/4/3 267/4/3 266/4/3
f 270/4/3 262/4/3 251/4/3
f 270/4/3 265/4/3 264/4/3
f 270/4/3 263/4/3 262/4/3
f 271/4/3 269/4/3 270/4/3
f 272/1/3 253/1/3 269/1/3
f 272/4/3 269/4/3 271/4/3
f 273/5/3 271/5/3 270/5/3
f 274/1/3 253/1/3 272/1/3
f 275/5/3 273/5/3 270/5/3
f 275/5/3 274/5/3 273/5/3
f 276/1/3 253/1/3 274/1/3
f 276/5/3 274/5/3 275/5/3
f 277/1/3 253/1/3 276/1/3
f 284/3/3 279/3/3 278/3/3
f 285/3/3 279/3/3 284/3/3
f 286/3/3 281/3/3 280/3/3
f 287/3/3 281/3/3 286/3/3
f 288/3/3 283/3/3 282/3/3
f 289/3/3 283/3/3 288/3/3
f 294/3/3 291/3/3 290/3/3
f 295/3/3 291/3/3 294/3/3
f 296/5/3 293/5/3 292/5/3
f 297/5/3 293/5/3 296/5/3
f 300/3/3 299/3/3 298/3/3
f 301/3/3 299/3/3 300/3/3
f 304/2/3 303/2/3 302/2/3
f 305/2/3 303/2/3 304/2/3
f 308/3/3 307/3/3 306/3/3
f 309/3/3 307/3/3 308/3/3
f 313/2/3 311/2/3 310/2/3
f 314/2/3 311/2/3 313/2/3
f 315/2/3 313/2/3 312/2/3
f 316/2/3 313/2/3 315/2/3
f 318/2/3 317/2/3 316/2/3
f 319/2/3 317/2/3 318/2/3
f 323/3/3 321/3/3 320/3/3
f 324/1/3 322/1/3 321/1/3
f 324/3/3 321/3/3 323/3/3
f 326/1/3 322/1/3 324/1/3
f 327/3/3 326/3/3 325/3/3
f 328/1/3 322/1/3 326/1/3
f 328/3/3 326/3/3 327/3/3
f 329/1/3 322/1/3 328/1/3
f 332/3/3 331/3/3 330/3/3
f 333/3/3 331/3/3 332/3/3
f 334/3/3 332/3/3 330/3/3
f 335/3/3 332/3/3 334/3/3
f 338/2/3 337/2/3 336/2/3
f 339/2/3 337/2/3 338/2/3
f 342/5/3 341/5/3 340/5/3
f 343/5/3 341/5/3 342/5/3
f 346/5/3 345/5/3 344/5/3
f 347/5/3 345/5/3 346/5/3
f 350/5/3 349/5/3 348/5/3
f 351/5/3 349/5/3 350/5/3
f 354/3/3 353/3/3 352/3/3
f 355/3/3 353/3/3 354/3/3
f 358/3/3 357/3/3 356/3/3
f 359/3/3 357/3/3 358/3/3
f 362/3/3 361/3/3 360/3/3
f 363/3/3 361/3/3 362/3/3
f 366/3/3 365/3/3 364/3/3
f 367/3/3 365/3/3 366/3/3
f 369/3/3 368/3/3 367/3/3
f 370/3/3 368/3/3 369/3/3
f 373/3/3 372/3/3 371/3/3
f 374/3/3 372/3/3 373/3/3
f 378/3/3 376/3/3 375/3/3
f 379/3/3 376/3/3 378/3/3
f 380/3/3 378/3/3 377/3/3
f 381/3/3 378/3/3 380/3/3
f 384/5/3 383/5/3 382/5/3
f 385/5/3 383/5/3 384/5/3
f 388/3/3 387/3/3 386/3/3
f 389/3/3 387/3/3 388/3/3
f 390/5/3 384/5/3 382/5/3
f 394/5/3 390/5/3 382/5/3
f 394/5/3 391/5/3 390/5/3
f 395/5/3 391/5/3 394/5/3
f 396/3/3 393/3/3 392/3/3
f 397/3/3 393/3/3 396/3/3
f 398/4/4 399/4/4 400/4/4
f 400/4/4 399/4/4 401/4/4
f 401/4/4 399/4/4 402/4/4
f 400/5/4 401/5/4 403/5/4
f 400/5/4 403/5/4 405/5/4
f 403/5/4 404/5/4 405/5/4
f 405/5/4 404/5/4 406/5/4
f 407/2/4 408/2/4 409/2/4
f 409/2/4 408/2/4 410/2/4
f 411/3/4 412/3/4 413/3/4
f 413/3/4 412/3/4 414/3/4
f 415/3/4 416/3/4 417/3/4
f 417/3/4 416/3/4 418/3/4
f 419/3/4 420/3/4 421/3/4
f 421/3/4 420/3/4 422/3/4
f 423/3/4 424/3/4 425/3/4
f 425/3/4 424/3/4 426/3/4
f 427/3/4 428/3/4 430/3/4
f 430/3/4 428/3/4 431/3/4
f 429/3/4 430/3/4 432/3/4
f 432/3/4 430/3/4 433/3/4
f 434/2/4 435/2/4 437/2/4
f 437/2/4 435/2/4 438/2/4
f 436/2/4 437/2/4 439/2/4
f 439/2/4 437/2/4 440/2/4
f 440/2/4 441/2/4 442/2/4
f 442/2/4 441/2/4 443/2/4
f 444/3/4 445/3/4 446/3/4
f 446/3/4 445/3/4 447/3/4
f 448/2/4 449/2/4 450/2/4
f 450/2/4 449/2/4 451/2/4
f 452/5/4 453/5/4 454/5/4
f 454/5/4 453/5/4 455/5/4
f 456/5/4 457/5/4 458/5/4
f 458/5/4 457/5/4 459/5/4
f 460/5/4 461/5/4 462/5/4
f 462/5/4 461/5/4 463/5/4
f 464/5/4 465/5/4 466/5/4
f 466/5/4 465/5/4 467/5/4
f 470/1/4 471/1/4 473/1/4
f 471/3/4 472/3/4 473/3/4
f 473/3/4 472/3/4 474/3/4
f 470/1/4 473/1/4 475/1/4
f 474/3/4 472/3/4 476/3/4
f 470/1/4 475/1/4 477/1/4
f 475/3/4 476/3/4 477/3/4
f 476/3/4 472/3/4 478/3/4
f 477/3/4 476/3/4 478/3/4
f 468/5/4 469/5/4 479/5/4
f 469/3/4 470/3/4 479/3/4
f 470/1/4 477/1/4 480/1/4
f 479/3/4 470/3/4 480/3/4
f 468/5/4 479/5/4 481/5/4
f 479/5/4 480/5/4 481/5/4
f 480/1/4 477/1/4 482/1/4
f 481/5/4 480/5/4 482/5/4
f 482/1/4 477/1/4 483/1/4
f 482/1/4 483/1/4 486/1/4
f 483/3/4 484/3/4 486/3/4
f 484/1/4 485/1/4 487/1/4
f 486/3/4 484/3/4 487/3/4
f 468/5/4 481/5/4 488/5/4
f 482/1/4 486/1/4 489/1/4
f 489/1/4 486/1/4 490/1/4
f 487/1/4 485/1/4 491/1/4
f 468/5/4 488/5/4 492/5/4
f 488/5/4 489/5/4 492/5/4
f 489/1/4 490/1/4 493/1/4
f 492/5/4 489/5/4 493/5/4
f 490/3/4 491/3/4 494/3/4
f 493/1/4 490/1/4 494/1/4
f 491/1/4 485/1/4 495/1/4
f 494/3/4 491/3/4 495/3/4
f 495/1/4 485/1/4 496/1/4
f 500/4/5 498/4/5 497/4/5
f 501/4/5 498/4/5 500/4/5
f 502/5/5 499/5/5 498/5/5
f 502/4/5 498/4/5 501/4/5
f 503/5/5 499/5/5 502/5/5
f 504/3/5 501/3/5 500/3/5
f 505/3/5 501/3/5 504/3/5
f 507/5/5 505/5/5 504/5/5
f 507/5/5 506/5/5 505/5/5
f 508/5/5 506/5/5 507/5/5
f 511/4/5 510/4/5 509/4/5
f 512/4/5 510/4/5 511/4/5
f 515/4/5 514/4/5 513/4/5
f 516/4/5 514/4/5 515/4/5
f 519/4/5 518/4/5 517/4/5
f 520/4/5 518/4/5 519/4/5
f 525/1/5 522/1/5 521/1/5
f 526/1/5 522/1/5 525/1/5
f 528/1/5 524/1/5 523/1/5
f 529/1/5 524/1/5 528/1/5
f 531/1/5 526/1/5 525/1/5
f 532/1/5 526/1/5 531/1/5
f 533/1/5 530/1/5 529/1/5
f 533/1/5 528/1/5 527/1/5
f 533/1/5 529/1/5 528/1/5
f 534/1/5 530/1/5 533/1/5
f 535/1/5 530/1/5 534/1/5
f 536/1/5 530/1/5 535/1/5
f 537/1/5 535/1/5 534/1/5
f 538/1/5 535/1/5 537/1/5
f 542/2/5 540/2/5 539/2/5
f 543/2/5 540/2/5 542/2/5
f 545/2/5 542/2/5 541/2/5
f 546/2/5 542/2/5 545/2/5
f 547/2/5 544/2/5 543/2/5
f 548/2/5 544/2/5 547/2/5
f 549/2/5 547/2/5 546/2/5
f 550/2/5 547/2/5 549/2/5
f 556/1/5 552/1/5 551/1/5
f 557/1/5 552/1/5 556/1/5
f 565/3/5 554/3/5 553/3/5
f 566/3/5 554/3/5 565/3/5
f 567/3/5 560/3/5 559/3/5
f 568/3/5 560/3/5 567/3/5
f 569/3/5 562/3/5 561/3/5
f 570/3/5 562/3/5 569/3/5
f 571/3/5 564/3/5 563/3/5
f 572/3/5 564/3/5 571/3/5
f 573/1/5 556/1/5 555/1/5
f 573/1/5 557/1/5 556/1/5
f 573/1/5 558/1/5 557/1/5
f 574/1/5 558/1/5 573/1/5
f 575/1/5 558/1/5 574/1/5
f 576/1/5 558/1/5 575/1/5
f 577/3/5 570/3/5 569/3/5
f 577/3/5 571/3/5 570/3/5
f 577/3/5 569/3/5 568/3/5
f 577/3/5 568/3/5 567/3/5
f 577/3/5 567/3/5 566/3/5
f 578/3/5 571/3/5 577/3/5
f 579/1/5 575/1/5 574/1/5
f 580/1/5 575/1/5 579/1/5
f 581/5/6 582/5/6 583/5/6
f 583/5/6 582/5/6 584/5/6
f 585/5/6 586/5/6 587/5/6
f 587/5/6 586/5/6 588/5/6
f 589/4/6 590/4/6 591/4/6
f 591/4/6 590/4/6 592/4/6
f 593/4/6 594/4/6 595/4/6
f 595/4/6 594/4/6 596/4/6
f 597/4/6 598/4/6 599/4/6
f 599/4/6 598/4/6 600/4/6
f 601/4/6 602/4/6 603/4/6
f 603/4/6 602/4/6 604/4/6
f 603/3/6 604/3/6 605/3/6
f 605/3/6 604/3/6 606/3/6
f 607/1/6 608/1/6 609/1/6
f 609/1/6 608/1/6 610/1/6
f 607/1/6 609/1/6 611/1/6
f 611/1/6 609/1/6 612/1/6
f 610/1/6 608/1/6 613/1/6
f 613/1/6 608/1/6 614/1/6
f 614/1/6 608/1/6 615/1/6
f 615/1/6 608/1/6 616/1/6
f 616/1/6 608/1/6 617/1/6
f 617/1/6 608/1/6 618/1/6
f 614/1/6 615/1/6 619/1/6
f 616/1/6 617/1/6 620/1/6
f 620/1/6 617/1/6 621/1/6
f 610/1/6 613/1/6 623/1/6
f 621/1/6 622/1/6 624/1/6
f 614/1/6 619/1/6 624/1/6
f 620/1/6 621/1/6 624/1/6
f 619/1/6 620/1/6 624/1/6
f 612/1/6 609/1/6 625/1/6
f 623/1/6 624/1/6 626/1/6
f 610/1/6 623/1/6 626/1/6
f 625/1/6 626/1/6 627/1/6
f 627/1/6 626/1/6 628/1/6
f 624/1/6 622/1/6 629/1/6
f 628/1/6 626/1/6 629/1/6
f 626/1/6 624/1/6 629/1/6
f 629/1/6 622/1/6 630/1/6
f 630/1/6 622/1/6 631/1/6
f 631/1/6 622/1/6 632/1/6
f 612/1/6 625/1/6 633/1/6
f 625/1/6 627/1/6 633/1/6
f 633/1/6 627/1/6 634/1/6
f 628/1/6 629/1/6 635/1/6
f 635/1/6 629/1/6 636/1/6
f 630/1/6 631/1/6 637/1/6
f 637/1/6 631/1/6 638/1/6
f 639/5/6 640/5/6 641/5/6
f 641/5/6 640/5/6 642/5/6
f 642/5/6 640/5/6 647/5/6
f 647/5/6 640/5/6 648/5/6
f 639/5/6 641/5/6 649/5/6
f 642/5/6 647/5/6 650/5/6
f 648/5/6 640/5/6 652/5/6
f 643/2/6 644/2/6 653/2/6
f 653/2/6 644/2/6 654/2/6
f 649/5/6 650/5/6 655/5/6
f 650/5/6 647/5/6 655/5/6
f 651/5/6 652/5/6 656/5/6
f 649/5/6 655/5/6 657/5/6
f 655/5/6 656/5/6 657/5/6
f 639/5/6 649/5/6 657/5/6
f 656/5/6 652/5/6 658/5/6
f 657/5/6 656/5/6 658/5/6
f 652/5/6 640/5/6 658/5/6
f 645/3/6 646/3/6 659/3/6
f 659/3/6 646/3/6 660/3/6
f 661/3/6 662/3/6 665/3/6
f 665/3/6 662/3/6 666/3/6
f 663/3/6 664/3/6 668/3/6
f 668/3/6 664/3/6 669/3/6
f 667/3/6 668/3/6 670/3/6
f 670/3/6 668/3/6 671/3/6
f 672/3/6 673/3/6 674/3/6
f 674/3/6 673/3/6 675/3/6
f 676/2/6 677/2/6 679/2/6
f 679/2/6 677/2/6 680/2/6
f 678/2/6 679/2/6 682/2/6
f 682/2/6 679/2/6 683/2/6
f 680/2/6 681/2/6 684/2/6
f 684/2/6 681/2/6 685/2/6
f 683/2/6 684/2/6 686/2/6
f 686/2/6 684/2/6 687/2/6
f 690/1/6 691/1/6 692/1/6
f 692/1/6 691/1/6 693/1/6
f 690/1/6 692/1/6 694/1/6
f 694/1/6 692/1/6 695/1/6
f 693/1/6 691/1/6 696/1/6
f 696/1/6 691/1/6 697/1/6
f 690/1/6 694/1/6 698/1/6
f 697/1/6 691/1/6 701/1/6
f 698/1/6 699/1/6 708/1/6
f 700/1/6 701/1/6 709/1/6
f 688/3/6 689/3/6 710/3/6
f 702/3/6 703/3/6 711/3/6
f 711/3/6 703/3/6 712/3/6
f 704/3/6 705/3/6 713/3/6
f 713/3/6 705/3/6 714/3/6
f 706/3/6 707/3/6 715/3/6
f 713/3/6 714/3/6 716/3/6
f 714/3/6 715/3/6 716/3/6
f 688/3/6 710/3/6 716/3/6
f 711/3/6 712/3/6 716/3/6
f 712/3/6 713/3/6 716/3/6
f 710/3/6 711/3/6 716/3/6
f 715/3/6 707/3/6 717/3/6
f 716/3/6 715/3/6 717/3/6
f 708/1/6 709/1/6 718/1/6
f 690/1/6 698/1/6 718/1/6
f 698/1/6 708/1/6 718/1/6
f 701/1/6 691/1/6 719/1/6
f 718/1/6 709/1/6 719/1/6
f 709/1/6 701/1/6 719/1/6
f 720/5/6 721/5/6 723/5/6
f 723/5/6 721/5/6 724/5/6
f 722/5/6 723/5/6 726/5/6
f 723/6/6 724/6/6 727/6/6
f 726/5/6 723/5/6 727/5/6
f 724/5/6 725/5/6 728/5/6
f 727/6/6 724/6/6 728/6/6
f 728/5/6 725/5/6 729/5/6
f 727/5/6 728/5/6 730/5/6
f 730/5/6 728/5/6 731/5/6
