# MagicaVoxel @ Ephtracy

# group
o 

# material
mtllib lightswitch.mtl
usemtl palette

# normals
vn -1 0 0
vn 1 0 0
vn 0 0 1
vn 0 0 -1
vn 0 -1 0
vn 0 1 0

# texcoords
vt 0.970703 0.5
vt 0.978516 0.5
vt 0.982422 0.5

# verts
v -0.2 1.8 2
v -0.2 1.8 1.9
v -0.2 2.2 2
v -0.2 2.2 1.9
v -0.1 2 1.9
v -0.1 2 1.8
v -0.1 2.1 1.9
v -0.1 2.1 1.8
v 0 2 1.9
v 0 2 1.8
v 0 2.1 1.9
v 0 2.1 1.8
v 0.1 1.8 2
v 0.1 1.8 1.9
v 0.1 2.2 2
v 0.1 2.2 1.9
v -0.2 1.8 2
v -0.2 2.2 2
v -0.1 1.9 2
v -0.1 2 2
v -0.1 2.1 2
v 0 1.9 2
v 0 2 2
v 0 2.1 2
v 0.1 1.8 2
v 0.1 2.2 2
v -0.2 1.8 1.9
v -0.2 2.2 1.9
v -0.1 1.9 1.9
v -0.1 2 1.9
v -0.1 2.1 1.9
v 0 1.9 1.9
v 0 2 1.9
v 0 2.1 1.9
v 0.1 1.8 1.9
v 0.1 2.2 1.9
v -0.1 2 1.8
v -0.1 2.1 1.8
v 0 2 1.8
v 0 2.1 1.8
v -0.2 1.8 2
v 0.1 1.8 2
v -0.2 1.8 1.9
v 0.1 1.8 1.9
v -0.1 2 1.9
v 0 2 1.9
v -0.1 2 1.8
v 0 2 1.8
v -0.1 2.1 1.9
v 0 2.1 1.9
v -0.1 2.1 1.8
v 0 2.1 1.8
v -0.2 2.2 2
v 0.1 2.2 2
v -0.2 2.2 1.9
v 0.1 2.2 1.9

# faces
f 3/2/1 2/2/1 1/2/1
f 4/2/1 2/2/1 3/2/1
f 7/1/1 6/1/1 5/1/1
f 8/1/1 6/1/1 7/1/1
f 9/1/2 10/1/2 11/1/2
f 11/1/2 10/1/2 12/1/2
f 13/2/2 14/2/2 15/2/2
f 15/2/2 14/2/2 16/2/2
f 19/2/3 18/2/3 17/2/3
f 20/2/3 18/2/3 19/2/3
f 21/2/3 18/2/3 20/2/3
f 22/2/3 19/2/3 17/2/3
f 22/3/3 20/3/3 19/3/3
f 23/1/3 21/1/3 20/1/3
f 23/3/3 20/3/3 22/3/3
f 24/2/3 18/2/3 21/2/3
f 24/1/3 21/1/3 23/1/3
f 25/2/3 23/2/3 22/2/3
f 25/2/3 22/2/3 17/2/3
f 25/2/3 24/2/3 23/2/3
f 26/2/3 18/2/3 24/2/3
f 26/2/3 24/2/3 25/2/3
f 27/2/4 28/2/4 29/2/4
f 29/2/4 28/2/4 30/2/4
f 30/2/4 28/2/4 31/2/4
f 27/2/4 29/2/4 32/2/4
f 29/3/4 30/3/4 32/3/4
f 32/3/4 30/3/4 33/3/4
f 31/2/4 28/2/4 34/2/4
f 32/2/4 33/2/4 35/2/4
f 33/2/4 34/2/4 35/2/4
f 27/2/4 32/2/4 35/2/4
f 34/2/4 28/2/4 36/2/4
f 35/2/4 34/2/4 36/2/4
f 37/1/4 38/1/4 39/1/4
f 39/1/4 38/1/4 40/1/4
f 43/2/5 42/2/5 41/2/5
f 44/2/5 42/2/5 43/2/5
f 47/1/5 46/1/5 45/1/5
f 48/1/5 46/1/5 47/1/5
f 49/1/6 50/1/6 51/1/6
f 51/1/6 50/1/6 52/1/6
f 53/2/6 54/2/6 55/2/6
f 55/2/6 54/2/6 56/2/6
