# MagicaVoxel @ Ephtracy

# group
o 

# material
mtllib slot-machine.mtl
usemtl palette

# normals
vn -1 0 0
vn 1 0 0
vn 0 0 1
vn 0 0 -1
vn 0 -1 0
vn 0 1 0

# texcoords
vt 0.970703 0.5
vt 0.974609 0.5
vt 0.978516 0.5
vt 0.982422 0.5
vt 0.986328 0.5
vt 0.990234 0.5

# verts
v -1.2 2.1 0.5
v -1.2 2.1 0.2
v -1.2 2.4 0.5
v -1.2 2.4 0.2
v -1.2 2.4 0.1
v -1.2 2.5 0.2
v -1.2 2.5 0.1
v -1.2 2.5 0
v -1.2 2.6 0.1
v -1.2 2.6 0
v -1.2 2.6 -0.1
v -1.2 2.7 0
v -1.2 2.7 -0.1
v -1.2 2.7 -0.3
v -1.2 2.9 -0.1
v -1.2 2.9 -0.3
v -1 3.9 1
v -1 3.9 -0.5
v -1 4 1
v -1 4 -0.5
v -0.9 0 0.9
v -0.9 0 -0.6
v -0.9 0.1 0.8
v -0.9 0.1 -0.5
v -0.9 1.6 -0.6
v -0.9 1.6 -1
v -0.9 2.1 0.5
v -0.9 2.1 0.2
v -0.9 2.1 -0.4
v -0.9 2.1 -0.5
v -0.9 2.1 -0.6
v -0.9 2.1 -1
v -0.9 2.3 -0.5
v -0.9 2.3 -0.6
v -0.9 2.4 0.5
v -0.9 2.4 0.2
v -0.9 3 -0.3
v -0.9 3 -0.4
v -0.9 3 -0.5
v -0.9 3 -0.6
v -0.9 3.1 -0.4
v -0.9 3.1 -0.6
v -0.9 3.9 0.9
v -0.9 3.9 0.8
v -0.9 3.9 -0.3
v -0.9 3.9 -0.4
v -0.7 0 -0.2
v -0.7 0 -1
v -0.7 0.3 -0.2
v -0.7 0.3 -0.9
v -0.7 0.4 -0.9
v -0.7 0.4 -1
v -0.7 2.1 -0.7
v -0.7 2.1 -0.9
v -0.7 2.2 -0.7
v -0.7 2.2 -0.9
v -0.3 2.4 -0.4
v -0.3 2.4 -0.5
v -0.3 2.5 -0.4
v -0.3 2.6 -0.4
v -0.3 2.9 -0.4
v -0.3 2.9 -0.5
v -0.2 2.1 -0.7
v -0.2 2.1 -0.9
v -0.2 2.2 -0.7
v -0.2 2.2 -0.9
v 0.2 2.4 -0.4
v 0.2 2.4 -0.5
v 0.2 2.7 -0.4
v 0.2 2.8 -0.4
v 0.2 2.9 -0.4
v 0.2 2.9 -0.5
v 0.3 2.1 -0.7
v 0.3 2.1 -0.9
v 0.3 2.2 -0.7
v 0.3 2.2 -0.9
v 0.6 0.2 -0.2
v 0.6 0.2 -0.9
v 0.6 0.3 -0.2
v 0.6 0.3 -0.9
v 0.7 2.4 -0.4
v 0.7 2.4 -0.5
v 0.7 2.6 -0.4
v 0.7 2.7 -0.4
v 0.7 2.9 -0.4
v 0.7 2.9 -0.5
v 0.8 0 -0.2
v 0.8 0 -0.6
v 0.8 0.1 -0.2
v 0.8 0.1 -0.5
v 0.8 0.6 -0.2
v 0.8 0.6 -0.5
v 0.8 0.6 -0.6
v 0.8 0.7 -0.5
v 0.8 0.7 -0.6
v 0.8 1.6 -0.5
v 0.8 1.6 -0.6
v 0.8 3.1 -0.3
v 0.8 3.1 -0.4
v 0.8 3.9 -0.3
v 0.8 3.9 -0.4
v -1 2.4 0.2
v -1 2.4 0.1
v -1 2.5 0.2
v -1 2.5 0.1
v -1 2.5 0
v -1 2.6 0.1
v -1 2.6 0
v -1 2.6 -0.1
v -1 2.7 0
v -1 2.7 -0.1
v -1 2.7 -0.3
v -1 2.9 -0.1
v -1 2.9 -0.3
v -0.8 0 -0.2
v -0.8 0 -0.6
v -0.8 0.1 -0.2
v -0.8 0.1 -0.5
v -0.8 0.6 -0.2
v -0.8 0.6 -0.5
v -0.8 0.6 -0.6
v -0.8 0.7 -0.5
v -0.8 0.7 -0.6
v -0.8 1.6 -0.5
v -0.8 1.6 -0.6
v -0.8 3.1 -0.3
v -0.8 3.1 -0.4
v -0.8 3.9 -0.3
v -0.8 3.9 -0.4
v -0.7 2.4 -0.4
v -0.7 2.4 -0.5
v -0.7 2.5 -0.4
v -0.7 2.6 -0.4
v -0.7 2.9 -0.4
v -0.7 2.9 -0.5
v -0.6 0.2 -0.2
v -0.6 0.2 -0.9
v -0.6 0.3 -0.2
v -0.6 0.3 -0.9
v -0.3 2.1 -0.7
v -0.3 2.1 -0.9
v -0.3 2.2 -0.7
v -0.3 2.2 -0.9
v -0.2 2.4 -0.4
v -0.2 2.4 -0.5
v -0.2 2.7 -0.4
v -0.2 2.8 -0.4
v -0.2 2.9 -0.4
v -0.2 2.9 -0.5
v 0.2 2.1 -0.7
v 0.2 2.1 -0.9
v 0.2 2.2 -0.7
v 0.2 2.2 -0.9
v 0.3 2.4 -0.4
v 0.3 2.4 -0.5
v 0.3 2.6 -0.4
v 0.3 2.7 -0.4
v 0.3 2.9 -0.4
v 0.3 2.9 -0.5
v 0.7 0 -0.2
v 0.7 0 -1
v 0.7 0.3 -0.2
v 0.7 0.3 -0.9
v 0.7 0.4 -0.9
v 0.7 0.4 -1
v 0.7 2.1 -0.7
v 0.7 2.1 -0.9
v 0.7 2.2 -0.7
v 0.7 2.2 -0.9
v 0.9 0 0.9
v 0.9 0 -0.6
v 0.9 0.1 0.8
v 0.9 0.1 -0.5
v 0.9 1.6 -0.6
v 0.9 1.6 -1
v 0.9 2.1 -0.4
v 0.9 2.1 -0.5
v 0.9 2.1 -0.6
v 0.9 2.1 -1
v 0.9 2.3 -0.5
v 0.9 2.3 -0.6
v 0.9 2.9 -0.3
v 0.9 2.9 -0.4
v 0.9 3 -0.5
v 0.9 3 -0.6
v 0.9 3.1 -0.4
v 0.9 3.1 -0.6
v 0.9 3.9 0.9
v 0.9 3.9 0.8
v 0.9 3.9 -0.3
v 0.9 3.9 -0.4
v 1 3.9 1
v 1 3.9 -0.5
v 1 4 1
v 1 4 -0.5
v -1 3.9 1
v -1 4 1
v 1 3.9 1
v 1 4 1
v -0.9 0 0.9
v -0.9 3.9 0.9
v -0.8 0.1 0.9
v -0.8 3.9 0.9
v 0.8 0.1 0.9
v 0.8 3.9 0.9
v 0.9 0 0.9
v 0.9 3.9 0.9
v -1.2 2.1 0.5
v -1.2 2.4 0.5
v -0.9 2.1 0.5
v -0.9 2.4 0.5
v -1.2 2.4 0.2
v -1.2 2.5 0.2
v -1 2.4 0.2
v -1 2.5 0.2
v -1.2 2.5 0.1
v -1.2 2.6 0.1
v -1 2.5 0.1
v -1 2.6 0.1
v -1.2 2.6 0
v -1.2 2.7 0
v -1 2.6 0
v -1 2.7 0
v -1.2 2.7 -0.1
v -1.2 2.9 -0.1
v -1 2.7 -0.1
v -1 2.9 -0.1
v -0.7 2.1 -0.7
v -0.7 2.2 -0.7
v -0.3 2.1 -0.7
v -0.3 2.2 -0.7
v -0.2 2.1 -0.7
v -0.2 2.2 -0.7
v 0.2 2.1 -0.7
v 0.2 2.2 -0.7
v 0.3 2.1 -0.7
v 0.3 2.2 -0.7
v 0.7 2.1 -0.7
v 0.7 2.2 -0.7
v -0.7 0.3 -0.9
v -0.7 0.4 -0.9
v -0.6 0.2 -0.9
v -0.6 0.3 -0.9
v 0.6 0.2 -0.9
v 0.6 0.3 -0.9
v 0.7 0.3 -0.9
v 0.7 0.4 -0.9
v -1.2 2.1 0.2
v -1.2 2.4 0.2
v -1 2.4 0.2
v -0.9 2.1 0.2
v -0.9 2.4 0.2
v -1.2 2.4 0.1
v -1.2 2.5 0.1
v -1 2.4 0.1
v -1 2.5 0.1
v -1.2 2.5 0
v -1.2 2.6 0
v -1 2.5 0
v -1 2.6 0
v -1.2 2.6 -0.1
v -1.2 2.7 -0.1
v -1 2.6 -0.1
v -1 2.7 -0.1
v -0.8 0 -0.2
v -0.8 0.1 -0.2
v -0.8 0.6 -0.2
v -0.7 0 -0.2
v -0.7 0.3 -0.2
v -0.6 0.2 -0.2
v -0.6 0.3 -0.2
v 0.6 0.2 -0.2
v 0.6 0.3 -0.2
v 0.7 0 -0.2
v 0.7 0.3 -0.2
v 0.8 0 -0.2
v 0.8 0.1 -0.2
v 0.8 0.6 -0.2
v -1.2 2.7 -0.3
v -1.2 2.9 -0.3
v -1 2.7 -0.3
v -1 2.9 -0.3
v -0.8 3.1 -0.3
v -0.8 3.9 -0.3
v 0.8 3.1 -0.3
v 0.8 3.9 -0.3
v -0.9 3.1 -0.4
v -0.9 3.9 -0.4
v -0.8 3.1 -0.4
v -0.8 3.9 -0.4
v -0.7 2.4 -0.4
v -0.7 2.5 -0.4
v -0.7 2.6 -0.4
v -0.7 2.9 -0.4
v -0.6 2.7 -0.4
v -0.6 2.9 -0.4
v -0.5 2.7 -0.4
v -0.5 2.9 -0.4
v -0.3 2.4 -0.4
v -0.3 2.5 -0.4
v -0.3 2.6 -0.4
v -0.3 2.9 -0.4
v -0.2 2.4 -0.4
v -0.2 2.7 -0.4
v -0.2 2.8 -0.4
v -0.2 2.9 -0.4
v -0.1 2.4 -0.4
v -0.1 2.6 -0.4
v 0 2.4 -0.4
v 0 2.5 -0.4
v 0.0999999 2.5 -0.4
v 0.0999999 2.6 -0.4
v 0.2 2.4 -0.4
v 0.2 2.7 -0.4
v 0.2 2.8 -0.4
v 0.2 2.9 -0.4
v 0.3 2.4 -0.4
v 0.3 2.6 -0.4
v 0.3 2.7 -0.4
v 0.3 2.9 -0.4
v 0.4 2.8 -0.4
v 0.4 2.9 -0.4
v 0.5 2.8 -0.4
v 0.5 2.9 -0.4
v 0.7 2.4 -0.4
v 0.7 2.6 -0.4
v 0.7 2.7 -0.4
v 0.7 2.9 -0.4
v 0.8 3.1 -0.4
v 0.8 3.9 -0.4
v 0.9 3.1 -0.4
v 0.9 3.9 -0.4
v -1 3.9 -0.5
v -1 4 -0.5
v -0.9 2.3 -0.5
v -0.9 3 -0.5
v -0.8 0.7 -0.5
v -0.8 1.6 -0.5
v -0.8 2.3 -0.5
v -0.8 3 -0.5
v -0.7 2.4 -0.5
v -0.7 2.9 -0.5
v -0.3 2.4 -0.5
v -0.3 2.9 -0.5
v -0.2 2.4 -0.5
v -0.2 2.9 -0.5
v 0.2 2.4 -0.5
v 0.2 2.9 -0.5
v 0.3 2.4 -0.5
v 0.3 2.9 -0.5
v 0.7 2.4 -0.5
v 0.7 2.9 -0.5
v 0.8 0.7 -0.5
v 0.8 1.6 -0.5
v 0.8 2.3 -0.5
v 0.8 3 -0.5
v 0.9 2.3 -0.5
v 0.9 3 -0.5
v 1 3.9 -0.5
v 1 4 -0.5
v -0.9 0 -0.6
v -0.9 1.6 -0.6
v -0.9 2.1 -0.6
v -0.9 2.3 -0.6
v -0.9 3 -0.6
v -0.9 3.1 -0.6
v -0.8 0 -0.6
v -0.8 0.6 -0.6
v -0.8 0.7 -0.6
v -0.8 1.6 -0.6
v 0.8 0 -0.6
v 0.8 0.6 -0.6
v 0.8 0.7 -0.6
v 0.8 1.6 -0.6
v 0.9 0 -0.6
v 0.9 1.6 -0.6
v 0.9 2.1 -0.6
v 0.9 2.3 -0.6
v 0.9 3 -0.6
v 0.9 3.1 -0.6
v -0.7 2.1 -0.9
v -0.7 2.2 -0.9
v -0.3 2.1 -0.9
v -0.3 2.2 -0.9
v -0.2 2.1 -0.9
v -0.2 2.2 -0.9
v 0.2 2.1 -0.9
v 0.2 2.2 -0.9
v 0.3 2.1 -0.9
v 0.3 2.2 -0.9
v 0.7 2.1 -0.9
v 0.7 2.2 -0.9
v -0.9 1.6 -1
v -0.9 2.1 -1
v -0.7 0 -1
v -0.7 0.4 -1
v 0.7 0 -1
v 0.7 0.4 -1
v 0.9 1.6 -1
v 0.9 2.1 -1
v -0.9 0 0.9
v 0.9 0 0.9
v -0.8 0 0.8
v 0.8 0 0.8
v -0.8 0 -0.1
v -0.7 0 -0.1
v 0.7 0 -0.1
v 0.8 0 -0.1
v -0.8 0 -0.2
v -0.7 0 -0.2
v 0.7 0 -0.2
v 0.8 0 -0.2
v -0.9 0 -0.6
v -0.8 0 -0.6
v 0.8 0 -0.6
v 0.9 0 -0.6
v -0.7 0 -1
v 0.7 0 -1
v -0.8 0.6 -0.2
v 0.8 0.6 -0.2
v -0.8 0.6 -0.5
v 0.8 0.6 -0.5
v -0.8 0.6 -0.6
v 0.8 0.6 -0.6
v -0.8 1.6 -0.5
v 0.8 1.6 -0.5
v -0.9 1.6 -0.6
v -0.8 1.6 -0.6
v 0.8 1.6 -0.6
v 0.9 1.6 -0.6
v -0.9 1.6 -1
v 0.9 1.6 -1
v -1.2 2.1 0.5
v -0.9 2.1 0.5
v -1.2 2.1 0.2
v -0.9 2.1 0.2
v -1.2 2.4 0.2
v -1 2.4 0.2
v -1.2 2.4 0.1
v -1 2.4 0.1
v -1.2 2.5 0.1
v -1 2.5 0.1
v -1.2 2.5 0
v -1 2.5 0
v -1.2 2.6 0
v -1 2.6 0
v -1.2 2.6 -0.1
v -1 2.6 -0.1
v -1.2 2.7 -0.1
v -1 2.7 -0.1
v -1.2 2.7 -0.3
v -1 2.7 -0.3
v -0.7 2.9 -0.4
v -0.6 2.9 -0.4
v -0.5 2.9 -0.4
v -0.3 2.9 -0.4
v -0.2 2.9 -0.4
v 0.2 2.9 -0.4
v 0.3 2.9 -0.4
v 0.4 2.9 -0.4
v 0.5 2.9 -0.4
v 0.7 2.9 -0.4
v -0.7 2.9 -0.5
v -0.3 2.9 -0.5
v -0.2 2.9 -0.5
v 0.2 2.9 -0.5
v 0.3 2.9 -0.5
v 0.7 2.9 -0.5
v -0.9 3 -0.5
v -0.8 3 -0.5
v 0.8 3 -0.5
v 0.9 3 -0.5
v -0.9 3 -0.6
v 0.9 3 -0.6
v -1 3.9 1
v 1 3.9 1
v -0.9 3.9 0.9
v -0.8 3.9 0.9
v 0.8 3.9 0.9
v 0.9 3.9 0.9
v -0.9 3.9 0.8
v 0.9 3.9 0.8
v -0.9 3.9 -0.3
v -0.8 3.9 -0.3
v 0.8 3.9 -0.3
v 0.9 3.9 -0.3
v -0.9 3.9 -0.4
v -0.8 3.9 -0.4
v 0.8 3.9 -0.4
v 0.9 3.9 -0.4
v -1 3.9 -0.5
v 1 3.9 -0.5
v -0.6 0.2 -0.2
v 0.6 0.2 -0.2
v -0.6 0.2 -0.9
v 0.6 0.2 -0.9
v -0.7 0.3 -0.2
v -0.6 0.3 -0.2
v 0.6 0.3 -0.2
v 0.7 0.3 -0.2
v -0.7 0.3 -0.9
v -0.6 0.3 -0.9
v 0.6 0.3 -0.9
v 0.7 0.3 -0.9
v -0.7 0.4 -0.9
v 0.7 0.4 -0.9
v -0.7 0.4 -1
v 0.7 0.4 -1
v -0.8 0.7 -0.5
v 0.8 0.7 -0.5
v -0.8 0.7 -0.6
v 0.8 0.7 -0.6
v -0.9 2.1 -0.6
v 0.9 2.1 -0.6
v -0.7 2.1 -0.7
v -0.3 2.1 -0.7
v -0.2 2.1 -0.7
v 0.2 2.1 -0.7
v 0.3 2.1 -0.7
v 0.7 2.1 -0.7
v -0.7 2.1 -0.9
v -0.3 2.1 -0.9
v -0.2 2.1 -0.9
v 0.2 2.1 -0.9
v 0.3 2.1 -0.9
v 0.7 2.1 -0.9
v -0.9 2.1 -1
v 0.9 2.1 -1
v -0.7 2.2 -0.7
v -0.3 2.2 -0.7
v -0.2 2.2 -0.7
v 0.2 2.2 -0.7
v 0.3 2.2 -0.7
v 0.7 2.2 -0.7
v -0.7 2.2 -0.9
v -0.3 2.2 -0.9
v -0.2 2.2 -0.9
v 0.2 2.2 -0.9
v 0.3 2.2 -0.9
v 0.7 2.2 -0.9
v -0.9 2.3 -0.5
v -0.8 2.3 -0.5
v 0.8 2.3 -0.5
v 0.9 2.3 -0.5
v -0.9 2.3 -0.6
v 0.9 2.3 -0.6
v -1.2 2.4 0.5
v -0.9 2.4 0.5
v -1.2 2.4 0.2
v -1 2.4 0.2
v -0.9 2.4 0.2
v -0.7 2.4 -0.4
v -0.3 2.4 -0.4
v -0.2 2.4 -0.4
v -0.1 2.4 -0.4
v 0 2.4 -0.4
v 0.2 2.4 -0.4
v 0.3 2.4 -0.4
v 0.7 2.4 -0.4
v -0.7 2.4 -0.5
v -0.3 2.4 -0.5
v -0.2 2.4 -0.5
v 0.2 2.4 -0.5
v 0.3 2.4 -0.5
v 0.7 2.4 -0.5
v -1.2 2.5 0.2
v -1 2.5 0.2
v -1.2 2.5 0.1
v -1 2.5 0.1
v -1.2 2.6 0.1
v -1 2.6 0.1
v -1.2 2.6 0
v -1 2.6 0
v -1.2 2.7 0
v -1 2.7 0
v -1.2 2.7 -0.1
v -1 2.7 -0.1
v -1.2 2.9 -0.1
v -1 2.9 -0.1
v -1.2 2.9 -0.3
v -1 2.9 -0.3
v -0.8 3.1 -0.3
v 0.8 3.1 -0.3
v -0.9 3.1 -0.4
v -0.8 3.1 -0.4
v 0.8 3.1 -0.4
v 0.9 3.1 -0.4
v -0.9 3.1 -0.6
v 0.9 3.1 -0.6
v -1 4 1
v 1 4 1
v -0.9 4 0.8
v 0.9 4 0.8
v -0.9 4 -0.3
v 0.9 4 -0.3
v -1 4 -0.5
v 1 4 -0.5

# faces
f 3/5/1 2/5/1 1/5/1
f 4/5/1 2/5/1 3/5/1
f 6/3/1 5/3/1 4/3/1
f 7/3/1 5/3/1 6/3/1
f 9/3/1 8/3/1 7/3/1
f 10/3/1 8/3/1 9/3/1
f 12/3/1 11/3/1 10/3/1
f 13/3/1 11/3/1 12/3/1
f 15/5/1 14/5/1 13/5/1
f 16/5/1 14/5/1 15/5/1
f 19/5/1 18/5/1 17/5/1
f 20/5/1 18/5/1 19/5/1
f 23/5/1 22/5/1 21/5/1
f 24/5/1 22/5/1 23/5/1
f 25/5/1 22/5/1 24/5/1
f 27/2/1 24/2/1 23/2/1
f 28/2/1 24/2/1 27/2/1
f 29/2/1 24/2/1 28/2/1
f 30/5/1 26/5/1 25/5/1
f 30/2/1 24/2/1 29/2/1
f 30/5/1 25/5/1 24/5/1
f 31/5/1 26/5/1 30/5/1
f 32/5/1 26/5/1 31/5/1
f 33/5/1 30/5/1 29/5/1
f 33/5/1 31/5/1 30/5/1
f 34/5/1 31/5/1 33/5/1
f 35/2/1 27/2/1 23/2/1
f 36/2/1 29/2/1 28/2/1
f 37/2/1 29/2/1 36/2/1
f 37/2/1 36/2/1 35/2/1
f 38/5/1 33/5/1 29/5/1
f 38/2/1 29/2/1 37/2/1
f 39/5/1 33/5/1 38/5/1
f 41/5/1 38/5/1 37/5/1
f 41/5/1 40/5/1 39/5/1
f 41/5/1 39/5/1 38/5/1
f 42/5/1 40/5/1 41/5/1
f 43/5/1 23/5/1 21/5/1
f 44/2/1 35/2/1 23/2/1
f 44/5/1 23/5/1 43/5/1
f 44/2/1 37/2/1 35/2/1
f 45/5/1 41/5/1 37/5/1
f 45/2/1 37/2/1 44/2/1
f 46/5/1 41/5/1 45/5/1
f 49/2/1 48/2/1 47/2/1
f 50/2/1 48/2/1 49/2/1
f 51/2/1 48/2/1 50/2/1
f 52/2/1 48/2/1 51/2/1
f 55/2/1 54/2/1 53/2/1
f 56/2/1 54/2/1 55/2/1
f 59/2/1 58/2/1 57/2/1
f 60/2/1 58/2/1 59/2/1
f 61/2/1 58/2/1 60/2/1
f 62/2/1 58/2/1 61/2/1
f 65/2/1 64/2/1 63/2/1
f 66/2/1 64/2/1 65/2/1
f 69/2/1 68/2/1 67/2/1
f 70/2/1 68/2/1 69/2/1
f 71/2/1 68/2/1 70/2/1
f 72/2/1 68/2/1 71/2/1
f 75/2/1 74/2/1 73/2/1
f 76/2/1 74/2/1 75/2/1
f 79/2/1 78/2/1 77/2/1
f 80/2/1 78/2/1 79/2/1
f 83/2/1 82/2/1 81/2/1
f 84/2/1 82/2/1 83/2/1
f 85/2/1 82/2/1 84/2/1
f 86/2/1 82/2/1 85/2/1
f 89/5/1 88/5/1 87/5/1
f 90/5/1 88/5/1 89/5/1
f 91/2/1 90/2/1 89/2/1
f 92/5/1 88/5/1 90/5/1
f 92/2/1 90/2/1 91/2/1
f 93/5/1 88/5/1 92/5/1
f 96/5/1 95/5/1 94/5/1
f 97/5/1 95/5/1 96/5/1
f 100/5/1 99/5/1 98/5/1
f 101/5/1 99/5/1 100/5/1
f 102/3/2 103/3/2 104/3/2
f 104/3/2 103/3/2 105/3/2
f 105/3/2 106/3/2 107/3/2
f 107/3/2 106/3/2 108/3/2
f 108/3/2 109/3/2 110/3/2
f 110/3/2 109/3/2 111/3/2
f 111/5/2 112/5/2 113/5/2
f 113/5/2 112/5/2 114/5/2
f 115/5/2 116/5/2 117/5/2
f 117/5/2 116/5/2 118/5/2
f 117/2/2 118/2/2 119/2/2
f 118/5/2 116/5/2 120/5/2
f 119/2/2 118/2/2 120/2/2
f 120/5/2 116/5/2 121/5/2
f 122/5/2 123/5/2 124/5/2
f 124/5/2 123/5/2 125/5/2
f 126/5/2 127/5/2 128/5/2
f 128/5/2 127/5/2 129/5/2
f 130/2/2 131/2/2 132/2/2
f 132/2/2 131/2/2 133/2/2
f 133/2/2 131/2/2 134/2/2
f 134/2/2 131/2/2 135/2/2
f 136/2/2 137/2/2 138/2/2
f 138/2/2 137/2/2 139/2/2
f 140/2/2 141/2/2 142/2/2
f 142/2/2 141/2/2 143/2/2
f 144/2/2 145/2/2 146/2/2
f 146/2/2 145/2/2 147/2/2
f 147/2/2 145/2/2 148/2/2
f 148/2/2 145/2/2 149/2/2
f 150/2/2 151/2/2 152/2/2
f 152/2/2 151/2/2 153/2/2
f 154/2/2 155/2/2 156/2/2
f 156/2/2 155/2/2 157/2/2
f 157/2/2 155/2/2 158/2/2
f 158/2/2 155/2/2 159/2/2
f 160/2/2 161/2/2 162/2/2
f 162/2/2 161/2/2 163/2/2
f 163/2/2 161/2/2 164/2/2
f 164/2/2 161/2/2 165/2/2
f 166/2/2 167/2/2 168/2/2
f 168/2/2 167/2/2 169/2/2
f 170/5/2 171/5/2 172/5/2
f 172/5/2 171/5/2 173/5/2
f 173/5/2 171/5/2 174/5/2
f 172/2/2 173/2/2 176/2/2
f 174/5/2 175/5/2 177/5/2
f 176/2/2 173/2/2 177/2/2
f 173/5/2 174/5/2 177/5/2
f 177/5/2 175/5/2 178/5/2
f 178/5/2 175/5/2 179/5/2
f 176/5/2 177/5/2 180/5/2
f 177/5/2 178/5/2 180/5/2
f 180/5/2 178/5/2 181/5/2
f 172/2/2 176/2/2 182/2/2
f 176/5/2 180/5/2 183/5/2
f 182/2/2 176/2/2 183/2/2
f 182/5/2 183/5/2 184/5/2
f 183/5/2 180/5/2 184/5/2
f 182/5/2 184/5/2 186/5/2
f 184/5/2 185/5/2 186/5/2
f 186/5/2 185/5/2 187/5/2
f 170/5/2 172/5/2 188/5/2
f 172/2/2 182/2/2 189/2/2
f 188/5/2 172/5/2 189/5/2
f 182/5/2 186/5/2 190/5/2
f 189/2/2 182/2/2 190/2/2
f 190/5/2 186/5/2 191/5/2
f 192/5/2 193/5/2 194/5/2
f 194/5/2 193/5/2 195/5/2
f 198/5/3 197/5/3 196/5/3
f 199/5/3 197/5/3 198/5/3
f 202/5/3 201/5/3 200/5/3
f 203/5/3 201/5/3 202/5/3
f 204/5/3 202/5/3 200/5/3
f 204/2/3 203/2/3 202/2/3
f 205/2/3 203/2/3 204/2/3
f 206/5/3 204/5/3 200/5/3
f 206/5/3 205/5/3 204/5/3
f 207/5/3 205/5/3 206/5/3
f 210/5/3 209/5/3 208/5/3
f 211/5/3 209/5/3 210/5/3
f 214/3/3 213/3/3 212/3/3
f 215/3/3 213/3/3 214/3/3
f 218/3/3 217/3/3 216/3/3
f 219/3/3 217/3/3 218/3/3
f 222/3/3 221/3/3 220/3/3
f 223/3/3 221/3/3 222/3/3
f 226/5/3 225/5/3 224/5/3
f 227/5/3 225/5/3 226/5/3
f 230/2/3 229/2/3 228/2/3
f 231/2/3 229/2/3 230/2/3
f 234/2/3 233/2/3 232/2/3
f 235/2/3 233/2/3 234/2/3
f 238/2/3 237/2/3 236/2/3
f 239/2/3 237/2/3 238/2/3
f 243/2/3 241/2/3 240/2/3
f 244/2/3 243/2/3 242/2/3
f 245/2/3 241/2/3 243/2/3
f 245/2/3 243/2/3 244/2/3
f 246/2/3 241/2/3 245/2/3
f 247/2/3 241/2/3 246/2/3
f 248/5/4 249/5/4 250/5/4
f 248/5/4 250/5/4 251/5/4
f 251/5/4 250/5/4 252/5/4
f 253/3/4 254/3/4 255/3/4
f 255/3/4 254/3/4 256/3/4
f 257/3/4 258/3/4 259/3/4
f 259/3/4 258/3/4 260/3/4
f 261/3/4 262/3/4 263/3/4
f 263/3/4 262/3/4 264/3/4
f 265/6/4 266/6/4 268/6/4
f 266/6/4 267/6/4 268/6/4
f 268/6/4 267/6/4 269/6/4
f 269/6/4 267/6/4 271/6/4
f 270/6/4 271/6/4 272/6/4
f 271/6/4 267/6/4 273/6/4
f 272/6/4 271/6/4 273/6/4
f 273/6/4 267/6/4 275/6/4
f 274/6/4 275/6/4 276/6/4
f 276/6/4 275/6/4 277/6/4
f 275/6/4 267/6/4 278/6/4
f 277/6/4 275/6/4 278/6/4
f 279/5/4 280/5/4 281/5/4
f 281/5/4 280/5/4 282/5/4
f 283/2/4 284/2/4 285/2/4
f 285/2/4 284/2/4 286/2/4
f 287/5/4 288/5/4 289/5/4
f 289/5/4 288/5/4 290/5/4
f 293/1/4 294/1/4 295/1/4
f 295/1/4 294/1/4 296/1/4
f 293/1/4 295/1/4 297/1/4
f 295/3/4 296/3/4 297/3/4
f 297/3/4 296/3/4 298/3/4
f 291/1/4 292/1/4 299/1/4
f 292/4/4 293/4/4 300/4/4
f 299/1/4 292/1/4 300/1/4
f 293/1/4 297/1/4 301/1/4
f 300/4/4 293/4/4 301/4/4
f 297/1/4 298/1/4 301/1/4
f 301/1/4 298/1/4 302/1/4
f 303/1/4 304/1/4 307/1/4
f 307/1/4 304/1/4 308/1/4
f 307/3/4 308/3/4 309/3/4
f 309/3/4 308/3/4 310/3/4
f 309/1/4 310/1/4 311/1/4
f 310/3/4 308/3/4 311/3/4
f 308/1/4 304/1/4 312/1/4
f 311/3/4 308/3/4 312/3/4
f 309/1/4 311/1/4 313/1/4
f 311/1/4 312/1/4 313/1/4
f 304/4/4 305/4/4 314/4/4
f 313/1/4 312/1/4 314/1/4
f 312/1/4 304/1/4 314/1/4
f 305/1/4 306/1/4 315/1/4
f 314/4/4 305/4/4 315/4/4
f 315/1/4 306/1/4 316/1/4
f 319/1/4 320/1/4 321/1/4
f 321/1/4 320/1/4 322/1/4
f 319/1/4 321/1/4 323/1/4
f 321/3/4 322/3/4 323/3/4
f 323/3/4 322/3/4 324/3/4
f 317/1/4 318/1/4 325/1/4
f 318/4/4 319/4/4 326/4/4
f 325/1/4 318/1/4 326/1/4
f 319/1/4 323/1/4 327/1/4
f 326/4/4 319/4/4 327/4/4
f 323/1/4 324/1/4 327/1/4
f 327/1/4 324/1/4 328/1/4
f 329/5/4 330/5/4 331/5/4
f 331/5/4 330/5/4 332/5/4
f 335/5/4 336/5/4 339/5/4
f 339/5/4 336/5/4 340/5/4
f 339/2/4 340/2/4 341/2/4
f 341/2/4 340/2/4 342/2/4
f 339/2/4 341/2/4 343/2/4
f 342/2/4 340/2/4 344/2/4
f 339/2/4 343/2/4 345/2/4
f 343/2/4 344/2/4 345/2/4
f 344/2/4 340/2/4 346/2/4
f 345/2/4 344/2/4 346/2/4
f 339/2/4 345/2/4 347/2/4
f 346/2/4 340/2/4 348/2/4
f 339/2/4 347/2/4 349/2/4
f 347/2/4 348/2/4 349/2/4
f 348/2/4 340/2/4 350/2/4
f 349/2/4 348/2/4 350/2/4
f 339/2/4 349/2/4 351/2/4
f 350/2/4 340/2/4 352/2/4
f 337/2/4 338/2/4 353/2/4
f 353/2/4 338/2/4 354/2/4
f 351/2/4 352/2/4 355/2/4
f 339/2/4 351/2/4 355/2/4
f 352/2/4 340/2/4 356/2/4
f 355/2/4 352/2/4 356/2/4
f 355/5/4 356/5/4 357/5/4
f 357/5/4 356/5/4 358/5/4
f 333/5/4 334/5/4 359/5/4
f 359/5/4 334/5/4 360/5/4
f 361/5/4 362/5/4 367/5/4
f 367/5/4 362/5/4 368/5/4
f 368/5/4 362/5/4 369/5/4
f 369/5/4 362/5/4 370/5/4
f 368/5/4 369/5/4 372/5/4
f 372/5/4 369/5/4 373/5/4
f 371/5/4 372/5/4 375/5/4
f 373/5/4 374/5/4 375/5/4
f 372/5/4 373/5/4 375/5/4
f 375/5/4 374/5/4 376/5/4
f 363/5/4 364/5/4 377/5/4
f 377/5/4 364/5/4 378/5/4
f 365/5/4 366/5/4 379/5/4
f 379/5/4 366/5/4 380/5/4
f 381/2/4 382/2/4 383/2/4
f 383/2/4 382/2/4 384/2/4
f 385/2/4 386/2/4 387/2/4
f 387/2/4 386/2/4 388/2/4
f 389/2/4 390/2/4 391/2/4
f 391/2/4 390/2/4 392/2/4
f 395/2/4 396/2/4 397/2/4
f 397/2/4 396/2/4 398/2/4
f 393/5/4 394/5/4 399/5/4
f 399/5/4 394/5/4 400/5/4
f 403/5/5 402/5/5 401/5/5
f 404/5/5 402/5/5 403/5/5
f 405/5/5 403/5/5 401/5/5
f 405/2/5 404/2/5 403/2/5
f 406/2/5 404/2/5 405/2/5
f 407/2/5 404/2/5 406/2/5
f 408/5/5 402/5/5 404/5/5
f 408/2/5 404/2/5 407/2/5
f 409/5/5 405/5/5 401/5/5
f 409/6/5 406/6/5 405/6/5
f 410/2/5 407/2/5 406/2/5
f 410/6/5 406/6/5 409/6/5
f 411/6/5 408/6/5 407/6/5
f 411/2/5 407/2/5 410/2/5
f 412/5/5 402/5/5 408/5/5
f 412/6/5 408/6/5 411/6/5
f 413/5/5 409/5/5 401/5/5
f 414/5/5 409/5/5 413/5/5
f 415/5/5 402/5/5 412/5/5
f 416/5/5 402/5/5 415/5/5
f 417/2/5 411/2/5 410/2/5
f 418/2/5 411/2/5 417/2/5
f 421/6/5 420/6/5 419/6/5
f 422/6/5 420/6/5 421/6/5
f 423/5/5 422/5/5 421/5/5
f 424/5/5 422/5/5 423/5/5
f 428/5/5 426/5/5 425/5/5
f 429/5/5 426/5/5 428/5/5
f 431/5/5 428/5/5 427/5/5
f 431/5/5 430/5/5 429/5/5
f 431/5/5 429/5/5 428/5/5
f 432/5/5 430/5/5 431/5/5
f 435/5/5 434/5/5 433/5/5
f 436/5/5 434/5/5 435/5/5
f 439/3/5 438/3/5 437/3/5
f 440/3/5 438/3/5 439/3/5
f 443/3/5 442/3/5 441/3/5
f 444/3/5 442/3/5 443/3/5
f 447/3/5 446/3/5 445/3/5
f 448/3/5 446/3/5 447/3/5
f 451/5/5 450/5/5 449/5/5
f 452/5/5 450/5/5 451/5/5
f 463/2/5 454/2/5 453/2/5
f 463/2/5 455/2/5 454/2/5
f 463/2/5 456/2/5 455/2/5
f 464/2/5 456/2/5 463/2/5
f 465/2/5 458/2/5 457/2/5
f 466/2/5 458/2/5 465/2/5
f 467/2/5 462/2/5 461/2/5
f 467/2/5 461/2/5 460/2/5
f 467/2/5 460/2/5 459/2/5
f 468/2/5 462/2/5 467/2/5
f 473/5/5 470/5/5 469/5/5
f 473/5/5 472/5/5 471/5/5
f 473/5/5 471/5/5 470/5/5
f 474/5/5 472/5/5 473/5/5
f 477/5/5 476/5/5 475/5/5
f 478/5/5 476/5/5 477/5/5
f 479/5/5 476/5/5 478/5/5
f 480/5/5 476/5/5 479/5/5
f 481/5/5 477/5/5 475/5/5
f 482/5/5 476/5/5 480/5/5
f 483/5/5 481/5/5 475/5/5
f 486/5/5 476/5/5 482/5/5
f 487/5/5 483/5/5 475/5/5
f 488/5/5 485/5/5 484/5/5
f 489/5/5 485/5/5 488/5/5
f 490/5/5 476/5/5 486/5/5
f 491/5/5 487/5/5 475/5/5
f 491/5/5 490/5/5 489/5/5
f 491/5/5 489/5/5 488/5/5
f 491/5/5 488/5/5 487/5/5
f 492/5/5 476/5/5 490/5/5
f 492/5/5 490/5/5 491/5/5
f 493/6/6 494/6/6 495/6/6
f 495/6/6 494/6/6 496/6/6
f 497/2/6 498/2/6 501/2/6
f 501/2/6 498/2/6 502/2/6
f 499/2/6 500/2/6 503/2/6
f 503/2/6 500/2/6 504/2/6
f 505/2/6 506/2/6 507/2/6
f 507/2/6 506/2/6 508/2/6
f 509/5/6 510/5/6 511/5/6
f 511/5/6 510/5/6 512/5/6
f 513/5/6 514/5/6 515/5/6
f 515/5/6 514/5/6 516/5/6
f 516/5/6 514/5/6 517/5/6
f 517/5/6 514/5/6 518/5/6
f 518/5/6 514/5/6 519/5/6
f 519/5/6 514/5/6 520/5/6
f 513/5/6 515/5/6 521/5/6
f 516/5/6 517/5/6 522/5/6
f 522/5/6 517/5/6 523/5/6
f 518/5/6 519/5/6 524/5/6
f 524/5/6 519/5/6 525/5/6
f 520/5/6 514/5/6 526/5/6
f 524/5/6 525/5/6 527/5/6
f 525/5/6 526/5/6 527/5/6
f 522/5/6 523/5/6 527/5/6
f 513/5/6 521/5/6 527/5/6
f 523/5/6 524/5/6 527/5/6
f 521/5/6 522/5/6 527/5/6
f 526/5/6 514/5/6 528/5/6
f 527/5/6 526/5/6 528/5/6
f 529/2/6 530/2/6 535/2/6
f 535/2/6 530/2/6 536/2/6
f 531/2/6 532/2/6 537/2/6
f 537/2/6 532/2/6 538/2/6
f 533/2/6 534/2/6 539/2/6
f 539/2/6 534/2/6 540/2/6
f 541/5/6 542/5/6 545/5/6
f 543/5/6 544/5/6 545/5/6
f 542/5/6 543/5/6 545/5/6
f 545/5/6 544/5/6 546/5/6
f 547/5/6 548/5/6 549/5/6
f 549/5/6 548/5/6 550/5/6
f 550/5/6 548/5/6 551/5/6
f 552/2/6 553/2/6 560/2/6
f 560/2/6 553/2/6 561/2/6
f 554/2/6 555/2/6 562/2/6
f 555/2/6 556/2/6 562/2/6
f 556/2/6 557/2/6 562/2/6
f 562/2/6 557/2/6 563/2/6
f 558/2/6 559/2/6 564/2/6
f 564/2/6 559/2/6 565/2/6
f 566/3/6 567/3/6 568/3/6
f 568/3/6 567/3/6 569/3/6
f 570/3/6 571/3/6 572/3/6
f 572/3/6 571/3/6 573/3/6
f 574/3/6 575/3/6 576/3/6
f 576/3/6 575/3/6 577/3/6
f 578/5/6 579/5/6 580/5/6
f 580/5/6 579/5/6 581/5/6
f 582/5/6 583/5/6 585/5/6
f 585/5/6 583/5/6 586/5/6
f 584/5/6 585/5/6 588/5/6
f 586/5/6 587/5/6 588/5/6
f 585/5/6 586/5/6 588/5/6
f 588/5/6 587/5/6 589/5/6
f 590/5/6 591/5/6 592/5/6
f 592/5/6 591/5/6 593/5/6
f 590/5/6 592/5/6 594/5/6
f 592/2/6 593/2/6 594/2/6
f 593/5/6 591/5/6 595/5/6
f 594/2/6 593/2/6 595/2/6
f 590/5/6 594/5/6 596/5/6
f 594/5/6 595/5/6 596/5/6
f 595/5/6 591/5/6 597/5/6
f 596/5/6 595/5/6 597/5/6
