# MagicaVoxel @ Ephtracy

# group
g square_poker_table

# material
mtllib square_poker_table.mtl
usemtl palette

# normals
vn -1 0 0
vn 1 0 0
vn 0 0 1
vn 0 0 -1
vn 0 -1 0
vn 0 1 0

# texcoords
vt 0.978516 0.5
vt 0.986328 0.5
vt 0.990234 0.5

# verts
v -14 25 13
v -14 25 -14
v -14 27 13
v -14 27 -14
v -6 0 5
v -6 0 -6
v -6 2 5
v -6 2 -6
v -3 2 2
v -3 2 -3
v -3 25 2
v -3 25 -3
v 3 2 2
v 3 2 -3
v 3 25 2
v 3 25 -3
v 6 0 5
v 6 0 -6
v 6 2 5
v 6 2 -6
v 14 25 13
v 14 25 -14
v 14 27 13
v 14 27 -14
v -14 25 13
v -14 27 13
v 14 25 13
v 14 27 13
v -6 0 5
v -6 2 5
v 6 0 5
v 6 2 5
v -3 2 2
v -3 25 2
v 3 2 2
v 3 25 2
v -3 2 -3
v -3 25 -3
v 3 2 -3
v 3 25 -3
v -6 0 -6
v -6 2 -6
v 6 0 -6
v 6 2 -6
v -14 25 -14
v -14 27 -14
v 14 25 -14
v 14 27 -14
v -6 0 5
v 6 0 5
v -6 0 -6
v 6 0 -6
v -14 25 13
v 14 25 13
v -13 25 12
v 13 25 12
v -3 25 2
v 3 25 2
v -3 25 -3
v 3 25 -3
v -13 25 -13
v 13 25 -13
v -14 25 -14
v 14 25 -14
v -6 2 5
v 6 2 5
v -3 2 2
v 3 2 2
v -3 2 -3
v 3 2 -3
v -6 2 -6
v 6 2 -6
v -14 27 13
v 14 27 13
v -11 27 10
v 11 27 10
v -11 27 -11
v 11 27 -11
v -14 27 -14
v 14 27 -14

# faces
f 3/2/1 2/2/1 1/2/1
f 4/2/1 2/2/1 3/2/1
f 7/3/1 6/3/1 5/3/1
f 8/3/1 6/3/1 7/3/1
f 11/3/1 10/3/1 9/3/1
f 12/3/1 10/3/1 11/3/1
f 13/3/2 14/3/2 15/3/2
f 15/3/2 14/3/2 16/3/2
f 17/3/2 18/3/2 19/3/2
f 19/3/2 18/3/2 20/3/2
f 21/2/2 22/2/2 23/2/2
f 23/2/2 22/2/2 24/2/2
f 27/2/3 26/2/3 25/2/3
f 28/2/3 26/2/3 27/2/3
f 31/3/3 30/3/3 29/3/3
f 32/3/3 30/3/3 31/3/3
f 35/3/3 34/3/3 33/3/3
f 36/3/3 34/3/3 35/3/3
f 37/3/4 38/3/4 39/3/4
f 39/3/4 38/3/4 40/3/4
f 41/3/4 42/3/4 43/3/4
f 43/3/4 42/3/4 44/3/4
f 45/2/4 46/2/4 47/2/4
f 47/2/4 46/2/4 48/2/4
f 51/3/5 50/3/5 49/3/5
f 52/3/5 50/3/5 51/3/5
f 55/2/5 54/2/5 53/2/5
f 56/2/5 54/2/5 55/2/5
f 57/3/5 56/3/5 55/3/5
f 58/3/5 56/3/5 57/3/5
f 59/3/5 57/3/5 55/3/5
f 60/3/5 56/3/5 58/3/5
f 61/2/5 55/2/5 53/2/5
f 61/3/5 60/3/5 59/3/5
f 61/3/5 59/3/5 55/3/5
f 62/3/5 56/3/5 60/3/5
f 62/3/5 60/3/5 61/3/5
f 62/2/5 54/2/5 56/2/5
f 63/2/5 61/2/5 53/2/5
f 63/2/5 62/2/5 61/2/5
f 64/2/5 54/2/5 62/2/5
f 64/2/5 62/2/5 63/2/5
f 65/3/6 66/3/6 67/3/6
f 67/3/6 66/3/6 68/3/6
f 65/3/6 67/3/6 69/3/6
f 68/3/6 66/3/6 70/3/6
f 65/3/6 69/3/6 71/3/6
f 69/3/6 70/3/6 71/3/6
f 70/3/6 66/3/6 72/3/6
f 71/3/6 70/3/6 72/3/6
f 73/2/6 74/2/6 75/2/6
f 75/2/6 74/2/6 76/2/6
f 73/2/6 75/2/6 77/2/6
f 75/1/6 76/1/6 77/1/6
f 76/2/6 74/2/6 78/2/6
f 77/1/6 76/1/6 78/1/6
f 73/2/6 77/2/6 79/2/6
f 77/2/6 78/2/6 79/2/6
f 78/2/6 74/2/6 80/2/6
f 79/2/6 78/2/6 80/2/6
