# MagicaVoxel @ Ephtracy

# group
o 

# material
mtllib streetsign-stop.mtl
usemtl palette

# normals
vn -1 0 0
vn 1 0 0
vn 0 0 1
vn 0 0 -1
vn 0 -1 0
vn 0 1 0

# texcoords
vt 0.962891 0.5
vt 0.966797 0.5
vt 0.978516 0.5
vt 0.986328 0.5

# verts
v 0 4.9 0
v 0 4.9 -0.1
v 0 5.4 0
v 0 5.4 -0.1
v 0.1 4.7 0
v 0.1 4.7 -0.1
v 0.1 4.9 0
v 0.1 4.9 -0.1
v 0.1 5.4 0
v 0.1 5.4 -0.1
v 0.1 5.6 0
v 0.1 5.6 -0.1
v 0.2 4.6 0
v 0.2 4.6 -0.1
v 0.2 4.7 0
v 0.2 4.7 -0.1
v 0.2 5.6 0
v 0.2 5.6 -0.1
v 0.2 5.7 0
v 0.2 5.7 -0.1
v 0.3 4.5 0
v 0.3 4.5 -0.1
v 0.3 4.6 0
v 0.3 4.6 -0.1
v 0.3 5.7 0
v 0.3 5.7 -0.1
v 0.3 5.8 0
v 0.3 5.8 -0.1
v 0.5 4.4 0
v 0.5 4.4 -0.1
v 0.5 4.5 0
v 0.5 4.5 -0.1
v 0.5 5.8 0
v 0.5 5.8 -0.1
v 0.5 5.9 0
v 0.5 5.9 -0.1
v 0.7 2 -0.1
v 0.7 2 -0.2
v 0.7 4.4 -0.1
v 0.7 4.6 -0.1
v 0.7 4.7 -0.1
v 0.7 4.9 -0.1
v 0.7 5.3 -0.1
v 0.7 5.4 -0.1
v 0.7 5.5 -0.1
v 0.7 5.7 -0.1
v 0.7 5.9 -0.1
v 0.7 6 -0.1
v 0.7 6 -0.2
v 0.8 2 -0.1
v 0.8 2 -0.2
v 0.8 4.4 -0.1
v 0.8 4.6 -0.1
v 0.8 4.7 -0.1
v 0.8 4.9 -0.1
v 0.8 5.3 -0.1
v 0.8 5.4 -0.1
v 0.8 5.5 -0.1
v 0.8 5.7 -0.1
v 0.8 5.9 -0.1
v 0.8 6 -0.1
v 0.8 6 -0.2
v 1 4.4 0
v 1 4.4 -0.1
v 1 4.5 0
v 1 4.5 -0.1
v 1 5.8 0
v 1 5.8 -0.1
v 1 5.9 0
v 1 5.9 -0.1
v 1.2 4.5 0
v 1.2 4.5 -0.1
v 1.2 4.6 0
v 1.2 4.6 -0.1
v 1.2 5.7 0
v 1.2 5.7 -0.1
v 1.2 5.8 0
v 1.2 5.8 -0.1
v 1.3 4.6 0
v 1.3 4.6 -0.1
v 1.3 4.7 0
v 1.3 4.7 -0.1
v 1.3 5.6 0
v 1.3 5.6 -0.1
v 1.3 5.7 0
v 1.3 5.7 -0.1
v 1.4 4.7 0
v 1.4 4.7 -0.1
v 1.4 4.9 0
v 1.4 4.9 -0.1
v 1.4 5.4 0
v 1.4 5.4 -0.1
v 1.4 5.6 0
v 1.4 5.6 -0.1
v 1.5 4.9 0
v 1.5 4.9 -0.1
v 1.5 5.4 0
v 1.5 5.4 -0.1
v 0 4.9 0
v 0 5.4 0
v 0.1 4.7 0
v 0.1 4.9 0
v 0.1 5.4 0
v 0.1 5.6 0
v 0.2 4.6 0
v 0.2 4.7 0
v 0.2 4.9 0
v 0.2 5 0
v 0.2 5.1 0
v 0.2 5.3 0
v 0.2 5.4 0
v 0.2 5.6 0
v 0.2 5.7 0
v 0.3 4.5 0
v 0.3 4.6 0
v 0.3 4.8 0
v 0.3 4.9 0
v 0.3 5 0
v 0.3 5.1 0
v 0.3 5.2 0
v 0.3 5.3 0
v 0.3 5.4 0
v 0.3 5.7 0
v 0.3 5.8 0
v 0.4 4.7 0
v 0.4 4.8 0
v 0.4 4.9 0
v 0.4 5.1 0
v 0.4 5.2 0
v 0.4 5.3 0
v 0.4 5.4 0
v 0.4 5.5 0
v 0.4 5.6 0
v 0.5 4.4 0
v 0.5 4.5 0
v 0.5 4.6 0
v 0.5 4.7 0
v 0.5 4.9 0
v 0.5 5.1 0
v 0.5 5.2 0
v 0.5 5.3 0
v 0.5 5.6 0
v 0.5 5.7 0
v 0.5 5.8 0
v 0.5 5.9 0
v 0.6 4.7 0
v 0.6 4.9 0
v 0.6 5.1 0
v 0.6 5.2 0
v 0.7 4.6 0
v 0.7 4.7 0
v 0.7 4.9 0
v 0.7 5.3 0
v 0.8 4.6 0
v 0.8 4.7 0
v 0.8 4.9 0
v 0.8 5.3 0
v 0.9 4.7 0
v 0.9 4.9 0
v 1 4.4 0
v 1 4.5 0
v 1 4.6 0
v 1 4.7 0
v 1 4.9 0
v 1 5.1 0
v 1 5.3 0
v 1 5.6 0
v 1 5.7 0
v 1 5.8 0
v 1 5.9 0
v 1.1 4.7 0
v 1.1 4.8 0
v 1.1 4.9 0
v 1.1 5.1 0
v 1.1 5.3 0
v 1.1 5.4 0
v 1.1 5.5 0
v 1.1 5.6 0
v 1.2 4.5 0
v 1.2 4.6 0
v 1.2 4.8 0
v 1.2 4.9 0
v 1.2 5.1 0
v 1.2 5.3 0
v 1.2 5.4 0
v 1.2 5.7 0
v 1.2 5.8 0
v 1.3 4.6 0
v 1.3 4.7 0
v 1.3 4.9 0
v 1.3 5.1 0
v 1.3 5.3 0
v 1.3 5.4 0
v 1.3 5.6 0
v 1.3 5.7 0
v 1.4 4.7 0
v 1.4 4.9 0
v 1.4 5.4 0
v 1.4 5.6 0
v 1.5 4.9 0
v 1.5 5.4 0
v 0.7 2 -0.1
v 0.7 4.4 -0.1
v 0.7 5.9 -0.1
v 0.7 6 -0.1
v 0.8 2 -0.1
v 0.8 4.4 -0.1
v 0.8 5.9 -0.1
v 0.8 6 -0.1
v 0 4.9 -0.1
v 0 5.4 -0.1
v 0.1 4.7 -0.1
v 0.1 4.9 -0.1
v 0.1 5.4 -0.1
v 0.1 5.6 -0.1
v 0.2 4.6 -0.1
v 0.2 4.7 -0.1
v 0.2 4.9 -0.1
v 0.2 5 -0.1
v 0.2 5.1 -0.1
v 0.2 5.3 -0.1
v 0.2 5.4 -0.1
v 0.2 5.6 -0.1
v 0.2 5.7 -0.1
v 0.3 4.5 -0.1
v 0.3 4.6 -0.1
v 0.3 4.8 -0.1
v 0.3 4.9 -0.1
v 0.3 5 -0.1
v 0.3 5.1 -0.1
v 0.3 5.2 -0.1
v 0.3 5.3 -0.1
v 0.3 5.4 -0.1
v 0.3 5.7 -0.1
v 0.3 5.8 -0.1
v 0.4 4.7 -0.1
v 0.4 4.8 -0.1
v 0.4 4.9 -0.1
v 0.4 5.1 -0.1
v 0.4 5.2 -0.1
v 0.4 5.3 -0.1
v 0.4 5.4 -0.1
v 0.4 5.5 -0.1
v 0.4 5.6 -0.1
v 0.5 4.4 -0.1
v 0.5 4.5 -0.1
v 0.5 4.6 -0.1
v 0.5 4.7 -0.1
v 0.5 4.9 -0.1
v 0.5 5.1 -0.1
v 0.5 5.2 -0.1
v 0.5 5.3 -0.1
v 0.5 5.6 -0.1
v 0.5 5.7 -0.1
v 0.5 5.8 -0.1
v 0.5 5.9 -0.1
v 0.6 4.7 -0.1
v 0.6 4.9 -0.1
v 0.6 5.1 -0.1
v 0.6 5.2 -0.1
v 0.7 4.4 -0.1
v 0.7 4.6 -0.1
v 0.7 4.7 -0.1
v 0.7 4.9 -0.1
v 0.7 5.3 -0.1
v 0.7 5.4 -0.1
v 0.7 5.5 -0.1
v 0.7 5.7 -0.1
v 0.7 5.9 -0.1
v 0.8 4.4 -0.1
v 0.8 4.6 -0.1
v 0.8 4.7 -0.1
v 0.8 4.9 -0.1
v 0.8 5.3 -0.1
v 0.8 5.4 -0.1
v 0.8 5.5 -0.1
v 0.8 5.7 -0.1
v 0.8 5.9 -0.1
v 0.9 4.7 -0.1
v 0.9 4.9 -0.1
v 1 4.4 -0.1
v 1 4.5 -0.1
v 1 4.6 -0.1
v 1 4.7 -0.1
v 1 4.9 -0.1
v 1 5.1 -0.1
v 1 5.3 -0.1
v 1 5.6 -0.1
v 1 5.7 -0.1
v 1 5.8 -0.1
v 1 5.9 -0.1
v 1.1 4.7 -0.1
v 1.1 4.8 -0.1
v 1.1 4.9 -0.1
v 1.1 5.1 -0.1
v 1.1 5.3 -0.1
v 1.1 5.4 -0.1
v 1.1 5.5 -0.1
v 1.1 5.6 -0.1
v 1.2 4.5 -0.1
v 1.2 4.6 -0.1
v 1.2 4.8 -0.1
v 1.2 4.9 -0.1
v 1.2 5.1 -0.1
v 1.2 5.3 -0.1
v 1.2 5.4 -0.1
v 1.2 5.7 -0.1
v 1.2 5.8 -0.1
v 1.3 4.6 -0.1
v 1.3 4.7 -0.1
v 1.3 4.9 -0.1
v 1.3 5.1 -0.1
v 1.3 5.3 -0.1
v 1.3 5.4 -0.1
v 1.3 5.6 -0.1
v 1.3 5.7 -0.1
v 1.4 4.7 -0.1
v 1.4 4.9 -0.1
v 1.4 5.4 -0.1
v 1.4 5.6 -0.1
v 1.5 4.9 -0.1
v 1.5 5.4 -0.1
v 0.7 2 -0.2
v 0.7 6 -0.2
v 0.8 2 -0.2
v 0.8 6 -0.2
v 0.7 2 -0.1
v 0.8 2 -0.1
v 0.7 2 -0.2
v 0.8 2 -0.2
v 0.5 4.4 0
v 1 4.4 0
v 0.5 4.4 -0.1
v 0.7 4.4 -0.1
v 0.8 4.4 -0.1
v 1 4.4 -0.1
v 0.3 4.5 0
v 0.5 4.5 0
v 1 4.5 0
v 1.2 4.5 0
v 0.3 4.5 -0.1
v 0.5 4.5 -0.1
v 1 4.5 -0.1
v 1.2 4.5 -0.1
v 0.2 4.6 0
v 0.3 4.6 0
v 1.2 4.6 0
v 1.3 4.6 0
v 0.2 4.6 -0.1
v 0.3 4.6 -0.1
v 1.2 4.6 -0.1
v 1.3 4.6 -0.1
v 0.1 4.7 0
v 0.2 4.7 0
v 1.3 4.7 0
v 1.4 4.7 0
v 0.1 4.7 -0.1
v 0.2 4.7 -0.1
v 1.3 4.7 -0.1
v 1.4 4.7 -0.1
v 0 4.9 0
v 0.1 4.9 0
v 1.4 4.9 0
v 1.5 4.9 0
v 0 4.9 -0.1
v 0.1 4.9 -0.1
v 1.4 4.9 -0.1
v 1.5 4.9 -0.1
v 0 5.4 0
v 0.1 5.4 0
v 1.4 5.4 0
v 1.5 5.4 0
v 0 5.4 -0.1
v 0.1 5.4 -0.1
v 1.4 5.4 -0.1
v 1.5 5.4 -0.1
v 0.1 5.6 0
v 0.2 5.6 0
v 1.3 5.6 0
v 1.4 5.6 0
v 0.1 5.6 -0.1
v 0.2 5.6 -0.1
v 1.3 5.6 -0.1
v 1.4 5.6 -0.1
v 0.2 5.7 0
v 0.3 5.7 0
v 1.2 5.7 0
v 1.3 5.7 0
v 0.2 5.7 -0.1
v 0.3 5.7 -0.1
v 1.2 5.7 -0.1
v 1.3 5.7 -0.1
v 0.3 5.8 0
v 0.5 5.8 0
v 1 5.8 0
v 1.2 5.8 0
v 0.3 5.8 -0.1
v 0.5 5.8 -0.1
v 1 5.8 -0.1
v 1.2 5.8 -0.1
v 0.5 5.9 0
v 1 5.9 0
v 0.5 5.9 -0.1
v 0.7 5.9 -0.1
v 0.8 5.9 -0.1
v 1 5.9 -0.1
v 0.7 6 -0.1
v 0.8 6 -0.1
v 0.7 6 -0.2
v 0.8 6 -0.2

# faces
f 3/3/1 2/3/1 1/3/1
f 4/3/1 2/3/1 3/3/1
f 7/3/1 6/3/1 5/3/1
f 8/3/1 6/3/1 7/3/1
f 11/3/1 10/3/1 9/3/1
f 12/3/1 10/3/1 11/3/1
f 15/3/1 14/3/1 13/3/1
f 16/3/1 14/3/1 15/3/1
f 19/3/1 18/3/1 17/3/1
f 20/3/1 18/3/1 19/3/1
f 23/3/1 22/3/1 21/3/1
f 24/3/1 22/3/1 23/3/1
f 27/3/1 26/3/1 25/3/1
f 28/3/1 26/3/1 27/3/1
f 31/3/1 30/3/1 29/3/1
f 32/3/1 30/3/1 31/3/1
f 35/3/1 34/3/1 33/3/1
f 36/3/1 34/3/1 35/3/1
f 39/1/1 38/1/1 37/1/1
f 40/1/1 38/1/1 39/1/1
f 41/1/1 38/1/1 40/1/1
f 42/1/1 38/1/1 41/1/1
f 43/1/1 38/1/1 42/1/1
f 44/1/1 38/1/1 43/1/1
f 45/1/1 38/1/1 44/1/1
f 46/1/1 38/1/1 45/1/1
f 47/1/1 38/1/1 46/1/1
f 48/1/1 38/1/1 47/1/1
f 49/1/1 38/1/1 48/1/1
f 50/1/2 51/1/2 52/1/2
f 52/1/2 51/1/2 53/1/2
f 53/1/2 51/1/2 54/1/2
f 54/1/2 51/1/2 55/1/2
f 55/1/2 51/1/2 56/1/2
f 56/1/2 51/1/2 57/1/2
f 57/1/2 51/1/2 58/1/2
f 58/1/2 51/1/2 59/1/2
f 59/1/2 51/1/2 60/1/2
f 60/1/2 51/1/2 61/1/2
f 61/1/2 51/1/2 62/1/2
f 63/3/2 64/3/2 65/3/2
f 65/3/2 64/3/2 66/3/2
f 67/3/2 68/3/2 69/3/2
f 69/3/2 68/3/2 70/3/2
f 71/3/2 72/3/2 73/3/2
f 73/3/2 72/3/2 74/3/2
f 75/3/2 76/3/2 77/3/2
f 77/3/2 76/3/2 78/3/2
f 79/3/2 80/3/2 81/3/2
f 81/3/2 80/3/2 82/3/2
f 83/3/2 84/3/2 85/3/2
f 85/3/2 84/3/2 86/3/2
f 87/3/2 88/3/2 89/3/2
f 89/3/2 88/3/2 90/3/2
f 91/3/2 92/3/2 93/3/2
f 93/3/2 92/3/2 94/3/2
f 95/3/2 96/3/2 97/3/2
f 97/3/2 96/3/2 98/3/2
f 102/3/3 100/3/3 99/3/3
f 103/3/3 100/3/3 102/3/3
f 106/3/3 102/3/3 101/3/3
f 106/3/3 104/3/3 103/3/3
f 106/3/3 103/3/3 102/3/3
f 107/3/3 104/3/3 106/3/3
f 108/3/3 104/3/3 107/3/3
f 109/3/3 104/3/3 108/3/3
f 110/3/3 104/3/3 109/3/3
f 111/3/3 104/3/3 110/3/3
f 112/3/3 104/3/3 111/3/3
f 115/3/3 106/3/3 105/3/3
f 115/3/3 107/3/3 106/3/3
f 116/3/3 107/3/3 115/3/3
f 117/4/3 108/4/3 107/4/3
f 117/3/3 107/3/3 116/3/3
f 118/2/3 109/2/3 108/2/3
f 118/4/3 108/4/3 117/4/3
f 119/4/3 110/4/3 109/4/3
f 119/2/3 109/2/3 118/2/3
f 120/4/3 110/4/3 119/4/3
f 121/2/3 111/2/3 110/2/3
f 121/4/3 110/4/3 120/4/3
f 122/3/3 113/3/3 112/3/3
f 122/2/3 111/2/3 121/2/3
f 122/3/3 112/3/3 111/3/3
f 123/3/3 113/3/3 122/3/3
f 125/3/3 116/3/3 115/3/3
f 125/3/3 115/3/3 114/3/3
f 126/2/3 117/2/3 116/2/3
f 126/3/3 116/3/3 125/3/3
f 127/4/3 119/4/3 118/4/3
f 127/2/3 117/2/3 126/2/3
f 127/4/3 118/4/3 117/4/3
f 128/2/3 120/2/3 119/2/3
f 128/4/3 119/4/3 127/4/3
f 129/4/3 121/4/3 120/4/3
f 129/2/3 120/2/3 128/2/3
f 130/3/3 124/3/3 123/3/3
f 130/4/3 121/4/3 129/4/3
f 130/3/3 122/3/3 121/3/3
f 130/3/3 123/3/3 122/3/3
f 131/3/3 124/3/3 130/3/3
f 132/3/3 124/3/3 131/3/3
f 133/3/3 124/3/3 132/3/3
f 135/3/3 125/3/3 114/3/3
f 136/3/3 125/3/3 135/3/3
f 137/2/3 128/2/3 127/2/3
f 137/3/3 125/3/3 136/3/3
f 137/2/3 126/2/3 125/2/3
f 137/2/3 127/2/3 126/2/3
f 138/2/3 128/2/3 137/2/3
f 139/3/3 129/3/3 128/3/3
f 139/2/3 128/2/3 138/2/3
f 139/3/3 130/3/3 129/3/3
f 140/3/3 130/3/3 139/3/3
f 141/2/3 131/2/3 130/2/3
f 141/3/3 130/3/3 140/3/3
f 142/3/3 124/3/3 133/3/3
f 142/2/3 133/2/3 132/2/3
f 143/3/3 124/3/3 142/3/3
f 144/3/3 124/3/3 143/3/3
f 146/2/3 138/2/3 137/2/3
f 146/2/3 137/2/3 136/2/3
f 147/3/3 139/3/3 138/3/3
f 147/2/3 138/2/3 146/2/3
f 148/2/3 140/2/3 139/2/3
f 148/3/3 139/3/3 147/3/3
f 149/4/3 141/4/3 140/4/3
f 149/2/3 140/2/3 148/2/3
f 150/3/3 136/3/3 135/3/3
f 150/3/3 135/3/3 134/3/3
f 150/2/3 146/2/3 136/2/3
f 151/3/3 147/3/3 146/3/3
f 151/2/3 146/2/3 150/2/3
f 152/4/3 149/4/3 148/4/3
f 152/3/3 147/3/3 151/3/3
f 152/4/3 148/4/3 147/4/3
f 153/4/3 141/4/3 149/4/3
f 153/4/3 149/4/3 152/4/3
f 153/2/3 131/2/3 141/2/3
f 154/3/3 151/3/3 150/3/3
f 154/3/3 150/3/3 134/3/3
f 155/2/3 152/2/3 151/2/3
f 155/3/3 151/3/3 154/3/3
f 155/2/3 153/2/3 152/2/3
f 156/2/3 153/2/3 155/2/3
f 157/2/3 131/2/3 153/2/3
f 157/2/3 153/2/3 156/2/3
f 158/3/3 156/3/3 155/3/3
f 158/2/3 155/2/3 154/2/3
f 159/4/3 157/4/3 156/4/3
f 159/3/3 156/3/3 158/3/3
f 160/3/3 154/3/3 134/3/3
f 161/3/3 154/3/3 160/3/3
f 162/2/3 158/2/3 154/2/3
f 162/3/3 154/3/3 161/3/3
f 162/2/3 159/2/3 158/2/3
f 163/2/3 159/2/3 162/2/3
f 164/4/3 157/4/3 159/4/3
f 164/2/3 159/2/3 163/2/3
f 165/4/3 157/4/3 164/4/3
f 166/2/3 131/2/3 157/2/3
f 166/4/3 157/4/3 165/4/3
f 167/2/3 143/2/3 142/2/3
f 167/2/3 142/2/3 132/2/3
f 168/3/3 145/3/3 144/3/3
f 168/2/3 143/2/3 167/2/3
f 168/3/3 144/3/3 143/3/3
f 169/3/3 145/3/3 168/3/3
f 170/3/3 145/3/3 169/3/3
f 171/3/3 163/3/3 162/3/3
f 171/2/3 165/2/3 164/2/3
f 171/2/3 164/2/3 163/2/3
f 171/3/3 162/3/3 161/3/3
f 172/2/3 165/2/3 171/2/3
f 173/2/3 165/2/3 172/2/3
f 174/3/3 166/3/3 165/3/3
f 174/2/3 165/2/3 173/2/3
f 175/2/3 131/2/3 166/2/3
f 175/3/3 166/3/3 174/3/3
f 176/3/3 132/3/3 131/3/3
f 176/2/3 131/2/3 175/2/3
f 177/2/3 167/2/3 132/2/3
f 177/3/3 132/3/3 176/3/3
f 178/3/3 169/3/3 168/3/3
f 178/2/3 167/2/3 177/2/3
f 178/3/3 168/3/3 167/3/3
f 179/3/3 172/3/3 171/3/3
f 179/3/3 171/3/3 161/3/3
f 180/3/3 172/3/3 179/3/3
f 181/2/3 173/2/3 172/2/3
f 181/3/3 172/3/3 180/3/3
f 182/4/3 174/4/3 173/4/3
f 182/2/3 173/2/3 181/2/3
f 182/4/3 175/4/3 174/4/3
f 183/4/3 175/4/3 182/4/3
f 184/3/3 177/3/3 176/3/3
f 184/4/3 175/4/3 183/4/3
f 184/3/3 176/3/3 175/3/3
f 184/3/3 178/3/3 177/3/3
f 185/3/3 178/3/3 184/3/3
f 186/3/3 169/3/3 178/3/3
f 186/3/3 178/3/3 185/3/3
f 187/3/3 169/3/3 186/3/3
f 188/3/3 182/3/3 181/3/3
f 188/3/3 181/3/3 180/3/3
f 189/3/3 182/3/3 188/3/3
f 190/2/3 183/2/3 182/2/3
f 190/3/3 182/3/3 189/3/3
f 191/4/3 184/4/3 183/4/3
f 191/2/3 183/2/3 190/2/3
f 192/2/3 185/2/3 184/2/3
f 192/4/3 184/4/3 191/4/3
f 193/3/3 186/3/3 185/3/3
f 193/2/3 185/2/3 192/2/3
f 194/3/3 186/3/3 193/3/3
f 195/3/3 186/3/3 194/3/3
f 196/3/3 192/3/3 191/3/3
f 196/3/3 194/3/3 193/3/3
f 196/3/3 193/3/3 192/3/3
f 196/3/3 191/3/3 190/3/3
f 196/3/3 190/3/3 189/3/3
f 197/3/3 194/3/3 196/3/3
f 198/3/3 194/3/3 197/3/3
f 199/3/3 194/3/3 198/3/3
f 200/3/3 198/3/3 197/3/3
f 201/3/3 198/3/3 200/3/3
f 206/1/3 203/1/3 202/1/3
f 207/1/3 203/1/3 206/1/3
f 208/1/3 205/1/3 204/1/3
f 209/1/3 205/1/3 208/1/3
f 210/3/4 211/3/4 213/3/4
f 213/3/4 211/3/4 214/3/4
f 212/3/4 213/3/4 217/3/4
f 214/3/4 215/3/4 217/3/4
f 213/3/4 214/3/4 217/3/4
f 217/3/4 215/3/4 218/3/4
f 218/3/4 215/3/4 219/3/4
f 219/3/4 215/3/4 220/3/4
f 220/3/4 215/3/4 221/3/4
f 221/3/4 215/3/4 222/3/4
f 222/3/4 215/3/4 223/3/4
f 216/3/4 217/3/4 226/3/4
f 217/3/4 218/3/4 226/3/4
f 226/3/4 218/3/4 227/3/4
f 218/4/4 219/4/4 228/4/4
f 227/3/4 218/3/4 228/3/4
f 219/2/4 220/2/4 229/2/4
f 228/4/4 219/4/4 229/4/4
f 220/4/4 221/4/4 230/4/4
f 229/2/4 220/2/4 230/2/4
f 230/4/4 221/4/4 231/4/4
f 221/2/4 222/2/4 232/2/4
f 231/4/4 221/4/4 232/4/4
f 223/3/4 224/3/4 233/3/4
f 232/2/4 222/2/4 233/2/4
f 222/3/4 223/3/4 233/3/4
f 233/3/4 224/3/4 234/3/4
f 226/3/4 227/3/4 236/3/4
f 225/3/4 226/3/4 236/3/4
f 227/2/4 228/2/4 237/2/4
f 236/3/4 227/3/4 237/3/4
f 229/4/4 230/4/4 238/4/4
f 237/2/4 228/2/4 238/2/4
f 228/4/4 229/4/4 238/4/4
f 230/2/4 231/2/4 239/2/4
f 238/4/4 230/4/4 239/4/4
f 231/4/4 232/4/4 240/4/4
f 239/2/4 231/2/4 240/2/4
f 234/3/4 235/3/4 241/3/4
f 240/4/4 232/4/4 241/4/4
f 232/3/4 233/3/4 241/3/4
f 233/3/4 234/3/4 241/3/4
f 241/3/4 235/3/4 242/3/4
f 242/3/4 235/3/4 243/3/4
f 243/3/4 235/3/4 244/3/4
f 225/3/4 236/3/4 246/3/4
f 246/3/4 236/3/4 247/3/4
f 238/2/4 239/2/4 248/2/4
f 247/3/4 236/3/4 248/3/4
f 236/2/4 237/2/4 248/2/4
f 237/2/4 238/2/4 248/2/4
f 248/2/4 239/2/4 249/2/4
f 239/3/4 240/3/4 250/3/4
f 249/2/4 239/2/4 250/2/4
f 240/3/4 241/3/4 250/3/4
f 250/3/4 241/3/4 251/3/4
f 241/2/4 242/2/4 252/2/4
f 251/3/4 241/3/4 252/3/4
f 244/3/4 235/3/4 253/3/4
f 243/2/4 244/2/4 253/2/4
f 253/3/4 235/3/4 254/3/4
f 254/3/4 235/3/4 255/3/4
f 248/2/4 249/2/4 257/2/4
f 247/2/4 248/2/4 257/2/4
f 249/3/4 250/3/4 258/3/4
f 257/2/4 249/2/4 258/2/4
f 250/2/4 251/2/4 259/2/4
f 258/3/4 250/3/4 259/3/4
f 251/4/4 252/4/4 260/4/4
f 259/2/4 251/2/4 260/2/4
f 246/3/4 247/3/4 261/3/4
f 245/3/4 246/3/4 261/3/4
f 247/2/4 257/2/4 262/2/4
f 261/3/4 247/3/4 262/3/4
f 257/3/4 258/3/4 263/3/4
f 262/2/4 257/2/4 263/2/4
f 259/4/4 260/4/4 264/4/4
f 263/3/4 258/3/4 264/3/4
f 258/4/4 259/4/4 264/4/4
f 260/4/4 252/4/4 265/4/4
f 264/4/4 260/4/4 265/4/4
f 252/2/4 242/2/4 265/2/4
f 242/3/4 243/3/4 266/3/4
f 265/2/4 242/2/4 266/2/4
f 243/2/4 253/2/4 267/2/4
f 266/3/4 243/3/4 267/3/4
f 253/2/4 254/2/4 267/2/4
f 255/3/4 256/3/4 268/3/4
f 267/2/4 254/2/4 268/2/4
f 254/3/4 255/3/4 268/3/4
f 268/3/4 256/3/4 269/3/4
f 271/2/4 272/2/4 279/2/4
f 272/3/4 273/3/4 279/3/4
f 273/4/4 274/4/4 280/4/4
f 279/3/4 273/3/4 280/3/4
f 270/3/4 271/3/4 281/3/4
f 281/3/4 271/3/4 282/3/4
f 271/2/4 279/2/4 283/2/4
f 282/3/4 271/3/4 283/3/4
f 279/2/4 280/2/4 283/2/4
f 283/2/4 280/2/4 284/2/4
f 280/4/4 274/4/4 285/4/4
f 284/2/4 280/2/4 285/2/4
f 285/4/4 274/4/4 286/4/4
f 274/2/4 275/2/4 287/2/4
f 286/4/4 274/4/4 287/4/4
f 276/2/4 277/2/4 288/2/4
f 277/3/4 278/3/4 289/3/4
f 288/2/4 277/2/4 289/2/4
f 289/3/4 278/3/4 290/3/4
f 290/3/4 278/3/4 291/3/4
f 283/3/4 284/3/4 292/3/4
f 285/2/4 286/2/4 292/2/4
f 282/3/4 283/3/4 292/3/4
f 284/2/4 285/2/4 292/2/4
f 292/2/4 286/2/4 293/2/4
f 293/2/4 286/2/4 294/2/4
f 286/3/4 287/3/4 295/3/4
f 294/2/4 286/2/4 295/2/4
f 287/2/4 275/2/4 296/2/4
f 295/3/4 287/3/4 296/3/4
f 275/3/4 276/3/4 297/3/4
f 296/2/4 275/2/4 297/2/4
f 276/2/4 288/2/4 298/2/4
f 297/3/4 276/3/4 298/3/4
f 289/3/4 290/3/4 299/3/4
f 298/2/4 288/2/4 299/2/4
f 288/3/4 289/3/4 299/3/4
f 292/3/4 293/3/4 300/3/4
f 282/3/4 292/3/4 300/3/4
f 300/3/4 293/3/4 301/3/4
f 293/2/4 294/2/4 302/2/4
f 301/3/4 293/3/4 302/3/4
f 294/4/4 295/4/4 303/4/4
f 302/2/4 294/2/4 303/2/4
f 295/4/4 296/4/4 303/4/4
f 303/4/4 296/4/4 304/4/4
f 296/3/4 297/3/4 305/3/4
f 304/4/4 296/4/4 305/4/4
f 297/3/4 298/3/4 305/3/4
f 298/3/4 299/3/4 305/3/4
f 305/3/4 299/3/4 306/3/4
f 299/3/4 290/3/4 307/3/4
f 306/3/4 299/3/4 307/3/4
f 307/3/4 290/3/4 308/3/4
f 301/3/4 302/3/4 309/3/4
f 302/3/4 303/3/4 309/3/4
f 309/3/4 303/3/4 310/3/4
f 303/2/4 304/2/4 311/2/4
f 310/3/4 303/3/4 311/3/4
f 304/4/4 305/4/4 312/4/4
f 311/2/4 304/2/4 312/2/4
f 305/2/4 306/2/4 313/2/4
f 312/4/4 305/4/4 313/4/4
f 306/3/4 307/3/4 314/3/4
f 313/2/4 306/2/4 314/2/4
f 314/3/4 307/3/4 315/3/4
f 315/3/4 307/3/4 316/3/4
f 312/3/4 313/3/4 317/3/4
f 314/3/4 315/3/4 317/3/4
f 313/3/4 314/3/4 317/3/4
f 311/3/4 312/3/4 317/3/4
f 310/3/4 311/3/4 317/3/4
f 317/3/4 315/3/4 318/3/4
f 318/3/4 315/3/4 319/3/4
f 319/3/4 315/3/4 320/3/4
f 318/3/4 319/3/4 321/3/4
f 321/3/4 319/3/4 322/3/4
f 323/1/4 324/1/4 325/1/4
f 325/1/4 324/1/4 326/1/4
f 329/1/5 328/1/5 327/1/5
f 330/1/5 328/1/5 329/1/5
f 333/3/5 332/3/5 331/3/5
f 334/3/5 332/3/5 333/3/5
f 335/3/5 332/3/5 334/3/5
f 336/3/5 332/3/5 335/3/5
f 341/3/5 338/3/5 337/3/5
f 342/3/5 338/3/5 341/3/5
f 343/3/5 340/3/5 339/3/5
f 344/3/5 340/3/5 343/3/5
f 349/3/5 346/3/5 345/3/5
f 350/3/5 346/3/5 349/3/5
f 351/3/5 348/3/5 347/3/5
f 352/3/5 348/3/5 351/3/5
f 357/3/5 354/3/5 353/3/5
f 358/3/5 354/3/5 357/3/5
f 359/3/5 356/3/5 355/3/5
f 360/3/5 356/3/5 359/3/5
f 365/3/5 362/3/5 361/3/5
f 366/3/5 362/3/5 365/3/5
f 367/3/5 364/3/5 363/3/5
f 368/3/5 364/3/5 367/3/5
f 369/3/6 370/3/6 373/3/6
f 373/3/6 370/3/6 374/3/6
f 371/3/6 372/3/6 375/3/6
f 375/3/6 372/3/6 376/3/6
f 377/3/6 378/3/6 381/3/6
f 381/3/6 378/3/6 382/3/6
f 379/3/6 380/3/6 383/3/6
f 383/3/6 380/3/6 384/3/6
f 385/3/6 386/3/6 389/3/6
f 389/3/6 386/3/6 390/3/6
f 387/3/6 388/3/6 391/3/6
f 391/3/6 388/3/6 392/3/6
f 393/3/6 394/3/6 397/3/6
f 397/3/6 394/3/6 398/3/6
f 395/3/6 396/3/6 399/3/6
f 399/3/6 396/3/6 400/3/6
f 401/3/6 402/3/6 403/3/6
f 403/3/6 402/3/6 404/3/6
f 404/3/6 402/3/6 405/3/6
f 405/3/6 402/3/6 406/3/6
f 407/1/6 408/1/6 409/1/6
f 409/1/6 408/1/6 410/1/6
