# MagicaVoxel @ Ephtracy

# group
o 

# material
mtllib Table.mtl
usemtl palette

# normals
vn -1 0 0
vn 1 0 0
vn 0 0 1
vn 0 0 -1
vn 0 -1 0
vn 0 1 0

# texcoords
vt 0.970703 0.5
vt 0.974609 0.5
vt 0.978516 0.5

# verts
v -2 0 0.9
v -2 0 0.8
v -2 0 -0.8
v -2 0 -0.9
v -2 1.1 0.8
v -2 1.1 -0.8
v -2 1.2 0.9
v -2 1.2 -0.9
v -1.9 0 1
v -1.9 0 0.9
v -1.9 0 -0.9
v -1.9 0 -1
v -1.9 1.2 1
v -1.9 1.2 0.9
v -1.9 1.2 -0.9
v -1.9 1.2 -1
v 1.8 0 1
v 1.8 0 0.9
v 1.8 0 0.8
v 1.8 0 -0.8
v 1.8 0 -0.9
v 1.8 0 -1
v 1.8 1.1 1
v 1.8 1.1 0.9
v 1.8 1.1 0.8
v 1.8 1.1 -0.8
v 1.8 1.1 -0.9
v 1.8 1.1 -1
v -1.8 0 1
v -1.8 0 0.9
v -1.8 0 0.8
v -1.8 0 -0.8
v -1.8 0 -0.9
v -1.8 0 -1
v -1.8 1.1 1
v -1.8 1.1 0.9
v -1.8 1.1 0.8
v -1.8 1.1 -0.8
v -1.8 1.1 -0.9
v -1.8 1.1 -1
v 1.9 0 1
v 1.9 0 0.9
v 1.9 0 -0.9
v 1.9 0 -1
v 1.9 1.2 1
v 1.9 1.2 0.9
v 1.9 1.2 -0.9
v 1.9 1.2 -1
v 2 0 0.9
v 2 0 0.8
v 2 0 -0.8
v 2 0 -0.9
v 2 1.1 0.8
v 2 1.1 -0.8
v 2 1.2 0.9
v 2 1.2 -0.9
v -1.9 0 1
v -1.9 1.2 1
v -1.8 0 1
v -1.8 1.1 1
v 1.8 0 1
v 1.8 1.1 1
v 1.9 0 1
v 1.9 1.2 1
v -2 0 0.9
v -2 1.2 0.9
v -1.9 0 0.9
v -1.9 1.2 0.9
v 1.9 0 0.9
v 1.9 1.2 0.9
v 2 0 0.9
v 2 1.2 0.9
v -2 0 -0.8
v -2 1.1 -0.8
v -1.9 0 -0.8
v -1.9 1.1 -0.8
v -1.8 0 -0.8
v -1.8 1.1 -0.8
v 1.8 0 -0.8
v 1.8 1.1 -0.8
v 1.9 0 -0.8
v 1.9 1.1 -0.8
v 2 0 -0.8
v 2 1.1 -0.8
v -2 0 0.8
v -2 1.1 0.8
v -1.9 0 0.8
v -1.9 1.1 0.8
v -1.8 0 0.8
v -1.8 1.1 0.8
v 1.8 0 0.8
v 1.8 1.1 0.8
v 1.9 0 0.8
v 1.9 1.1 0.8
v 2 0 0.8
v 2 1.1 0.8
v -2 0 -0.9
v -2 1.2 -0.9
v -1.9 0 -0.9
v -1.9 1.2 -0.9
v 1.9 0 -0.9
v 1.9 1.2 -0.9
v 2 0 -0.9
v 2 1.2 -0.9
v -1.9 0 -1
v -1.9 1.2 -1
v -1.8 0 -1
v -1.8 1.1 -1
v 1.8 0 -1
v 1.8 1.1 -1
v 1.9 0 -1
v 1.9 1.2 -1
v -1.9 0 1
v -1.8 0 1
v 1.8 0 1
v 1.9 0 1
v -2 0 0.9
v -1.9 0 0.9
v -1.8 0 0.9
v 1.8 0 0.9
v 1.9 0 0.9
v 2 0 0.9
v -2 0 0.8
v -1.9 0 0.8
v -1.8 0 0.8
v 1.8 0 0.8
v 1.9 0 0.8
v 2 0 0.8
v -2 0 -0.8
v -1.9 0 -0.8
v -1.8 0 -0.8
v 1.8 0 -0.8
v 1.9 0 -0.8
v 2 0 -0.8
v -2 0 -0.9
v -1.9 0 -0.9
v -1.8 0 -0.9
v 1.8 0 -0.9
v 1.9 0 -0.9
v 2 0 -0.9
v -1.9 0 -1
v -1.8 0 -1
v 1.8 0 -1
v 1.9 0 -1
v -1.8 1.1 1
v 1.8 1.1 1
v -1.8 1.1 0.9
v 1.8 1.1 0.9
v -2 1.1 0.8
v -1.9 1.1 0.8
v -1.8 1.1 0.8
v 1.8 1.1 0.8
v 1.9 1.1 0.8
v 2 1.1 0.8
v -2 1.1 -0.8
v -1.9 1.1 -0.8
v -1.8 1.1 -0.8
v 1.8 1.1 -0.8
v 1.9 1.1 -0.8
v 2 1.1 -0.8
v -1.8 1.1 -0.9
v 1.8 1.1 -0.9
v -1.8 1.1 -1
v 1.8 1.1 -1
v -1.9 1.2 1
v 1.9 1.2 1
v -2 1.2 0.9
v -1.9 1.2 0.9
v 1.9 1.2 0.9
v 2 1.2 0.9
v -2 1.2 -0.9
v -1.9 1.2 -0.9
v 1.9 1.2 -0.9
v 2 1.2 -0.9
v -1.9 1.2 -1
v 1.9 1.2 -1

# faces
f 5/3/1 2/3/1 1/3/1
f 6/3/1 4/3/1 3/3/1
f 7/3/1 5/3/1 1/3/1
f 7/3/1 6/3/1 5/3/1
f 8/3/1 4/3/1 6/3/1
f 8/3/1 6/3/1 7/3/1
f 13/3/1 10/3/1 9/3/1
f 14/3/1 10/3/1 13/3/1
f 15/3/1 12/3/1 11/3/1
f 16/3/1 12/3/1 15/3/1
f 23/3/1 18/3/1 17/3/1
f 24/2/1 19/2/1 18/2/1
f 24/3/1 18/3/1 23/3/1
f 25/2/1 19/2/1 24/2/1
f 26/2/1 21/2/1 20/2/1
f 27/3/1 22/3/1 21/3/1
f 27/2/1 21/2/1 26/2/1
f 28/3/1 22/3/1 27/3/1
f 29/3/2 30/3/2 35/3/2
f 30/2/2 31/2/2 36/2/2
f 35/3/2 30/3/2 36/3/2
f 36/2/2 31/2/2 37/2/2
f 32/2/2 33/2/2 38/2/2
f 33/3/2 34/3/2 39/3/2
f 38/2/2 33/2/2 39/2/2
f 39/3/2 34/3/2 40/3/2
f 41/3/2 42/3/2 45/3/2
f 45/3/2 42/3/2 46/3/2
f 43/3/2 44/3/2 47/3/2
f 47/3/2 44/3/2 48/3/2
f 49/3/2 50/3/2 53/3/2
f 51/3/2 52/3/2 54/3/2
f 49/3/2 53/3/2 55/3/2
f 53/3/2 54/3/2 55/3/2
f 54/3/2 52/3/2 56/3/2
f 55/3/2 54/3/2 56/3/2
f 59/3/3 58/3/3 57/3/3
f 60/3/3 58/3/3 59/3/3
f 62/3/3 58/3/3 60/3/3
f 63/3/3 62/3/3 61/3/3
f 64/3/3 58/3/3 62/3/3
f 64/3/3 62/3/3 63/3/3
f 67/3/3 66/3/3 65/3/3
f 68/3/3 66/3/3 67/3/3
f 71/3/3 70/3/3 69/3/3
f 72/3/3 70/3/3 71/3/3
f 75/3/3 74/3/3 73/3/3
f 76/3/3 74/3/3 75/3/3
f 77/2/3 76/2/3 75/2/3
f 78/2/3 76/2/3 77/2/3
f 81/2/3 80/2/3 79/2/3
f 82/2/3 80/2/3 81/2/3
f 83/3/3 82/3/3 81/3/3
f 84/3/3 82/3/3 83/3/3
f 85/3/4 86/3/4 87/3/4
f 87/3/4 86/3/4 88/3/4
f 87/2/4 88/2/4 89/2/4
f 89/2/4 88/2/4 90/2/4
f 91/2/4 92/2/4 93/2/4
f 93/2/4 92/2/4 94/2/4
f 93/3/4 94/3/4 95/3/4
f 95/3/4 94/3/4 96/3/4
f 97/3/4 98/3/4 99/3/4
f 99/3/4 98/3/4 100/3/4
f 101/3/4 102/3/4 103/3/4
f 103/3/4 102/3/4 104/3/4
f 105/3/4 106/3/4 107/3/4
f 107/3/4 106/3/4 108/3/4
f 108/3/4 106/3/4 110/3/4
f 109/3/4 110/3/4 111/3/4
f 110/3/4 106/3/4 112/3/4
f 111/3/4 110/3/4 112/3/4
f 118/3/5 114/3/5 113/3/5
f 119/3/5 114/3/5 118/3/5
f 120/3/5 116/3/5 115/3/5
f 121/3/5 116/3/5 120/3/5
f 123/3/5 118/3/5 117/3/5
f 124/2/5 119/2/5 118/2/5
f 124/3/5 118/3/5 123/3/5
f 125/2/5 119/2/5 124/2/5
f 126/2/5 121/2/5 120/2/5
f 127/3/5 122/3/5 121/3/5
f 127/2/5 121/2/5 126/2/5
f 128/3/5 122/3/5 127/3/5
f 135/3/5 130/3/5 129/3/5
f 136/2/5 131/2/5 130/2/5
f 136/3/5 130/3/5 135/3/5
f 137/2/5 131/2/5 136/2/5
f 138/2/5 133/2/5 132/2/5
f 139/3/5 134/3/5 133/3/5
f 139/2/5 133/2/5 138/2/5
f 140/3/5 134/3/5 139/3/5
f 141/3/5 137/3/5 136/3/5
f 142/3/5 137/3/5 141/3/5
f 143/3/5 139/3/5 138/3/5
f 144/3/5 139/3/5 143/3/5
f 147/3/5 146/3/5 145/3/5
f 148/3/5 146/3/5 147/3/5
f 151/1/5 148/1/5 147/1/5
f 152/1/5 148/1/5 151/1/5
f 155/3/5 150/3/5 149/3/5
f 156/1/5 152/1/5 151/1/5
f 156/3/5 150/3/5 155/3/5
f 156/1/5 151/1/5 150/1/5
f 156/1/5 153/1/5 152/1/5
f 157/1/5 153/1/5 156/1/5
f 158/1/5 153/1/5 157/1/5
f 159/3/5 154/3/5 153/3/5
f 159/1/5 153/1/5 158/1/5
f 160/3/5 154/3/5 159/3/5
f 161/1/5 158/1/5 157/1/5
f 162/1/5 158/1/5 161/1/5
f 163/3/5 162/3/5 161/3/5
f 164/3/5 162/3/5 163/3/5
f 165/3/6 166/3/6 168/3/6
f 168/3/6 166/3/6 169/3/6
f 167/3/6 168/3/6 171/3/6
f 168/1/6 169/1/6 172/1/6
f 171/3/6 168/3/6 172/3/6
f 169/3/6 170/3/6 173/3/6
f 172/1/6 169/1/6 173/1/6
f 173/3/6 170/3/6 174/3/6
f 172/3/6 173/3/6 175/3/6
f 175/3/6 173/3/6 176/3/6
